<svg width="236" height="236" viewBox="0 0 236 236" fill="none" xmlns="http://www.w3.org/2000/svg">
<path d="M75.4866 14.3086C41.7681 14.3086 14.3301 41.7465 14.3301 75.4649V160.143C14.3301 193.861 41.7681 221.299 75.4866 221.299H160.165C193.883 221.299 221.321 193.861 221.321 160.143V75.4649C221.321 41.7465 193.883 14.3086 160.165 14.3086H75.4866ZM75.4866 23.7173H160.165C188.798 23.7173 211.913 46.8321 211.913 75.4649V160.143C211.913 188.776 188.798 211.891 160.165 211.891H75.4866C46.8536 211.891 23.7388 188.776 23.7388 160.143V75.4649C23.7388 46.8321 46.8536 23.7173 75.4866 23.7173ZM174.278 51.9433C171.782 51.9433 169.389 52.9345 167.625 54.699C165.86 56.4635 164.869 58.8566 164.869 61.3519C164.869 63.8473 165.86 66.2404 167.625 68.0049C169.389 69.7693 171.782 70.7606 174.278 70.7606C176.773 70.7606 179.166 69.7693 180.931 68.0049C182.695 66.2404 183.687 63.8473 183.687 61.3519C183.687 58.8566 182.695 56.4635 180.931 54.699C179.166 52.9345 176.773 51.9433 174.278 51.9433ZM117.826 66.0563C89.3019 66.0563 66.0779 89.2802 66.0779 117.804C66.0779 146.328 89.3019 169.552 117.826 169.552C146.349 169.552 169.573 146.328 169.573 117.804C169.573 89.2802 146.349 66.0563 117.826 66.0563ZM117.826 75.4649C141.265 75.4649 160.165 94.365 160.165 117.804C160.165 141.243 141.265 160.143 117.826 160.143C94.3867 160.143 75.4866 141.243 75.4866 117.804C75.4866 94.365 94.3867 75.4649 117.826 75.4649Z" fill="black"/>
</svg>
