<svg width="236" height="236" viewBox="0 0 236 236" fill="none" xmlns="http://www.w3.org/2000/svg">
<path d="M117.609 14.3086C60.5055 14.3086 14.1133 60.7007 14.1133 117.804C14.1133 169.642 52.348 212.542 102.145 220.022L107.548 220.84V139.286H83.0981V122.729H107.548V100.742C107.548 87.2021 110.797 78.2848 116.176 72.6901C121.554 67.0955 129.501 64.2738 140.561 64.2738C149.404 64.2738 152.845 64.8096 156.117 65.211V78.7635H144.604C138.071 78.7635 132.712 82.4081 129.93 87.2626C127.148 92.117 126.283 97.9132 126.283 103.82V122.72H155.087L152.524 139.277H126.283V220.969L131.621 220.243C182.126 213.393 221.104 170.148 221.104 117.804C221.104 60.7007 174.712 14.3086 117.609 14.3086ZM117.609 23.7173C169.627 23.7173 211.696 65.7855 211.696 117.804C211.696 163.576 178.934 201.22 135.691 209.695V148.685H160.591L166.058 113.311H135.691V103.82C135.691 98.939 136.584 94.5659 138.089 91.9393C139.594 89.3127 141.045 88.1722 144.604 88.1722H165.525V56.6936L161.446 56.1423C158.624 55.7605 152.182 54.8651 140.561 54.8651C127.845 54.8651 116.929 58.3292 109.395 66.1665C101.86 74.0039 98.1391 85.674 98.1391 100.742V113.32H73.6894V148.695H98.1391V209.401C55.5915 200.388 23.522 163.081 23.522 117.804C23.522 65.7855 65.5903 23.7173 117.609 23.7173Z" fill="black"/>
</svg>
