<svg width="38" height="38" viewBox="0 0 38 38" fill="none" xmlns="http://www.w3.org/2000/svg">
<path d="M19 0C13.9609 0 9.12816 2.00178 5.56497 5.56497C2.00178 9.12816 0 13.9609 0 19C0 24.0391 2.00178 28.8718 5.56497 32.435C9.12816 35.9982 13.9609 38 19 38C24.0391 38 28.8718 35.9982 32.435 32.435C35.9982 28.8718 38 24.0391 38 19C38 13.9609 35.9982 9.12816 32.435 5.56497C28.8718 2.00178 24.0391 0 19 0Z" fill="#039BE5"/>
<path d="M19 0C13.9609 0 9.12816 2.00178 5.56497 5.56497C2.00178 9.12816 0 13.9609 0 19C0 24.0391 2.00178 28.8718 5.56497 32.435C9.12816 35.9982 13.9609 38 19 38C24.0391 38 28.8718 35.9982 32.435 32.435C35.9982 28.8718 38 24.0391 38 19C38 13.9609 35.9982 9.12816 32.435 5.56497C28.8718 2.00178 24.0391 0 19 0Z" fill="url(#paint0_radial_34_704)"/>
<path d="M19 8.29412C22.5176 8.29412 22.9 8.29412 24.2765 8.37059C25.5765 8.44706 26.2647 8.67647 26.7235 8.82941C27.3353 9.05882 27.7941 9.36471 28.2529 9.82353C28.7118 10.2824 29.0176 10.7412 29.2471 11.3529C29.4 11.8118 29.6294 12.5 29.7059 13.8C29.7059 15.1 29.7059 15.4824 29.7059 19C29.7059 22.5176 29.7059 22.9 29.6294 24.2765C29.5529 25.5765 29.3235 26.2647 29.1706 26.7235C28.9412 27.3353 28.6353 27.7941 28.1765 28.2529C27.7176 28.7118 27.2588 29.0176 26.6471 29.2471C26.1882 29.4 25.5 29.6294 24.2 29.7059C22.9 29.7059 22.5176 29.7059 19 29.7059C15.4824 29.7059 15.1 29.7059 13.7235 29.6294C12.4235 29.5529 11.7353 29.3235 11.2765 29.1706C10.6647 28.9412 10.2059 28.6353 9.74706 28.1765C9.28824 27.7176 8.98235 27.2588 8.75294 26.6471C8.6 26.1882 8.37059 25.5 8.29412 24.2C8.29412 22.9 8.29412 22.5176 8.29412 19C8.29412 15.4824 8.29412 15.1 8.37059 13.7235C8.44706 12.4235 8.67647 11.7353 8.82941 11.2765C9.05882 10.6647 9.36471 10.2059 9.82353 9.74706C10.2824 9.28824 10.7412 8.98235 11.3529 8.75294C11.8118 8.6 12.5 8.37059 13.8 8.29412C15.1 8.29412 15.4824 8.29412 19 8.29412ZM19 6C15.4824 6 15.0235 6 13.6471 6.07647C12.2706 6.15294 11.3529 6.38235 10.5118 6.68824C9.67059 6.99412 8.90588 7.45294 8.21765 8.21765C7.52941 8.98235 7.07059 9.67059 6.68824 10.5118C6.38235 11.3529 6.15294 12.2706 6.07647 13.6471C6 15.0235 6 15.4824 6 19C6 22.5176 6 22.9765 6.07647 24.3529C6.15294 25.7294 6.38235 26.6471 6.68824 27.4882C6.99412 28.3294 7.45294 29.0941 8.21765 29.7824C8.90588 30.4706 9.67059 30.9294 10.5118 31.3118C11.3529 31.6176 12.2706 31.8471 13.6471 31.9235C15.0235 32 15.4824 32 19 32C22.5176 32 22.9765 32 24.3529 31.9235C25.7294 31.8471 26.6471 31.6176 27.4882 31.3118C28.3294 31.0059 29.0941 30.5471 29.7824 29.7824C30.4706 29.0941 30.9294 28.3294 31.3118 27.4882C31.6176 26.6471 31.8471 25.7294 31.9235 24.3529C32 22.9765 32 22.5176 32 19C32 15.4824 32 15.0235 31.9235 13.6471C31.8471 12.2706 31.6176 11.3529 31.3118 10.5118C31.0059 9.67059 30.5471 8.90588 29.7824 8.21765C29.0176 7.52941 28.3294 7.07059 27.4882 6.68824C26.6471 6.38235 25.7294 6.15294 24.3529 6.07647C22.9765 6 22.5176 6 19 6Z" fill="white"/>
<path d="M19 12C15.1111 12 12 15.1111 12 19C12 22.8889 15.1111 26 19 26C22.8889 26 26 22.8889 26 19C26 15.1111 22.8889 12 19 12ZM19 23.6667C16.4333 23.6667 14.3333 21.5667 14.3333 19C14.3333 16.4333 16.4333 14.3333 19 14.3333C21.5667 14.3333 23.6667 16.4333 23.6667 19C23.6667 21.5667 21.5667 23.6667 19 23.6667Z" fill="white"/>
<path d="M26 13C26.5523 13 27 12.5523 27 12C27 11.4477 26.5523 11 26 11C25.4477 11 25 11.4477 25 12C25 12.5523 25.4477 13 26 13Z" fill="white"/>
<defs>
<radialGradient id="paint0_radial_34_704" cx="0" cy="0" r="1" gradientUnits="userSpaceOnUse" gradientTransform="translate(11.5 38) rotate(-47.4463) scale(49.357 32.6045)">
<stop offset="0.073" stop-color="#EACC7B"/>
<stop offset="0.184" stop-color="#ECAA59"/>
<stop offset="0.307" stop-color="#EF802E"/>
<stop offset="0.358" stop-color="#EF6D3A"/>
<stop offset="0.46" stop-color="#F04B50"/>
<stop offset="0.516" stop-color="#F03E58"/>
<stop offset="0.689" stop-color="#DB359E"/>
<stop offset="0.724" stop-color="#CE37A4"/>
<stop offset="0.789" stop-color="#AC3CB4"/>
<stop offset="0.877" stop-color="#7544CF"/>
<stop offset="0.98" stop-color="#2B4FF2"/>
</radialGradient>
</defs>
</svg>
