<svg width="305" height="270" viewBox="0 0 305 270" fill="none" xmlns="http://www.w3.org/2000/svg">
<circle cx="187.5" cy="82.5" r="12.5" transform="rotate(-180 187.5 82.5)" fill="#D9D9D9"/>
<circle cx="152.5" cy="82.5" r="12.5" transform="rotate(-180 152.5 82.5)" fill="#D9D9D9"/>
<circle cx="117.5" cy="82.5" r="12.5" transform="rotate(-180 117.5 82.5)" fill="#D9D9D9"/>
<circle cx="82.5" cy="82.5" r="12.5" transform="rotate(-180 82.5 82.5)" fill="#036DCE"/>
<circle cx="47.5" cy="82.5" r="12.5" transform="rotate(-180 47.5 82.5)" fill="#D9D9D9"/>
<circle cx="12.5" cy="117.5" r="12.5" transform="rotate(-180 12.5 117.5)" fill="#D9D9D9"/>
<circle cx="187.5" cy="117.5" r="12.5" transform="rotate(-180 187.5 117.5)" fill="#F65058"/>
<circle cx="152.5" cy="117.5" r="12.5" transform="rotate(-180 152.5 117.5)" fill="#D9D9D9"/>
<circle cx="117.5" cy="117.5" r="12.5" transform="rotate(-180 117.5 117.5)" fill="#D9D9D9"/>
<circle cx="82.5" cy="117.5" r="12.5" transform="rotate(-180 82.5 117.5)" fill="#D9D9D9"/>
<circle cx="47.5" cy="117.5" r="12.5" transform="rotate(-180 47.5 117.5)" fill="#FFCB11"/>
<circle cx="187.5" cy="152.5" r="12.5" transform="rotate(-180 187.5 152.5)" fill="#D9D9D9"/>
<circle cx="152.5" cy="152.5" r="12.5" transform="rotate(-180 152.5 152.5)" fill="#D9D9D9"/>
<circle cx="117.5" cy="152.5" r="12.5" transform="rotate(-180 117.5 152.5)" fill="#D9D9D9"/>
<circle cx="82.5" cy="152.5" r="12.5" transform="rotate(-180 82.5 152.5)" fill="#D9D9D9"/>
<circle cx="47.5" cy="152.5" r="12.5" transform="rotate(-180 47.5 152.5)" fill="#D9D9D9"/>
<circle cx="12.5" cy="222.5" r="12.5" transform="rotate(-180 12.5 222.5)" fill="#D9D9D9"/>
<circle cx="187.5" cy="222.5" r="12.5" transform="rotate(-180 187.5 222.5)" fill="#D9D9D9"/>
<circle cx="152.5" cy="222.5" r="12.5" transform="rotate(-180 152.5 222.5)" fill="#F65058"/>
<circle cx="117.5" cy="222.5" r="12.5" transform="rotate(-180 117.5 222.5)" fill="#D9D9D9"/>
<circle cx="47.5" cy="222.5" r="12.5" transform="rotate(-180 47.5 222.5)" fill="#D9D9D9"/>
<circle cx="152.5" cy="257.5" r="12.5" transform="rotate(-180 152.5 257.5)" fill="#D9D9D9"/>
<circle cx="117.5" cy="257.5" r="12.5" transform="rotate(-180 117.5 257.5)" fill="#D9D9D9"/>
<circle cx="12.5" cy="187.5" r="12.5" transform="rotate(-180 12.5 187.5)" fill="#D9D9D9"/>
<circle cx="187.5" cy="187.5" r="12.5" transform="rotate(-180 187.5 187.5)" fill="#D9D9D9"/>
<circle cx="152.5" cy="187.5" r="12.5" transform="rotate(-180 152.5 187.5)" fill="#D9D9D9"/>
<circle cx="117.5" cy="187.5" r="12.5" transform="rotate(-180 117.5 187.5)" fill="#D9D9D9"/>
<circle cx="82.5" cy="187.5" r="12.5" transform="rotate(-180 82.5 187.5)" fill="#D9D9D9"/>
<circle cx="47.5" cy="187.5" r="12.5" transform="rotate(-180 47.5 187.5)" fill="#D9D9D9"/>
<circle cx="12.5" cy="12.5" r="12.5" transform="rotate(-180 12.5 12.5)" fill="#D9D9D9"/>
<circle cx="152.5" cy="12.5" r="12.5" transform="rotate(-180 152.5 12.5)" fill="#D9D9D9"/>
<circle cx="117.5" cy="12.5" r="12.5" transform="rotate(-180 117.5 12.5)" fill="#D9D9D9"/>
<circle cx="12.5" cy="47.5" r="12.5" transform="rotate(-180 12.5 47.5)" fill="#D9D9D9"/>
<circle cx="187.5" cy="47.5" r="12.5" transform="rotate(-180 187.5 47.5)" fill="#036DCE"/>
<circle cx="152.5" cy="47.5" r="12.5" transform="rotate(-180 152.5 47.5)" fill="#D9D9D9"/>
<circle cx="117.5" cy="47.5" r="12.5" transform="rotate(-180 117.5 47.5)" fill="#D9D9D9"/>
<circle cx="82.5" cy="47.5" r="12.5" transform="rotate(-180 82.5 47.5)" fill="#D9D9D9"/>
<circle cx="47.5" cy="47.5" r="12.5" transform="rotate(-180 47.5 47.5)" fill="#D9D9D9"/>
<circle cx="12.5" cy="187.5" r="12.5" transform="rotate(-180 12.5 187.5)" fill="#D9D9D9"/>
<circle cx="187.5" cy="187.5" r="12.5" transform="rotate(-180 187.5 187.5)" fill="#D9D9D9"/>
<circle cx="222.5" cy="82.5" r="12.5" transform="rotate(-180 222.5 82.5)" fill="#D9D9D9"/>
<circle cx="222.5" cy="152.5" r="12.5" transform="rotate(-180 222.5 152.5)" fill="#D9D9D9"/>
<circle cx="222.5" cy="47.5" r="12.5" transform="rotate(-180 222.5 47.5)" fill="#D9D9D9"/>
<circle cx="222.5" cy="187.5" r="12.5" transform="rotate(-180 222.5 187.5)" fill="#D9D9D9"/>
<circle cx="257.5" cy="117.5" r="12.5" transform="rotate(-180 257.5 117.5)" fill="#D9D9D9"/>
<circle cx="292.5" cy="117.5" r="12.5" transform="rotate(-180 292.5 117.5)" fill="#D9D9D9"/>
<circle cx="257.5" cy="187.5" r="12.5" transform="rotate(-180 257.5 187.5)" fill="#FFCB11"/>
<circle cx="257.5" cy="152.5" r="12.5" transform="rotate(-180 257.5 152.5)" fill="#D9D9D9"/>
<circle cx="152.5" cy="187.5" r="12.5" transform="rotate(-180 152.5 187.5)" fill="#D9D9D9"/>
<circle cx="117.5" cy="187.5" r="12.5" transform="rotate(-180 117.5 187.5)" fill="#D9D9D9"/>
<circle cx="82.5" cy="187.5" r="12.5" transform="rotate(-180 82.5 187.5)" fill="#D9D9D9"/>
<circle cx="47.5" cy="187.5" r="12.5" transform="rotate(-180 47.5 187.5)" fill="#D9D9D9"/>
</svg>
