<svg width="976" height="269" viewBox="0 0 976 269" fill="none" xmlns="http://www.w3.org/2000/svg">
<line x1="52.5" y1="215.818" x2="922.74" y2="215.818" stroke="#F65058" stroke-width="105" stroke-linecap="round"/>
<mask id="path-2-outside-1_800_1248" maskUnits="userSpaceOnUse" x="-1" y="-13.5898" width="990" height="243" fill="black">
<rect fill="white" x="-1" y="-13.5898" width="990" height="243"/>
<path d="M17.01 209.41L17.01 51.4298L32.5316 51.4298C39.7609 51.4298 46.9901 51.1463 54.2194 50.5793C61.5195 50.0123 69.1031 49.7288 76.9703 49.7288C89.6569 49.7288 100.536 51.5361 109.608 55.1507C118.68 58.6945 125.626 64.5416 130.445 72.6923C135.336 80.8429 137.781 91.7576 137.781 105.437C137.781 124.148 132.217 138.571 121.09 148.706C110.033 158.841 93.9803 163.908 72.9304 163.908C68.8197 163.908 65.524 163.873 63.0433 163.802C60.5627 163.731 58.4719 163.696 56.7709 163.696L56.7709 209.41H17.01ZM56.7709 134.566C59.0389 134.779 61.4841 134.991 64.1065 135.204C66.7288 135.346 69.6702 135.417 72.9304 135.417C77.8917 135.417 82.3213 134.46 86.2195 132.546C90.1885 130.562 93.307 127.372 95.575 122.978C97.9138 118.513 99.0833 112.595 99.0833 105.224C99.0833 96.7189 96.8861 89.8795 92.4919 84.7056C88.1685 79.4608 81.3645 77.0156 72.0799 77.37C69.6701 77.37 67.0832 77.4763 64.3191 77.689C61.555 77.8307 59.0389 78.0788 56.7709 78.4331L56.7709 134.566ZM205.024 211.111C194.109 211.111 184.824 209.446 177.17 206.114C169.586 202.712 163.491 198.07 158.884 192.188C154.277 186.305 150.946 179.572 148.891 171.988C146.835 164.334 145.843 156.254 145.914 147.749C146.127 135.133 148.855 124.502 154.1 115.855C159.345 107.208 166.539 100.652 175.681 96.1873C184.824 91.7222 195.314 89.4896 207.15 89.4896C221.75 89.4896 233.374 92.3955 242.02 98.2073C250.738 104.019 256.975 111.709 260.731 121.277C264.488 130.845 266.26 141.299 266.047 152.639C265.905 165.326 263.212 176.028 257.967 184.746C252.793 193.392 245.635 199.948 236.492 204.413C227.349 208.879 216.86 211.111 205.024 211.111ZM205.874 184.533C213.458 184.533 218.703 181.769 221.608 176.241C224.585 170.642 226.074 162.207 226.074 150.938C226.074 144.56 225.471 138.748 224.266 133.503C223.061 128.187 221.041 123.97 218.206 120.852C215.371 117.662 211.473 116.068 206.512 116.068C198.787 116.068 193.4 118.867 190.353 124.466C187.376 130.066 185.887 138.252 185.887 149.025C185.887 155.545 186.49 161.499 187.695 166.885C188.971 172.272 191.061 176.56 193.967 179.749C196.873 182.938 200.842 184.533 205.874 184.533ZM287.735 209.41L287.735 90.978L322.818 90.978L323.668 103.736C326.362 101.538 329.728 99.3413 333.768 97.1441C337.879 94.947 342.379 93.1043 347.27 91.6159C352.16 90.1275 357.192 89.3479 362.366 89.277C370.233 89.0644 376.825 90.3756 382.14 93.2106C387.456 96.0456 391.425 100.83 394.047 107.563C396.741 114.225 398.087 123.226 398.087 134.566L398.087 209.41L359.815 209.41L359.815 141.795C359.815 136.055 359.354 131.554 358.433 128.294C357.511 125.033 355.987 122.73 353.861 121.383C351.735 120.037 348.829 119.399 345.144 119.47C342.379 119.47 339.155 120.108 335.469 121.383C331.855 122.659 328.701 124.573 326.007 127.124L326.007 209.41H287.735ZM396.599 127.975L390.22 104.373C392.063 102.672 394.969 100.617 398.938 98.2073C402.907 95.7975 407.655 93.7067 413.184 91.9348C418.783 90.0921 424.878 89.2061 431.469 89.277C439.407 89.2061 446.211 90.5528 451.881 93.3169C457.551 96.081 461.91 100.794 464.958 107.456C468.005 114.119 469.529 123.226 469.529 134.779L469.529 209.41H431.044L431.044 141.583C431.044 135.842 430.583 131.377 429.662 128.187C428.741 124.927 427.181 122.659 424.984 121.383C422.858 120.037 419.917 119.399 416.16 119.47C412.12 119.47 408.329 120.427 404.785 122.34C401.241 124.254 398.512 126.132 396.599 127.975ZM526.445 211.111C518.648 211.111 511.844 209.516 506.033 206.327C500.292 203.067 495.827 198.602 492.637 192.932C489.519 187.191 487.959 180.635 487.959 173.264C487.959 166.318 489.838 160.294 493.594 155.191C497.421 150.017 502.631 146.048 509.222 143.284C513.971 141.228 519.144 139.705 524.744 138.712C530.343 137.649 535.942 136.94 541.541 136.586C547.211 136.232 552.527 136.055 557.488 136.055L563.016 142.859L557.488 154.553C555.007 154.624 552.42 154.836 549.727 155.191C547.105 155.474 544.624 155.9 542.285 156.467C539.946 156.963 538.068 157.53 536.651 158.168C534.453 159.089 532.363 160.471 530.378 162.314C528.465 164.086 527.508 167.098 527.508 171.35C527.508 176.949 529.032 181.025 532.079 183.576C535.198 186.057 538.706 187.297 542.604 187.297C544.659 187.297 546.679 187.049 548.664 186.553C550.719 186.057 552.527 185.454 554.086 184.746C555.645 183.966 556.779 183.186 557.488 182.407L563.654 190.274L559.401 199.417C556.141 202.252 551.818 204.91 546.431 207.39C541.116 209.871 534.453 211.111 526.445 211.111ZM595.76 209.41H559.401L559.401 191.762H557.488L557.488 129.038C557.488 123.793 556.035 120.356 553.129 118.726C550.294 117.095 546.219 116.28 540.903 116.28C536.367 116.28 531.618 116.635 526.657 117.344C521.767 118.052 517.018 119.045 512.411 120.32C507.804 121.525 503.765 122.943 500.292 124.573L492.425 102.035C495.33 100.263 499.512 98.3845 504.969 96.4C510.498 94.3446 516.699 92.6081 523.574 91.1906C530.449 89.7731 537.43 89.0644 544.518 89.0644C556.921 89.0644 566.879 90.5173 574.392 93.4232C581.904 96.3291 587.326 101.042 590.657 107.563C594.059 114.083 595.76 122.801 595.76 133.716L595.76 209.41ZM537.076 73.5428L519.534 57.3833C522.865 54.1939 526.551 50.154 530.591 45.2636C534.702 40.3024 538.777 35.0222 542.817 29.4231C546.857 23.7531 550.542 18.2603 553.873 12.9446L578.963 32.5061C577.616 35.6246 575.632 38.9203 573.009 42.3932C570.387 45.7952 567.375 49.1618 563.973 52.4929C560.642 55.7531 557.24 58.8362 553.767 61.7421C550.365 64.5771 547.176 67.0223 544.199 69.0776C541.293 71.133 538.919 72.6214 537.076 73.5428ZM625.142 209.41L625.142 36.7586H663.628L663.628 81.1973L661.501 107.775L660.438 104.586C662.919 102.318 666.144 100.015 670.113 97.6757C674.082 95.3368 678.511 93.3878 683.402 91.8285C688.292 90.1984 693.395 89.3479 698.711 89.277C711.61 88.9226 721.107 92.5373 727.202 100.121C733.298 107.634 736.345 119.328 736.345 135.204L736.345 209.41H697.648L697.648 141.795C697.648 132.723 696.407 126.699 693.927 123.722C691.446 120.746 687.654 119.328 682.551 119.47C680.141 119.47 677.094 120.037 673.408 121.171C669.794 122.234 666.533 124.218 663.628 127.124L663.628 209.41L625.142 209.41ZM793.264 211.111C785.468 211.111 778.664 209.516 772.852 206.327C767.111 203.067 762.646 198.602 759.457 192.932C756.338 187.191 754.779 180.635 754.779 173.264C754.779 166.318 756.657 160.294 760.413 155.191C764.241 150.017 769.45 146.048 776.041 143.284C780.79 141.228 785.964 139.705 791.563 138.712C797.162 137.649 802.761 136.94 808.36 136.586C814.03 136.232 819.346 136.055 824.307 136.055L829.836 142.859L824.307 154.553C821.827 154.624 819.24 154.836 816.546 155.191C813.924 155.474 811.443 155.9 809.105 156.467C806.766 156.963 804.888 157.53 803.47 158.168C801.273 159.089 799.182 160.471 797.198 162.314C795.284 164.086 794.327 167.098 794.327 171.35C794.327 176.949 795.851 181.025 798.899 183.576C802.017 186.057 805.525 187.297 809.424 187.297C811.479 187.297 813.499 187.049 815.483 186.553C817.539 186.057 819.346 185.454 820.905 184.746C822.465 183.966 823.599 183.186 824.307 182.407L830.473 190.274L826.221 199.417C822.961 202.252 818.637 204.91 813.251 207.39C807.935 209.871 801.273 211.111 793.264 211.111ZM862.58 209.41H826.221L826.221 191.762H824.307L824.307 129.038C824.307 123.793 822.854 120.356 819.948 118.726C817.113 117.095 813.038 116.28 807.723 116.28C803.187 116.28 798.438 116.635 793.477 117.344C788.586 118.052 783.838 119.045 779.231 120.32C774.624 121.525 770.584 122.943 767.111 124.573L759.244 102.035C762.15 100.263 766.332 98.3845 771.789 96.4C777.317 94.3446 783.519 92.6081 790.394 91.1906C797.268 89.7731 804.25 89.0644 811.337 89.0644C823.74 89.0644 833.698 90.5173 841.211 93.4232C848.724 96.3291 854.146 101.042 857.477 107.563C860.879 114.083 862.58 122.801 862.58 133.716L862.58 209.41ZM930.447 211.111C921.942 211.111 915.138 209.694 910.035 206.859C905.003 204.024 901.353 199.771 899.085 194.101C896.888 188.36 895.789 181.202 895.789 172.626L895.789 116.28H882.181L882.181 95.8684C887.426 94.38 891.749 92.8562 895.151 91.297C898.553 89.6668 901.034 87.2216 902.593 83.9614C903.373 82.3313 904.223 80.3822 905.145 78.1142C906.066 75.8462 907.023 73.4719 908.015 70.9913C909.007 68.5106 909.964 66.1718 910.886 63.9746L934.274 63.9746L934.274 90.978L964.892 90.978L964.892 116.28L934.274 116.28L934.274 158.38C934.274 165.751 934.664 171.138 935.444 174.54C936.294 177.942 937.712 180.103 939.696 181.025C941.681 181.946 944.409 182.407 947.882 182.407C949.654 182.407 951.674 182.194 953.942 181.769C956.21 181.273 958.372 180.67 960.427 179.962C962.483 179.253 964.113 178.509 965.318 177.729L969.783 198.992C967.94 200.834 964.999 202.712 960.959 204.626C956.99 206.469 952.347 208.028 947.032 209.304C941.716 210.509 936.188 211.111 930.447 211.111Z"/>
</mask>
<path d="M17.01 209.41L17.01 51.4298L32.5316 51.4298C39.7609 51.4298 46.9901 51.1463 54.2194 50.5793C61.5195 50.0123 69.1031 49.7288 76.9703 49.7288C89.6569 49.7288 100.536 51.5361 109.608 55.1507C118.68 58.6945 125.626 64.5416 130.445 72.6923C135.336 80.8429 137.781 91.7576 137.781 105.437C137.781 124.148 132.217 138.571 121.09 148.706C110.033 158.841 93.9803 163.908 72.9304 163.908C68.8197 163.908 65.524 163.873 63.0433 163.802C60.5627 163.731 58.4719 163.696 56.7709 163.696L56.7709 209.41H17.01ZM56.7709 134.566C59.0389 134.779 61.4841 134.991 64.1065 135.204C66.7288 135.346 69.6702 135.417 72.9304 135.417C77.8917 135.417 82.3213 134.46 86.2195 132.546C90.1885 130.562 93.307 127.372 95.575 122.978C97.9138 118.513 99.0833 112.595 99.0833 105.224C99.0833 96.7189 96.8861 89.8795 92.4919 84.7056C88.1685 79.4608 81.3645 77.0156 72.0799 77.37C69.6701 77.37 67.0832 77.4763 64.3191 77.689C61.555 77.8307 59.0389 78.0788 56.7709 78.4331L56.7709 134.566ZM205.024 211.111C194.109 211.111 184.824 209.446 177.17 206.114C169.586 202.712 163.491 198.07 158.884 192.188C154.277 186.305 150.946 179.572 148.891 171.988C146.835 164.334 145.843 156.254 145.914 147.749C146.127 135.133 148.855 124.502 154.1 115.855C159.345 107.208 166.539 100.652 175.681 96.1873C184.824 91.7222 195.314 89.4896 207.15 89.4896C221.75 89.4896 233.374 92.3955 242.02 98.2073C250.738 104.019 256.975 111.709 260.731 121.277C264.488 130.845 266.26 141.299 266.047 152.639C265.905 165.326 263.212 176.028 257.967 184.746C252.793 193.392 245.635 199.948 236.492 204.413C227.349 208.879 216.86 211.111 205.024 211.111ZM205.874 184.533C213.458 184.533 218.703 181.769 221.608 176.241C224.585 170.642 226.074 162.207 226.074 150.938C226.074 144.56 225.471 138.748 224.266 133.503C223.061 128.187 221.041 123.97 218.206 120.852C215.371 117.662 211.473 116.068 206.512 116.068C198.787 116.068 193.4 118.867 190.353 124.466C187.376 130.066 185.887 138.252 185.887 149.025C185.887 155.545 186.49 161.499 187.695 166.885C188.971 172.272 191.061 176.56 193.967 179.749C196.873 182.938 200.842 184.533 205.874 184.533ZM287.735 209.41L287.735 90.978L322.818 90.978L323.668 103.736C326.362 101.538 329.728 99.3413 333.768 97.1441C337.879 94.947 342.379 93.1043 347.27 91.6159C352.16 90.1275 357.192 89.3479 362.366 89.277C370.233 89.0644 376.825 90.3756 382.14 93.2106C387.456 96.0456 391.425 100.83 394.047 107.563C396.741 114.225 398.087 123.226 398.087 134.566L398.087 209.41L359.815 209.41L359.815 141.795C359.815 136.055 359.354 131.554 358.433 128.294C357.511 125.033 355.987 122.73 353.861 121.383C351.735 120.037 348.829 119.399 345.144 119.47C342.379 119.47 339.155 120.108 335.469 121.383C331.855 122.659 328.701 124.573 326.007 127.124L326.007 209.41H287.735ZM396.599 127.975L390.22 104.373C392.063 102.672 394.969 100.617 398.938 98.2073C402.907 95.7975 407.655 93.7067 413.184 91.9348C418.783 90.0921 424.878 89.2061 431.469 89.277C439.407 89.2061 446.211 90.5528 451.881 93.3169C457.551 96.081 461.91 100.794 464.958 107.456C468.005 114.119 469.529 123.226 469.529 134.779L469.529 209.41H431.044L431.044 141.583C431.044 135.842 430.583 131.377 429.662 128.187C428.741 124.927 427.181 122.659 424.984 121.383C422.858 120.037 419.917 119.399 416.16 119.47C412.12 119.47 408.329 120.427 404.785 122.34C401.241 124.254 398.512 126.132 396.599 127.975ZM526.445 211.111C518.648 211.111 511.844 209.516 506.033 206.327C500.292 203.067 495.827 198.602 492.637 192.932C489.519 187.191 487.959 180.635 487.959 173.264C487.959 166.318 489.838 160.294 493.594 155.191C497.421 150.017 502.631 146.048 509.222 143.284C513.971 141.228 519.144 139.705 524.744 138.712C530.343 137.649 535.942 136.94 541.541 136.586C547.211 136.232 552.527 136.055 557.488 136.055L563.016 142.859L557.488 154.553C555.007 154.624 552.42 154.836 549.727 155.191C547.105 155.474 544.624 155.9 542.285 156.467C539.946 156.963 538.068 157.53 536.651 158.168C534.453 159.089 532.363 160.471 530.378 162.314C528.465 164.086 527.508 167.098 527.508 171.35C527.508 176.949 529.032 181.025 532.079 183.576C535.198 186.057 538.706 187.297 542.604 187.297C544.659 187.297 546.679 187.049 548.664 186.553C550.719 186.057 552.527 185.454 554.086 184.746C555.645 183.966 556.779 183.186 557.488 182.407L563.654 190.274L559.401 199.417C556.141 202.252 551.818 204.91 546.431 207.39C541.116 209.871 534.453 211.111 526.445 211.111ZM595.76 209.41H559.401L559.401 191.762H557.488L557.488 129.038C557.488 123.793 556.035 120.356 553.129 118.726C550.294 117.095 546.219 116.28 540.903 116.28C536.367 116.28 531.618 116.635 526.657 117.344C521.767 118.052 517.018 119.045 512.411 120.32C507.804 121.525 503.765 122.943 500.292 124.573L492.425 102.035C495.33 100.263 499.512 98.3845 504.969 96.4C510.498 94.3446 516.699 92.6081 523.574 91.1906C530.449 89.7731 537.43 89.0644 544.518 89.0644C556.921 89.0644 566.879 90.5173 574.392 93.4232C581.904 96.3291 587.326 101.042 590.657 107.563C594.059 114.083 595.76 122.801 595.76 133.716L595.76 209.41ZM537.076 73.5428L519.534 57.3833C522.865 54.1939 526.551 50.154 530.591 45.2636C534.702 40.3024 538.777 35.0222 542.817 29.4231C546.857 23.7531 550.542 18.2603 553.873 12.9446L578.963 32.5061C577.616 35.6246 575.632 38.9203 573.009 42.3932C570.387 45.7952 567.375 49.1618 563.973 52.4929C560.642 55.7531 557.24 58.8362 553.767 61.7421C550.365 64.5771 547.176 67.0223 544.199 69.0776C541.293 71.133 538.919 72.6214 537.076 73.5428ZM625.142 209.41L625.142 36.7586H663.628L663.628 81.1973L661.501 107.775L660.438 104.586C662.919 102.318 666.144 100.015 670.113 97.6757C674.082 95.3368 678.511 93.3878 683.402 91.8285C688.292 90.1984 693.395 89.3479 698.711 89.277C711.61 88.9226 721.107 92.5373 727.202 100.121C733.298 107.634 736.345 119.328 736.345 135.204L736.345 209.41H697.648L697.648 141.795C697.648 132.723 696.407 126.699 693.927 123.722C691.446 120.746 687.654 119.328 682.551 119.47C680.141 119.47 677.094 120.037 673.408 121.171C669.794 122.234 666.533 124.218 663.628 127.124L663.628 209.41L625.142 209.41ZM793.264 211.111C785.468 211.111 778.664 209.516 772.852 206.327C767.111 203.067 762.646 198.602 759.457 192.932C756.338 187.191 754.779 180.635 754.779 173.264C754.779 166.318 756.657 160.294 760.413 155.191C764.241 150.017 769.45 146.048 776.041 143.284C780.79 141.228 785.964 139.705 791.563 138.712C797.162 137.649 802.761 136.94 808.36 136.586C814.03 136.232 819.346 136.055 824.307 136.055L829.836 142.859L824.307 154.553C821.827 154.624 819.24 154.836 816.546 155.191C813.924 155.474 811.443 155.9 809.105 156.467C806.766 156.963 804.888 157.53 803.47 158.168C801.273 159.089 799.182 160.471 797.198 162.314C795.284 164.086 794.327 167.098 794.327 171.35C794.327 176.949 795.851 181.025 798.899 183.576C802.017 186.057 805.525 187.297 809.424 187.297C811.479 187.297 813.499 187.049 815.483 186.553C817.539 186.057 819.346 185.454 820.905 184.746C822.465 183.966 823.599 183.186 824.307 182.407L830.473 190.274L826.221 199.417C822.961 202.252 818.637 204.91 813.251 207.39C807.935 209.871 801.273 211.111 793.264 211.111ZM862.58 209.41H826.221L826.221 191.762H824.307L824.307 129.038C824.307 123.793 822.854 120.356 819.948 118.726C817.113 117.095 813.038 116.28 807.723 116.28C803.187 116.28 798.438 116.635 793.477 117.344C788.586 118.052 783.838 119.045 779.231 120.32C774.624 121.525 770.584 122.943 767.111 124.573L759.244 102.035C762.15 100.263 766.332 98.3845 771.789 96.4C777.317 94.3446 783.519 92.6081 790.394 91.1906C797.268 89.7731 804.25 89.0644 811.337 89.0644C823.74 89.0644 833.698 90.5173 841.211 93.4232C848.724 96.3291 854.146 101.042 857.477 107.563C860.879 114.083 862.58 122.801 862.58 133.716L862.58 209.41ZM930.447 211.111C921.942 211.111 915.138 209.694 910.035 206.859C905.003 204.024 901.353 199.771 899.085 194.101C896.888 188.36 895.789 181.202 895.789 172.626L895.789 116.28H882.181L882.181 95.8684C887.426 94.38 891.749 92.8562 895.151 91.297C898.553 89.6668 901.034 87.2216 902.593 83.9614C903.373 82.3313 904.223 80.3822 905.145 78.1142C906.066 75.8462 907.023 73.4719 908.015 70.9913C909.007 68.5106 909.964 66.1718 910.886 63.9746L934.274 63.9746L934.274 90.978L964.892 90.978L964.892 116.28L934.274 116.28L934.274 158.38C934.274 165.751 934.664 171.138 935.444 174.54C936.294 177.942 937.712 180.103 939.696 181.025C941.681 181.946 944.409 182.407 947.882 182.407C949.654 182.407 951.674 182.194 953.942 181.769C956.21 181.273 958.372 180.67 960.427 179.962C962.483 179.253 964.113 178.509 965.318 177.729L969.783 198.992C967.94 200.834 964.999 202.712 960.959 204.626C956.99 206.469 952.347 208.028 947.032 209.304C941.716 210.509 936.188 211.111 930.447 211.111Z" fill="black"/>
<path d="M17.01 209.41H-0.489962L-0.489959 226.91H17.01L17.01 209.41ZM17.01 51.4298L17.01 33.9298H-0.48999L-0.489987 51.4298H17.01ZM54.2194 50.5793L52.8642 33.1318L52.851 33.1328L54.2194 50.5793ZM109.608 55.1507L103.131 71.4078L103.186 71.4297L103.241 71.4512L109.608 55.1507ZM130.445 72.6923L115.382 81.5994L115.41 81.6478L115.439 81.6959L130.445 72.6923ZM121.09 148.706L109.306 135.768L109.285 135.787L109.265 135.806L121.09 148.706ZM63.0433 163.802L63.5431 146.309L63.0433 163.802ZM56.7709 163.696L56.7709 146.196H39.2709L39.2709 163.696H56.7709ZM56.7709 209.41L56.7709 226.91H74.2709L74.2709 209.41H56.7709ZM56.7709 134.566H39.2709L39.2709 150.502L55.1374 151.99L56.7709 134.566ZM64.1065 135.204L62.6922 152.647L62.9268 152.666L63.1619 152.679L64.1065 135.204ZM86.2195 132.546L93.9312 148.255L93.9886 148.227L94.0457 148.199L86.2195 132.546ZM95.575 122.978L80.0729 114.858L80.0484 114.905L80.0241 114.952L95.575 122.978ZM92.4919 84.7056L78.9884 95.8369L79.0702 95.9361L79.1534 96.0341L92.4919 84.7056ZM72.0799 77.37L72.0799 94.87H72.4137L72.7473 94.8573L72.0799 77.37ZM64.3191 77.6889L65.2153 95.166L65.4385 95.1545L65.6613 95.1374L64.3191 77.6889ZM56.7709 78.4331L54.0693 61.1429L39.2709 63.4552L39.2709 78.4331H56.7709ZM34.51 209.41L34.51 51.4298L-0.489987 51.4298L-0.489962 209.41H34.51ZM17.01 68.9298H32.5316L32.5316 33.9298L17.01 33.9298L17.01 68.9298ZM32.5316 68.9298C40.2189 68.9298 47.9046 68.6283 55.5877 68.0257L52.851 33.1328C46.0756 33.6642 39.3028 33.9298 32.5316 33.9298L32.5316 68.9298ZM55.5745 68.0267C62.392 67.4972 69.5223 67.2288 76.9703 67.2288L76.9703 32.2288C68.684 32.2288 60.647 32.5273 52.8642 33.1318L55.5745 68.0267ZM76.9703 67.2288C88.07 67.2288 96.6346 68.8195 103.131 71.4078L116.086 38.8936C104.438 34.2527 91.2438 32.2288 76.9703 32.2288L76.9703 67.2288ZM103.241 71.4512C108.782 73.6156 112.614 76.9185 115.382 81.5994L145.509 63.7851C138.638 52.1648 128.579 43.7733 115.976 38.8502L103.241 71.4512ZM115.439 81.6959C118.133 86.1858 120.281 93.6151 120.281 105.437H155.281C155.281 89.9001 152.538 75.5 145.452 63.6886L115.439 81.6959ZM120.281 105.437C120.281 120.509 115.939 129.726 109.306 135.768L132.874 161.643C148.496 147.415 155.281 127.786 155.281 105.437H120.281ZM109.265 135.806C102.537 141.972 91.3699 146.408 72.9304 146.408L72.9304 181.408C96.5907 181.408 117.529 175.709 132.915 161.606L109.265 135.806ZM72.9304 146.408C68.8937 146.408 65.785 146.373 63.5431 146.309L62.5436 181.295C65.2629 181.373 68.7456 181.408 72.9304 181.408L72.9304 146.408ZM63.5431 146.309C60.9639 146.236 58.6949 146.196 56.7709 146.196L56.7709 181.196C58.2489 181.196 60.1615 181.227 62.5436 181.295L63.5431 146.309ZM39.2709 163.696L39.2709 209.41H74.2709L74.2709 163.696H39.2709ZM56.7709 191.91H17.01L17.01 226.91H56.7709L56.7709 191.91ZM55.1374 151.99C57.4886 152.21 60.0076 152.429 62.6922 152.647L65.5208 117.761C62.9606 117.554 60.5892 117.347 58.4044 117.143L55.1374 151.99ZM63.1619 152.679C66.163 152.841 69.4267 152.917 72.9304 152.917L72.9304 117.917C69.9136 117.917 67.2947 117.851 65.051 117.73L63.1619 152.679ZM72.9304 152.917C80.1831 152.917 87.3121 151.505 93.9312 148.255L78.5077 116.837C77.3306 117.415 75.6002 117.917 72.9304 117.917L72.9304 152.917ZM94.0457 148.199C101.71 144.367 107.36 138.3 111.126 131.004L80.0241 114.952C79.2536 116.445 78.6673 116.757 78.3932 116.894L94.0457 148.199ZM111.077 131.098C115.195 123.237 116.583 114.21 116.583 105.224H81.5833C81.5833 110.979 80.6331 113.788 80.0729 114.858L111.077 131.098ZM116.583 105.224C116.583 93.6505 113.537 82.4511 105.83 73.377L79.1534 96.0341C80.2352 97.3078 81.5833 99.7873 81.5833 105.224H116.583ZM105.995 73.5743C97.0291 62.6972 84.0079 59.402 71.4124 59.8827L72.7473 94.8573C75.7598 94.7423 77.4431 95.1249 78.2279 95.4069C78.8637 95.6354 78.9575 95.7994 78.9884 95.8369L105.995 73.5743ZM72.0799 59.87C69.1617 59.87 66.1228 59.9985 62.9769 60.2405L65.6613 95.1374C68.0436 94.9541 70.1786 94.87 72.0799 94.87L72.0799 59.87ZM63.4228 60.2119C60.1724 60.3786 57.042 60.6784 54.0693 61.1429L59.4725 95.7233C61.0358 95.4791 62.9375 95.2828 65.2153 95.166L63.4228 60.2119ZM39.2709 78.4331L39.2709 134.566H74.2709L74.2709 78.4331L39.2709 78.4331ZM177.17 206.114L170.007 222.081L170.097 222.122L170.187 222.161L177.17 206.114ZM158.884 192.188L172.662 181.398L158.884 192.188ZM148.891 171.988L131.989 176.526L131.995 176.546L132 176.566L148.891 171.988ZM145.914 147.749L128.416 147.454L128.415 147.529L128.415 147.603L145.914 147.749ZM154.1 115.855L169.063 124.931L154.1 115.855ZM175.681 96.1873L168.002 80.4624L175.681 96.1873ZM242.02 98.2073L232.258 112.731L232.286 112.75L232.313 112.768L242.02 98.2073ZM260.731 121.277L277.021 114.882L277.021 114.882L260.731 121.277ZM266.047 152.639L248.55 152.311L248.549 152.377L248.548 152.444L266.047 152.639ZM257.967 184.746L242.972 175.724L242.961 175.742L242.95 175.76L257.967 184.746ZM236.492 204.413L244.172 220.138L236.492 204.413ZM221.608 176.241L206.156 168.026L206.137 168.062L206.118 168.098L221.608 176.241ZM224.266 133.503L207.199 137.372L207.205 137.396L207.211 137.421L224.266 133.503ZM218.206 120.852L205.127 132.478L205.192 132.551L205.257 132.624L218.206 120.852ZM190.353 124.466L174.982 116.1L174.941 116.176L174.901 116.251L190.353 124.466ZM187.695 166.885L170.617 170.705L170.641 170.812L170.666 170.918L187.695 166.885ZM193.967 179.749L206.903 167.963L193.967 179.749ZM205.024 193.611C195.807 193.611 189.039 192.194 184.153 190.068L170.187 222.161C180.61 226.697 192.411 228.611 205.024 228.611L205.024 193.611ZM184.333 190.147C179.045 187.776 175.327 184.801 172.662 181.398L145.106 202.977C151.655 211.34 160.127 217.649 170.007 222.081L184.333 190.147ZM172.662 181.398C169.571 177.451 167.257 172.855 165.781 167.41L132 176.566C134.635 186.289 138.983 195.159 145.106 202.977L172.662 181.398ZM165.792 167.45C164.176 161.43 163.355 154.934 163.413 147.895L128.415 147.603C128.331 157.574 129.495 167.237 131.989 176.526L165.792 167.45ZM163.411 148.044C163.585 137.768 165.779 130.345 169.063 124.931L139.137 106.779C131.932 118.659 128.668 132.498 128.416 147.454L163.411 148.044ZM169.063 124.931C172.556 119.171 177.213 114.915 183.361 111.912L168.002 80.4624C155.864 86.3903 146.133 95.2453 139.137 106.779L169.063 124.931ZM183.361 111.912C189.751 108.792 197.542 106.99 207.15 106.99L207.15 71.9896C193.086 71.9896 179.897 74.6529 168.002 80.4624L183.361 111.912ZM207.15 106.99C219.618 106.99 227.442 109.494 232.258 112.731L251.783 83.6831C239.306 75.2969 223.883 71.9896 207.15 71.9896L207.15 106.99ZM232.313 112.768C238.115 116.636 242.02 121.503 244.442 127.672L277.021 114.882C271.93 101.915 263.361 91.4022 251.728 83.6464L232.313 112.768ZM244.442 127.672C247.275 134.889 248.724 143.031 248.55 152.311L283.544 152.967C283.795 139.567 281.701 126.801 277.021 114.882L244.442 127.672ZM248.548 152.444C248.433 162.779 246.261 170.258 242.972 175.724L272.963 193.767C280.164 181.798 283.378 167.872 283.546 152.835L248.548 152.444ZM242.95 175.76C239.536 181.467 234.94 185.696 228.813 188.689L244.172 220.138C256.33 214.201 266.051 205.318 272.984 193.731L242.95 175.76ZM228.813 188.689C222.422 191.809 214.632 193.611 205.024 193.611L205.024 228.611C219.088 228.611 232.276 225.948 244.172 220.138L228.813 188.689ZM205.874 202.033C218.291 202.033 230.464 197.006 237.099 184.383L206.118 168.098C206.129 168.078 206.243 167.872 206.51 167.601C206.782 167.324 207.082 167.113 207.336 166.978C207.834 166.716 207.595 167.033 205.874 167.033L205.874 202.033ZM237.06 184.456C242.058 175.056 243.574 163.165 243.574 150.938H208.574C208.574 161.25 207.113 166.227 206.156 168.026L237.06 184.456ZM243.574 150.938C243.574 143.476 242.871 136.325 241.322 129.585L207.211 137.421C208.072 141.17 208.574 145.643 208.574 150.938H243.574ZM241.333 129.634C239.652 122.216 236.533 114.996 231.155 109.08L205.257 132.624C205.55 132.945 206.471 134.159 207.199 137.372L241.333 129.634ZM231.286 109.225C224.578 101.679 215.576 98.5678 206.512 98.5678L206.512 133.568C207.118 133.568 207.024 133.663 206.531 133.461C206.29 133.362 206.017 133.218 205.745 133.024C205.473 132.832 205.267 132.636 205.127 132.478L231.286 109.225ZM206.512 98.5678C193.993 98.5678 181.796 103.582 174.982 116.1L205.723 132.833C205.735 132.811 205.65 132.969 205.425 133.192C205.195 133.421 204.946 133.593 204.749 133.695C204.362 133.896 204.713 133.568 206.512 133.568L206.512 98.5678ZM174.901 116.251C169.946 125.571 168.387 137.137 168.387 149.025H203.387C203.387 139.367 204.806 134.56 205.805 132.681L174.901 116.251ZM168.387 149.025C168.387 156.606 169.086 163.863 170.617 170.705L204.773 163.065C203.893 159.134 203.387 154.485 203.387 149.025H168.387ZM170.666 170.918C172.437 178.396 175.637 185.615 181.031 191.535L206.903 167.963C206.485 167.504 205.504 166.147 204.724 162.852L170.666 170.918ZM181.031 191.535C187.813 198.979 196.816 202.033 205.874 202.033L205.874 167.033C205.206 167.033 205.226 166.929 205.648 167.099C205.853 167.181 206.095 167.306 206.342 167.478C206.588 167.649 206.776 167.823 206.903 167.963L181.031 191.535ZM287.735 209.41H270.235L270.235 226.91H287.735L287.735 209.41ZM287.735 90.978L287.735 73.478H270.235L270.235 90.978H287.735ZM322.818 90.978L340.279 89.8139L339.19 73.478H322.818L322.818 90.978ZM323.668 103.736L306.207 104.9L308.462 138.725L334.731 117.296L323.668 103.736ZM333.768 97.1441L325.519 81.7104L325.463 81.7403L325.407 81.7707L333.768 97.1441ZM362.366 89.277L362.606 106.775L362.722 106.774L362.839 106.771L362.366 89.277ZM382.14 93.2106L390.376 77.7694L382.14 93.2106ZM394.047 107.563L377.74 113.914L377.781 114.018L377.823 114.122L394.047 107.563ZM398.087 209.41L398.087 226.91H415.587L415.587 209.41H398.087ZM359.815 209.41H342.315L342.315 226.91H359.815L359.815 209.41ZM358.433 128.294L341.592 133.053L341.592 133.053L358.433 128.294ZM353.861 121.383L363.225 106.599L363.225 106.599L353.861 121.383ZM345.144 119.47L345.144 136.97H345.312L345.48 136.967L345.144 119.47ZM335.469 121.383L329.745 104.846L329.695 104.863L329.645 104.881L335.469 121.383ZM326.007 127.124L313.972 114.42L308.507 119.597L308.507 127.124L326.007 127.124ZM326.007 209.41L326.007 226.91H343.507L343.507 209.41H326.007ZM396.599 127.975L379.705 132.541L387.425 161.104L408.738 140.58L396.599 127.975ZM390.22 104.373L378.35 91.5143L370.56 98.7051L373.326 108.939L390.22 104.373ZM398.938 98.2073L408.02 113.166L408.02 113.166L398.938 98.2073ZM413.184 91.9348L418.525 108.6L418.59 108.579L418.654 108.558L413.184 91.9348ZM431.469 89.277L431.281 106.776L431.453 106.778L431.626 106.776L431.469 89.277ZM451.881 93.3169L444.213 109.047L444.213 109.047L451.881 93.3169ZM464.958 107.456L449.044 114.736L449.044 114.736L464.958 107.456ZM469.529 209.41L469.529 226.91H487.029L487.029 209.41H469.529ZM431.044 209.41H413.544L413.544 226.91H431.044L431.044 209.41ZM429.662 128.187L412.822 132.947L412.835 132.996L412.85 133.044L429.662 128.187ZM424.984 121.383L415.621 136.168L415.906 136.348L416.197 136.517L424.984 121.383ZM416.16 119.47L416.16 136.97H416.325L416.49 136.967L416.16 119.47ZM404.785 122.34L396.47 106.942L396.47 106.942L404.785 122.34ZM305.235 209.41L305.235 90.978H270.235L270.235 209.41H305.235ZM287.735 108.478L322.818 108.478L322.818 73.478L287.735 73.478L287.735 108.478ZM305.357 92.1421L306.207 104.9L341.13 102.571L340.279 89.8139L305.357 92.1421ZM334.731 117.296C336.362 115.964 338.758 114.351 342.129 112.518L325.407 81.7707C320.698 84.3316 316.361 87.1123 312.606 90.1754L334.731 117.296ZM342.017 112.578C345.031 110.967 348.462 109.545 352.365 108.358L342.174 74.8741C336.296 76.6631 330.727 78.9267 325.519 81.7104L342.017 112.578ZM352.365 108.358C355.661 107.355 359.058 106.824 362.606 106.775L362.126 71.7787C355.327 71.8718 348.659 72.9005 342.174 74.8741L352.365 108.358ZM362.839 106.771C368.578 106.616 371.963 107.616 373.905 108.652L390.376 77.7694C381.686 73.1351 371.889 71.5133 361.893 71.7834L362.839 106.771ZM373.905 108.652C374.827 109.143 376.319 110.264 377.74 113.914L410.354 101.212C406.531 91.3948 400.085 82.9478 390.376 77.7694L373.905 108.652ZM377.823 114.122C379.329 117.847 380.587 124.322 380.587 134.566L415.587 134.566C415.587 122.13 414.152 110.603 410.272 101.004L377.823 114.122ZM380.587 134.566L380.587 209.41L415.587 209.41L415.587 134.566L380.587 134.566ZM398.087 191.91L359.815 191.91L359.815 226.91L398.087 226.91L398.087 191.91ZM377.315 209.41L377.315 141.795H342.315L342.315 209.41H377.315ZM377.315 141.795C377.315 135.395 376.831 129.048 375.273 123.534L341.592 133.053C341.877 134.06 342.315 136.714 342.315 141.795H377.315ZM375.273 123.534C373.59 117.58 370.095 110.95 363.225 106.599L344.498 136.168C343.279 135.396 342.47 134.482 342.003 133.776C341.573 133.125 341.516 132.782 341.592 133.053L375.273 123.534ZM363.225 106.599C357.146 102.749 350.414 101.865 344.807 101.973L345.48 136.967C346.261 136.952 346.498 137.024 346.335 136.988C346.151 136.948 345.438 136.763 344.498 136.168L363.225 106.599ZM345.144 101.97C339.811 101.97 334.576 103.174 329.745 104.846L341.194 137.921C343.733 137.042 344.948 136.97 345.144 136.97L345.144 101.97ZM329.645 104.881C323.795 106.946 318.506 110.125 313.972 114.42L338.043 139.828C338.895 139.021 339.914 138.373 341.293 137.886L329.645 104.881ZM308.507 127.124L308.507 209.41H343.507L343.507 127.124L308.507 127.124ZM326.007 191.91H287.735L287.735 226.91H326.007L326.007 191.91ZM413.493 123.409L407.114 99.8075L373.326 108.939L379.705 132.541L413.493 123.409ZM402.09 117.232C402.637 116.727 404.359 115.389 408.02 113.166L389.856 83.2485C385.579 85.8451 381.488 88.6175 378.35 91.5143L402.09 117.232ZM408.02 113.166C410.564 111.622 413.996 110.051 418.525 108.6L407.842 75.2699C401.315 77.3619 395.25 79.9735 389.856 83.2485L408.02 113.166ZM418.654 108.558C422.226 107.382 426.386 106.723 431.281 106.776L431.657 71.778C423.37 71.6889 415.34 72.8019 407.713 75.312L418.654 108.558ZM431.626 106.776C437.536 106.724 441.526 107.737 444.213 109.047L459.55 77.5866C450.896 73.368 441.278 71.6887 431.313 71.7777L431.626 106.776ZM444.213 109.047C445.665 109.755 447.397 111.135 449.044 114.736L480.872 100.177C476.424 90.453 469.438 82.4071 459.55 77.5866L444.213 109.047ZM449.044 114.736C450.617 118.174 452.029 124.445 452.029 134.779H487.029C487.029 122.007 485.394 110.063 480.872 100.177L449.044 114.736ZM452.029 134.779L452.029 209.41H487.029L487.029 134.779H452.029ZM469.529 191.91H431.044L431.044 226.91H469.529L469.529 191.91ZM448.544 209.41L448.544 141.583H413.544L413.544 209.41H448.544ZM448.544 141.583C448.544 135.208 448.066 128.84 446.475 123.33L412.85 133.044C413.101 133.914 413.544 136.475 413.544 141.583H448.544ZM446.502 123.428C444.769 117.294 441.066 110.485 433.772 106.25L416.197 136.517C414.872 135.748 413.945 134.776 413.381 133.955C412.861 133.199 412.765 132.747 412.822 132.947L446.502 123.428ZM434.348 106.599C428.226 102.722 421.428 101.867 415.83 101.973L416.49 136.967C417.331 136.951 417.61 137.027 417.475 136.997C417.322 136.964 416.594 136.784 415.621 136.168L434.348 106.599ZM416.16 101.97C409.227 101.97 402.576 103.644 396.47 106.942L413.1 137.739C414.081 137.209 415.014 136.97 416.16 136.97L416.16 101.97ZM396.47 106.942C392.17 109.264 387.942 112.016 384.46 115.369L408.738 140.58C409.083 140.248 410.312 139.244 413.1 137.739L396.47 106.942ZM506.033 206.327L497.391 221.544L497.502 221.607L497.613 221.669L506.033 206.327ZM492.637 192.932L477.26 201.285L477.321 201.399L477.385 201.511L492.637 192.932ZM493.594 155.191L479.525 144.784L479.513 144.8L479.501 144.816L493.594 155.191ZM509.222 143.284L515.99 159.422L516.082 159.384L516.173 159.344L509.222 143.284ZM524.744 138.712L527.797 155.944L527.903 155.925L528.008 155.905L524.744 138.712ZM541.541 136.586L540.449 119.12L540.436 119.121L541.541 136.586ZM557.488 136.055L571.07 125.019L565.817 118.555H557.488L557.488 136.055ZM563.016 142.859L578.837 150.338L583.547 140.375L576.598 131.823L563.016 142.859ZM557.488 154.553L557.988 172.046L568.72 171.739L573.309 162.032L557.488 154.553ZM549.727 155.191L551.608 172.589L551.809 172.568L552.01 172.541L549.727 155.191ZM542.285 156.467L545.916 173.586L546.163 173.533L546.408 173.474L542.285 156.467ZM536.651 158.168L543.418 174.306L543.626 174.219L543.832 174.126L536.651 158.168ZM530.378 162.314L542.268 175.155L542.277 175.146L542.286 175.138L530.378 162.314ZM532.079 183.576L520.845 196.994L521.013 197.135L521.185 197.272L532.079 183.576ZM548.664 186.553L544.558 169.542L544.489 169.558L544.42 169.575L548.664 186.553ZM554.086 184.746L561.327 200.677L561.622 200.543L561.912 200.398L554.086 184.746ZM557.488 182.407L571.261 171.611L558.478 155.302L544.539 170.635L557.488 182.407ZM563.654 190.274L579.522 197.654L584.047 187.924L577.427 179.478L563.654 190.274ZM559.401 199.417L570.885 212.622L573.697 210.177L575.269 206.797L559.401 199.417ZM546.431 207.39L539.111 191.495L539.071 191.513L539.031 191.532L546.431 207.39ZM595.76 209.41L595.76 226.91H613.26L613.26 209.41H595.76ZM559.401 209.41H541.901L541.901 226.91H559.401L559.401 209.41ZM559.401 191.762H576.901L576.901 174.262H559.401L559.401 191.762ZM557.488 191.762H539.988L539.988 209.262H557.488L557.488 191.762ZM553.129 118.726L544.406 133.896L544.486 133.943L544.567 133.988L553.129 118.726ZM526.657 117.344L524.182 100.019L524.165 100.022L524.147 100.024L526.657 117.344ZM512.411 120.32L516.839 137.251L516.961 137.219L517.082 137.186L512.411 120.32ZM500.292 124.573L483.769 130.34L490.164 148.659L507.728 140.414L500.292 124.573ZM492.425 102.035L483.314 87.0931L471.243 94.4535L475.902 107.802L492.425 102.035ZM504.969 96.3999L510.95 112.846L511.009 112.825L511.068 112.803L504.969 96.3999ZM523.574 91.1906L520.04 74.0512L520.04 74.0512L523.574 91.1906ZM590.657 107.563L575.073 115.524L575.107 115.591L575.142 115.658L590.657 107.563ZM537.076 73.5428L525.219 86.4138L534.101 94.5958L544.902 89.1953L537.076 73.5428ZM519.534 57.3833L507.432 44.7429L493.973 57.6293L507.677 70.2543L519.534 57.3833ZM530.591 45.2636L517.115 34.0983L517.107 34.1083L517.099 34.1182L530.591 45.2636ZM542.817 29.4231L557.008 39.6626L557.039 39.6203L557.069 39.5779L542.817 29.4231ZM553.873 12.9446L564.633 -0.85642L549.341 -12.7791L539.044 3.65188L553.873 12.9446ZM578.963 32.5061L595.029 39.4438L600.392 27.0235L589.723 18.7051L578.963 32.5061ZM573.009 42.3932L586.87 53.0771L586.923 53.0082L586.975 52.9387L573.009 42.3932ZM563.973 52.4929L576.214 64.9996L576.216 64.9968L563.973 52.4929ZM553.767 61.7421L564.97 75.186L564.984 75.1747L564.997 75.1635L553.767 61.7421ZM544.199 69.0776L534.255 54.677L534.174 54.7332L534.093 54.7904L544.199 69.0776ZM526.445 193.611C521.072 193.611 517.263 192.528 514.452 190.985L497.613 221.669C506.426 226.505 516.225 228.611 526.445 228.611L526.445 193.611ZM514.675 191.11C511.656 189.396 509.496 187.207 507.89 184.352L477.385 201.511C482.158 209.997 488.927 216.738 497.391 221.544L514.675 191.11ZM508.015 184.578C506.46 181.716 505.459 178.097 505.459 173.264H470.46C470.46 183.173 472.578 192.666 477.26 201.285L508.015 184.578ZM505.459 173.264C505.459 169.673 506.358 167.371 507.687 165.565L479.501 144.816C473.317 153.217 470.46 162.964 470.46 173.264H505.459ZM507.663 165.598C509.415 163.23 511.974 161.106 515.99 159.422L502.454 127.145C493.288 130.989 485.428 136.804 479.525 144.784L507.663 165.598ZM516.173 159.344C519.557 157.88 523.408 156.722 527.797 155.944L521.69 121.481C514.881 122.687 508.385 124.577 502.271 127.224L516.173 159.344ZM528.008 155.905C532.905 154.975 537.783 154.359 542.646 154.051L540.436 119.121C534.1 119.522 527.78 120.323 521.479 121.52L528.008 155.905ZM542.633 154.052C547.99 153.717 552.938 153.555 557.488 153.555L557.488 118.555C552.115 118.555 546.432 118.746 540.449 119.12L542.633 154.052ZM543.906 147.09L549.434 153.894L576.598 131.823L571.07 125.019L543.906 147.09ZM547.195 135.379L541.667 147.074L573.309 162.032L578.837 150.338L547.195 135.379ZM556.988 137.06C553.858 137.149 550.674 137.415 547.444 137.84L552.01 172.541C554.166 172.257 556.156 172.098 557.988 172.046L556.988 137.06ZM547.846 137.792C544.54 138.15 541.305 138.697 538.162 139.459L546.408 173.474C547.943 173.102 549.67 172.799 551.608 172.589L547.846 137.792ZM538.654 139.347C535.671 139.98 532.461 140.863 529.469 142.209L543.832 174.126C543.7 174.186 543.787 174.136 544.18 174.017C544.561 173.902 545.128 173.753 545.916 173.586L538.654 139.347ZM529.883 142.029C525.551 143.846 521.757 146.438 518.47 149.49L542.286 175.138C542.968 174.504 543.356 174.332 543.418 174.306L529.883 142.029ZM518.489 149.473C511.284 156.143 510.008 165.192 510.008 171.35H545.008C545.008 170.443 545.121 170.517 544.904 171.2C544.659 171.971 543.959 173.588 542.268 175.155L518.489 149.473ZM510.008 171.35C510.008 179.923 512.399 189.923 520.845 196.994L543.313 170.158C543.776 170.545 544.172 170.987 544.484 171.44C544.792 171.886 544.96 172.258 545.042 172.477C545.19 172.872 545.008 172.629 545.008 171.35H510.008ZM521.185 197.272C527.326 202.156 534.655 204.797 542.604 204.797L542.604 169.797C542.561 169.797 542.579 169.794 542.644 169.805C542.71 169.816 542.794 169.836 542.882 169.868C542.971 169.899 543.032 169.93 543.059 169.945C543.085 169.96 543.056 169.946 542.973 169.881L521.185 197.272ZM542.604 204.797C546.083 204.797 549.529 204.375 552.908 203.53L544.42 169.575C543.83 169.723 543.236 169.797 542.604 169.797L542.604 204.797ZM552.77 203.564C555.663 202.866 558.558 201.936 561.327 200.677L546.844 168.814C546.496 168.973 545.776 169.248 544.558 169.542L552.77 203.564ZM561.912 200.398C564.307 199.201 567.631 197.265 570.437 194.179L544.539 170.635C545.318 169.778 545.966 169.311 546.192 169.155C546.439 168.985 546.497 168.975 546.26 169.093L561.912 200.398ZM543.714 193.202L549.881 201.069L577.427 179.478L571.261 171.611L543.714 193.202ZM547.786 182.894L543.534 192.036L575.269 206.797L579.522 197.654L547.786 182.894ZM547.918 186.211C546.279 187.637 543.508 189.47 539.111 191.495L553.752 223.286C560.128 220.349 566.003 216.867 570.885 212.622L547.918 186.211ZM539.031 191.532C536.717 192.612 532.778 193.611 526.445 193.611L526.445 228.611C536.129 228.611 545.515 227.13 553.832 223.248L539.031 191.532ZM595.76 191.91H559.401L559.401 226.91H595.76L595.76 191.91ZM576.901 209.41L576.901 191.762H541.901L541.901 209.41H576.901ZM559.401 174.262H557.488L557.488 209.262H559.401L559.401 174.262ZM574.988 191.762L574.988 129.038H539.988L539.988 191.762H574.988ZM574.988 129.038C574.988 121.355 572.832 109.713 561.691 103.463L544.567 133.988C543.507 133.393 542.551 132.609 541.769 131.699C541.001 130.806 540.541 129.959 540.279 129.34C539.804 128.217 539.988 127.875 539.988 129.038H574.988ZM561.852 103.555C555.192 99.7253 547.565 98.7804 540.903 98.7804L540.903 133.78C542.71 133.78 543.868 133.923 544.514 134.052C545.171 134.183 545.009 134.243 544.406 133.896L561.852 103.555ZM540.903 98.7804C535.458 98.7804 529.879 99.2056 524.182 100.019L529.132 134.668C533.358 134.064 537.276 133.78 540.903 133.78L540.903 98.7804ZM524.147 100.024C518.552 100.835 513.081 101.976 507.741 103.455L517.082 137.186C520.955 136.113 524.981 135.269 529.167 134.663L524.147 100.024ZM507.983 103.39C502.579 104.803 497.494 106.554 492.856 108.731L507.728 140.414C510.035 139.331 513.03 138.247 516.839 137.251L507.983 103.39ZM516.814 118.806L508.947 96.2673L475.902 107.802L483.769 130.34L516.814 118.806ZM501.535 116.976C502.997 116.084 505.935 114.67 510.95 112.846L498.989 79.9536C493.089 82.099 487.664 84.4409 483.314 87.0931L501.535 116.976ZM511.068 112.803C515.622 111.11 520.947 109.6 527.108 108.33L520.04 74.0512C512.452 75.6158 505.373 77.5794 498.871 79.997L511.068 112.803ZM527.108 108.33C532.809 107.155 538.606 106.564 544.518 106.564L544.518 71.5644C536.255 71.5644 528.089 72.3916 520.04 74.0512L527.108 108.33ZM544.518 106.564C555.803 106.564 563.364 107.921 568.078 109.745L580.705 77.1016C570.394 73.1135 558.039 71.5644 544.518 71.5644L544.518 106.564ZM568.078 109.745C572.012 111.266 573.901 113.231 575.073 115.524L606.241 99.6013C600.751 88.854 591.796 81.3918 580.705 77.1016L568.078 109.745ZM575.142 115.658C576.762 118.762 578.26 124.361 578.26 133.716H613.26C613.26 121.24 611.357 109.405 606.173 99.4679L575.142 115.658ZM578.26 133.716L578.26 209.41H613.26L613.26 133.716H578.26ZM548.933 60.6717L531.391 44.5122L507.677 70.2543L525.219 86.4138L548.933 60.6717ZM531.637 70.0237C535.603 66.226 539.757 61.6449 544.083 56.4091L517.099 34.1182C513.344 38.6632 510.128 42.1618 507.432 44.7429L531.637 70.0237ZM544.066 56.429C548.443 51.1467 552.756 45.5559 557.008 39.6626L528.625 19.1835C524.798 24.4885 520.96 29.458 517.115 34.0983L544.066 56.429ZM557.069 39.5779C561.288 33.6564 565.169 27.8757 568.702 22.2374L539.044 3.65188C535.915 8.64479 532.425 13.8498 528.564 19.2683L557.069 39.5779ZM543.113 26.7457L568.203 46.3072L589.723 18.7051L564.633 -0.85642L543.113 26.7457ZM562.897 25.5685C562.233 27.1051 561.047 29.1945 559.044 31.8477L586.975 52.9387C590.217 48.6461 592.999 44.1441 595.029 39.4438L562.897 25.5685ZM559.149 31.7093C557.073 34.4031 554.612 37.166 551.729 39.989L576.216 64.9968C580.137 61.1575 583.701 57.1873 586.87 53.0771L559.149 31.7093ZM551.732 39.9862C548.717 42.9378 545.651 45.7148 542.537 48.3207L564.997 75.1635C568.829 71.9576 572.567 68.5685 576.214 64.9996L551.732 39.9862ZM542.564 48.2982C539.481 50.8671 536.715 52.9788 534.255 54.677L554.142 83.4783C557.636 81.0657 561.249 78.2871 564.97 75.186L542.564 48.2982ZM534.093 54.7904C531.472 56.6446 529.931 57.5497 529.25 57.8903L544.902 89.1953C547.906 87.6931 551.114 85.6215 554.304 83.3649L534.093 54.7904ZM625.142 209.41H607.642L607.642 226.91H625.142L625.142 209.41ZM625.142 36.7586L625.142 19.2586L607.642 19.2586L607.642 36.7586L625.142 36.7586ZM663.628 36.7586L681.128 36.7586L681.128 19.2586H663.628L663.628 36.7586ZM663.628 81.1973L681.072 82.5928L681.128 81.8961L681.128 81.1973H663.628ZM661.501 107.775L644.899 113.309L678.946 109.171L661.501 107.775ZM660.438 104.586L648.63 91.6705L640.243 99.3388L643.836 110.12L660.438 104.586ZM670.113 97.6757L678.997 112.753L678.997 112.753L670.113 97.6757ZM683.402 91.8285L688.718 108.502L688.827 108.467L688.936 108.43L683.402 91.8285ZM698.711 89.277L698.944 106.775L699.068 106.774L699.191 106.77L698.711 89.277ZM727.202 100.121L713.562 111.084L713.587 111.115L713.613 111.147L727.202 100.121ZM736.345 209.41L736.345 226.91H753.845L753.845 209.41H736.345ZM697.648 209.41H680.148L680.148 226.91H697.648L697.648 209.41ZM693.927 123.722L707.371 112.519L707.371 112.519L693.927 123.722ZM682.551 119.47L682.551 136.97H682.794L683.037 136.963L682.551 119.47ZM673.408 121.171L678.346 137.96L678.451 137.929L678.555 137.897L673.408 121.171ZM663.628 127.124L651.253 114.75L646.128 119.876L646.128 127.124H663.628ZM663.628 209.41L663.628 226.91H681.128L681.128 209.41H663.628ZM642.642 209.41L642.642 36.7586L607.642 36.7586L607.642 209.41L642.642 209.41ZM625.142 54.2586H663.628L663.628 19.2586L625.142 19.2586L625.142 54.2586ZM646.128 36.7586L646.128 81.1973H681.128L681.128 36.7586L646.128 36.7586ZM646.183 79.8017L644.057 106.38L678.946 109.171L681.072 82.5928L646.183 79.8017ZM678.103 102.241L677.04 99.052L643.836 110.12L644.899 113.309L678.103 102.241ZM672.247 117.502C673.57 116.292 675.719 114.684 678.997 112.753L661.228 82.5988C656.568 85.345 652.268 88.3442 648.63 91.6705L672.247 117.502ZM678.997 112.753C681.721 111.148 684.933 109.708 688.718 108.502L678.086 75.1555C672.089 77.0674 666.443 79.5259 661.228 82.5988L678.997 112.753ZM688.936 108.43C692.063 107.388 695.374 106.823 698.944 106.775L698.477 71.7786C691.416 71.8727 684.521 73.0086 677.868 75.2266L688.936 108.43ZM699.191 106.77C708.556 106.513 711.948 109.076 713.562 111.084L740.843 89.1577C730.266 75.9987 714.664 71.3321 698.23 71.7836L699.191 106.77ZM713.613 111.147C716.003 114.092 718.845 120.963 718.845 135.204H753.845C753.845 117.693 750.593 101.175 740.792 89.0952L713.613 111.147ZM718.845 135.204L718.845 209.41H753.845L753.845 135.204H718.845ZM736.345 191.91H697.648L697.648 226.91H736.345L736.345 191.91ZM715.148 209.41L715.148 141.795H680.148L680.148 209.41H715.148ZM715.148 141.795C715.148 136.576 714.801 131.523 713.858 126.944C712.964 122.6 711.233 117.154 707.371 112.519L680.483 134.925C679.723 134.014 679.427 133.322 679.382 133.212C679.333 133.093 679.434 133.309 679.577 134.002C679.874 135.447 680.148 137.942 680.148 141.795H715.148ZM707.371 112.519C700.43 104.19 690.692 101.737 682.065 101.977L683.037 136.963C683.9 136.939 683.784 137.077 683.094 136.819C682.735 136.684 682.275 136.462 681.779 136.115C681.28 135.765 680.842 135.356 680.483 134.926L707.371 112.519ZM682.551 101.97C677.673 101.97 672.742 103.066 668.262 104.445L678.555 137.897C679.905 137.481 680.928 137.236 681.659 137.1C682.41 136.96 682.674 136.97 682.551 136.97L682.551 101.97ZM668.47 104.382C661.797 106.345 656.037 109.966 651.253 114.75L676.002 139.499C677.03 138.471 677.791 138.123 678.346 137.96L668.47 104.382ZM646.128 127.124L646.128 209.41H681.128L681.128 127.124H646.128ZM663.628 191.91L625.142 191.91L625.142 226.91L663.628 226.91L663.628 191.91ZM772.852 206.327L764.21 221.544L764.321 221.607L764.433 221.669L772.852 206.327ZM759.457 192.932L744.079 201.285L744.141 201.399L744.204 201.511L759.457 192.932ZM760.413 155.191L746.344 144.784L746.332 144.8L746.32 144.816L760.413 155.191ZM776.041 143.284L782.809 159.422L782.901 159.384L782.993 159.344L776.041 143.284ZM791.563 138.712L794.617 155.944L794.722 155.925L794.827 155.905L791.563 138.712ZM808.36 136.586L807.269 119.12L807.255 119.121L808.36 136.586ZM824.307 136.055L837.889 125.019L832.637 118.555L824.307 118.555L824.307 136.055ZM829.836 142.859L845.657 150.338L850.366 140.375L843.418 131.823L829.836 142.859ZM824.307 154.553L824.807 172.046L835.54 171.739L840.129 162.032L824.307 154.553ZM816.546 155.191L818.427 172.589L818.629 172.568L818.829 172.541L816.546 155.191ZM809.105 156.467L812.736 173.586L812.983 173.533L813.228 173.474L809.105 156.467ZM803.47 158.168L810.238 174.306L810.446 174.219L810.651 174.126L803.47 158.168ZM797.198 162.314L809.087 175.155L809.096 175.146L809.106 175.138L797.198 162.314ZM798.899 183.576L787.665 196.994L787.833 197.135L788.004 197.272L798.899 183.576ZM815.483 186.553L811.377 169.542L811.308 169.558L811.239 169.575L815.483 186.553ZM820.905 184.746L828.147 200.677L828.442 200.543L828.732 200.398L820.905 184.746ZM824.307 182.407L838.081 171.611L825.298 155.302L811.358 170.635L824.307 182.407ZM830.473 190.274L846.341 197.654L850.867 187.924L844.247 179.478L830.473 190.274ZM826.221 199.417L837.704 212.622L840.517 210.177L842.089 206.797L826.221 199.417ZM813.251 207.39L805.931 191.495L805.89 191.513L805.85 191.532L813.251 207.39ZM862.58 209.41L862.58 226.91H880.08L880.08 209.41H862.58ZM826.221 209.41H808.721L808.721 226.91H826.221L826.221 209.41ZM826.221 191.762H843.721L843.721 174.262H826.221L826.221 191.762ZM824.307 191.762H806.807L806.807 209.262H824.307L824.307 191.762ZM819.948 118.726L811.225 133.896L811.306 133.943L811.387 133.988L819.948 118.726ZM793.477 117.344L791.002 100.019L790.984 100.022L790.967 100.024L793.477 117.344ZM779.231 120.32L783.659 137.251L783.78 137.219L783.901 137.186L779.231 120.32ZM767.111 124.573L750.589 130.34L756.983 148.659L774.547 140.414L767.111 124.573ZM759.244 102.035L750.133 87.0931L738.062 94.4535L742.722 107.802L759.244 102.035ZM771.789 96.3999L777.769 112.846L777.829 112.825L777.887 112.803L771.789 96.3999ZM790.394 91.1906L786.86 74.0512L786.86 74.0512L790.394 91.1906ZM857.477 107.563L841.893 115.524L841.927 115.591L841.962 115.658L857.477 107.563ZM793.264 193.611C787.891 193.611 784.083 192.528 781.271 190.985L764.433 221.669C773.245 226.505 783.044 228.611 793.264 228.611L793.264 193.611ZM781.494 191.11C778.476 189.396 776.315 187.207 774.709 184.352L744.204 201.511C748.977 209.997 755.747 216.738 764.21 221.544L781.494 191.11ZM774.834 184.578C773.279 181.716 772.279 178.097 772.279 173.264H737.279C737.279 183.173 739.397 192.666 744.079 201.285L774.834 184.578ZM772.279 173.264C772.279 169.673 773.178 167.371 774.507 165.565L746.32 144.816C740.137 153.217 737.279 162.964 737.279 173.264H772.279ZM774.483 165.598C776.234 163.23 778.793 161.106 782.809 159.422L769.274 127.145C760.107 130.989 752.247 136.804 746.344 144.784L774.483 165.598ZM782.993 159.344C786.376 157.88 790.227 156.722 794.617 155.944L788.509 121.481C781.701 122.687 775.204 124.577 769.09 127.224L782.993 159.344ZM794.827 155.905C799.725 154.975 804.603 154.359 809.466 154.051L807.255 119.121C800.92 119.522 794.6 120.323 788.299 121.52L794.827 155.905ZM809.452 154.052C814.809 153.717 819.758 153.555 824.307 153.555L824.307 118.555C818.934 118.555 813.251 118.746 807.269 119.12L809.452 154.052ZM810.725 147.09L816.254 153.894L843.418 131.823L837.889 125.019L810.725 147.09ZM814.014 135.379L808.486 147.074L840.129 162.032L845.657 150.338L814.014 135.379ZM823.808 137.06C820.678 137.149 817.494 137.415 814.264 137.84L818.829 172.541C820.986 172.257 822.976 172.098 824.807 172.046L823.808 137.06ZM814.666 137.792C811.359 138.15 808.125 138.697 804.982 139.459L813.228 173.474C814.762 173.102 816.489 172.799 818.427 172.589L814.666 137.792ZM805.473 139.347C802.491 139.98 799.28 140.863 796.289 142.209L810.651 174.126C810.519 174.186 810.606 174.136 810.999 174.017C811.38 173.902 811.947 173.753 812.736 173.586L805.473 139.347ZM796.702 142.029C792.37 143.846 788.576 146.438 785.29 149.49L809.106 175.138C809.788 174.504 810.175 174.332 810.238 174.306L796.702 142.029ZM785.308 149.473C778.104 156.143 776.827 165.192 776.827 171.35H811.827C811.827 170.443 811.941 170.517 811.724 171.2C811.479 171.971 810.779 173.588 809.087 175.155L785.308 149.473ZM776.827 171.35C776.827 179.923 779.218 189.923 787.665 196.994L810.132 170.158C810.595 170.545 810.991 170.987 811.304 171.44C811.611 171.886 811.78 172.258 811.862 172.477C812.009 172.872 811.827 172.629 811.827 171.35H776.827ZM788.004 197.272C794.145 202.156 801.474 204.797 809.424 204.797L809.424 169.797C809.381 169.797 809.398 169.794 809.463 169.805C809.53 169.816 809.613 169.836 809.702 169.868C809.79 169.899 809.851 169.93 809.879 169.945C809.905 169.96 809.875 169.946 809.793 169.881L788.004 197.272ZM809.424 204.797C812.903 204.797 816.348 204.375 819.728 203.53L811.239 169.575C810.649 169.723 810.055 169.797 809.424 169.797L809.424 204.797ZM819.59 203.564C822.482 202.866 825.377 201.936 828.147 200.677L813.664 168.814C813.315 168.973 812.595 169.248 811.377 169.542L819.59 203.564ZM828.732 200.398C831.126 199.201 834.45 197.265 837.256 194.179L811.358 170.635C812.137 169.778 812.785 169.311 813.011 169.155C813.259 168.985 813.316 168.975 813.079 169.093L828.732 200.398ZM810.534 193.202L816.7 201.069L844.247 179.478L838.081 171.611L810.534 193.202ZM814.606 182.894L810.353 192.036L842.089 206.797L846.341 197.654L814.606 182.894ZM814.738 186.211C813.099 187.637 810.327 189.47 805.931 191.495L820.571 223.286C826.947 220.349 832.823 216.867 837.704 212.622L814.738 186.211ZM805.85 191.532C803.536 192.612 799.597 193.611 793.264 193.611L793.264 228.611C802.948 228.611 812.334 227.13 820.651 223.248L805.85 191.532ZM862.58 191.91H826.221L826.221 226.91H862.58L862.58 191.91ZM843.721 209.41L843.721 191.762H808.721L808.721 209.41H843.721ZM826.221 174.262H824.307L824.307 209.262H826.221L826.221 174.262ZM841.807 191.762L841.807 129.038H806.807L806.807 191.762H841.807ZM841.807 129.038C841.807 121.355 839.652 109.713 828.51 103.463L811.387 133.988C810.326 133.393 809.371 132.609 808.588 131.699C807.821 130.806 807.36 129.959 807.098 129.34C806.624 128.217 806.807 127.875 806.807 129.038H841.807ZM828.672 103.555C822.012 99.7253 814.384 98.7804 807.723 98.7804L807.723 133.78C809.53 133.78 810.688 133.923 811.334 134.052C811.991 134.183 811.828 134.243 811.225 133.896L828.672 103.555ZM807.723 98.7804C802.278 98.7804 796.699 99.2056 791.002 100.019L795.952 134.668C800.177 134.064 804.095 133.78 807.723 133.78L807.723 98.7804ZM790.967 100.024C785.372 100.835 779.901 101.976 774.56 103.455L783.901 137.186C787.775 136.113 791.801 135.269 795.987 134.663L790.967 100.024ZM774.803 103.39C769.398 104.803 764.314 106.554 759.675 108.731L774.547 140.414C776.854 139.331 779.85 138.247 783.659 137.251L774.803 103.39ZM783.634 118.806L775.766 96.2673L742.722 107.802L750.589 130.34L783.634 118.806ZM768.355 116.976C769.817 116.084 772.755 114.67 777.769 112.846L765.808 79.9536C759.908 82.099 754.483 84.4409 750.133 87.0931L768.355 116.976ZM777.887 112.803C782.442 111.11 787.766 109.6 793.928 108.33L786.86 74.0512C779.271 75.6158 772.193 77.5794 765.69 79.997L777.887 112.803ZM793.928 108.33C799.628 107.155 805.425 106.564 811.337 106.564L811.337 71.5644C803.074 71.5644 794.909 72.3916 786.86 74.0512L793.928 108.33ZM811.337 106.564C822.622 106.564 830.183 107.921 834.898 109.745L847.524 77.1016C837.213 73.1135 824.858 71.5644 811.337 71.5644L811.337 106.564ZM834.898 109.745C838.832 111.266 840.721 113.231 841.893 115.524L873.061 99.6013C867.57 88.854 858.616 81.3918 847.524 77.1016L834.898 109.745ZM841.962 115.658C843.581 118.762 845.08 124.361 845.08 133.716H880.08C880.08 121.24 878.177 109.405 872.992 99.4679L841.962 115.658ZM845.08 133.716L845.08 209.41H880.08L880.08 133.716H845.08ZM910.035 206.859L901.445 222.105L901.491 222.131L901.536 222.156L910.035 206.859ZM899.085 194.101L882.741 200.356L882.788 200.479L882.837 200.6L899.085 194.101ZM895.789 116.28H913.289L913.289 98.7804H895.789L895.789 116.28ZM882.181 116.28H864.681L864.681 133.78H882.181L882.181 116.28ZM882.181 95.8684L877.404 79.0332L864.681 82.6436L864.681 95.8684H882.181ZM895.151 91.297L902.443 107.206L902.579 107.143L902.713 107.079L895.151 91.297ZM902.593 83.9614L886.806 76.4109L902.593 83.9614ZM905.145 78.1142L921.358 84.7008L921.358 84.7008L905.145 78.1142ZM910.886 63.9746L910.886 46.4746H899.248L894.747 57.2069L910.886 63.9746ZM934.274 63.9746H951.774L951.774 46.4746H934.274L934.274 63.9746ZM934.274 90.978H916.774L916.774 108.478H934.274L934.274 90.978ZM964.892 90.978H982.392L982.392 73.478H964.892L964.892 90.978ZM964.892 116.28L964.892 133.78H982.392L982.392 116.28H964.892ZM934.274 116.28L934.274 98.7804H916.774L916.774 116.28H934.274ZM935.444 174.54L918.386 178.449L918.424 178.617L918.466 178.784L935.444 174.54ZM939.696 181.025L947.066 165.152L947.066 165.152L939.696 181.025ZM953.942 181.769L957.167 198.969L957.425 198.921L957.682 198.865L953.942 181.769ZM965.318 177.729L982.444 174.132L977.207 149.192L955.811 163.037L965.318 177.729ZM969.783 198.992L982.157 211.366L988.856 204.667L986.909 195.395L969.783 198.992ZM960.959 204.626L968.328 220.499L968.389 220.47L968.45 220.441L960.959 204.626ZM947.032 209.304L950.9 226.371L951.008 226.346L951.116 226.321L947.032 209.304ZM930.447 193.611C923.648 193.611 920.117 192.44 918.534 191.561L901.536 222.156C910.159 226.947 920.236 228.611 930.447 228.611L930.447 193.611ZM918.625 191.612C917.276 190.852 916.211 189.797 915.333 187.602L882.837 200.6C886.495 209.745 892.73 217.195 901.445 222.105L918.625 191.612ZM915.429 187.846C914.233 184.722 913.289 179.847 913.289 172.626L878.289 172.626C878.289 182.557 879.542 191.999 882.741 200.356L915.429 187.846ZM913.289 172.626L913.289 116.28H878.289L878.289 172.626L913.289 172.626ZM895.789 98.7804H882.181L882.181 133.78H895.789L895.789 98.7804ZM899.681 116.28L899.681 95.8684H864.681L864.681 116.28H899.681ZM886.959 112.704C892.713 111.071 897.952 109.264 902.443 107.206L887.86 75.3883C885.546 76.4487 882.139 77.6893 877.404 79.0332L886.959 112.704ZM902.713 107.079C909.545 103.805 915.019 98.5408 918.381 91.5119L886.806 76.4109C886.867 76.2826 887.022 76.0304 887.278 75.7774C887.528 75.5315 887.688 75.4678 887.589 75.5152L902.713 107.079ZM918.381 91.5119C919.354 89.4764 920.347 87.1888 921.358 84.7008L888.932 71.5276C888.1 73.5756 887.392 75.1861 886.806 76.4109L918.381 91.5119ZM921.358 84.7008C922.292 82.4013 923.261 79.9977 924.264 77.4906L891.767 64.4919C890.785 66.946 889.84 69.2911 888.932 71.5276L921.358 84.7008ZM924.264 77.4906C925.224 75.0892 926.144 72.8404 927.024 70.7424L894.747 57.2069C893.784 59.5031 892.791 61.9321 891.767 64.4919L924.264 77.4906ZM910.886 81.4746H934.274L934.274 46.4746L910.886 46.4746L910.886 81.4746ZM916.774 63.9746L916.774 90.978H951.774L951.774 63.9746L916.774 63.9746ZM934.274 108.478L964.892 108.478L964.892 73.478L934.274 73.478L934.274 108.478ZM947.392 90.978L947.392 116.28L982.392 116.28L982.392 90.978L947.392 90.978ZM964.892 98.7804L934.274 98.7804L934.274 133.78H964.892L964.892 98.7804ZM916.774 116.28L916.774 158.38H951.774L951.774 116.28H916.774ZM916.774 158.38C916.774 165.949 917.139 173.005 918.386 178.449L952.502 170.631C952.19 169.27 951.774 165.553 951.774 158.38H916.774ZM918.466 178.784C919.83 184.238 923.267 192.691 932.327 196.897L947.066 165.152C949.533 166.298 951.027 167.97 951.779 169.116C952.453 170.144 952.529 170.726 952.421 170.295L918.466 178.784ZM932.327 196.897C937.582 199.337 943.196 199.907 947.882 199.907L947.882 164.907C946.888 164.907 946.34 164.838 946.145 164.805C946.058 164.791 946.1 164.793 946.248 164.836C946.396 164.88 946.682 164.974 947.066 165.152L932.327 196.897ZM947.882 199.907C951.003 199.907 954.135 199.538 957.167 198.969L950.717 164.569C949.213 164.851 948.305 164.907 947.882 164.907L947.882 199.907ZM957.682 198.865C960.571 198.233 963.391 197.451 966.132 196.506L954.722 163.418C953.352 163.89 951.85 164.313 950.202 164.673L957.682 198.865ZM966.132 196.506C968.915 195.546 971.99 194.255 974.824 192.422L955.811 163.037C956.074 162.866 956.145 162.851 955.924 162.952C955.713 163.049 955.327 163.209 954.722 163.418L966.132 196.506ZM948.191 181.326L952.656 202.588L986.909 195.395L982.444 174.132L948.191 181.326ZM957.408 186.617C957.627 186.399 957.514 186.562 956.776 187.033C956.069 187.485 954.997 188.086 953.467 188.811L968.45 220.441C973.199 218.192 978.233 215.29 982.157 211.366L957.408 186.617ZM953.589 188.753C950.897 190.003 947.399 191.219 942.948 192.287L951.116 226.321C957.296 224.837 963.082 222.934 968.328 220.499L953.589 188.753ZM943.163 192.237C939.183 193.139 934.955 193.611 930.447 193.611L930.447 228.611C937.421 228.611 944.25 227.878 950.9 226.371L943.163 192.237Z" fill="white" mask="url(#path-2-outside-1_800_1248)"/>
</svg>
