<svg width="1022" height="288" viewBox="0 0 1022 288" fill="none" xmlns="http://www.w3.org/2000/svg">
<line x1="62.6406" y1="225.818" x2="958.396" y2="225.818" stroke="#FFCB11" stroke-width="105" stroke-linecap="round"/>
<mask id="path-2-outside-1_800_1251" maskUnits="userSpaceOnUse" x="9.14062" y="-3.58984" width="1016" height="243" fill="black">
<rect fill="white" x="9.14062" y="-3.58984" width="1016" height="243"/>
<path d="M27.1507 219.41L27.1506 61.4298L42.6723 61.4298C49.9015 61.4298 57.1308 61.1463 64.36 60.5793C71.6601 60.0123 79.2438 59.7288 87.1109 59.7288C99.7975 59.7288 110.677 61.5361 119.749 65.1507C128.821 68.6945 135.767 74.5416 140.586 82.6923C145.476 90.8429 147.922 101.758 147.922 115.437C147.922 134.148 142.358 148.571 131.231 158.706C120.174 168.841 104.121 173.908 83.071 173.908C78.9603 173.908 75.6646 173.873 73.184 173.802C70.7033 173.731 68.6125 173.696 66.9115 173.696L66.9115 219.41H27.1507ZM66.9115 144.566C69.1795 144.779 71.6247 144.991 74.2471 145.204C76.8695 145.346 79.8108 145.417 83.071 145.417C88.0323 145.417 92.462 144.46 96.3601 142.546C100.329 140.562 103.448 137.372 105.716 132.978C108.054 128.513 109.224 122.595 109.224 115.224C109.224 106.719 107.027 99.8795 102.633 94.7056C98.3091 89.4608 91.5051 87.0156 82.2205 87.37C79.8108 87.37 77.2238 87.4763 74.4597 87.689C71.6956 87.8307 69.1795 88.0788 66.9115 88.4331L66.9115 144.566ZM215.164 221.111C204.25 221.111 194.965 219.446 187.31 216.114C179.727 212.712 173.632 208.07 169.025 202.188C164.418 196.305 161.087 189.572 159.031 181.988C156.976 174.334 155.984 166.254 156.055 157.749C156.267 145.133 158.996 134.502 164.241 125.855C169.485 117.208 176.679 110.652 185.822 106.187C194.965 101.722 205.454 99.4896 217.291 99.4896C231.891 99.4896 243.514 102.396 252.161 108.207C260.879 114.019 267.116 121.709 270.872 131.277C274.628 140.845 276.4 151.299 276.188 162.639C276.046 175.326 273.353 186.028 268.108 194.746C262.934 203.392 255.776 209.948 246.633 214.413C237.49 218.879 227 221.111 215.164 221.111ZM216.015 194.533C223.598 194.533 228.843 191.769 231.749 186.241C234.726 180.642 236.214 172.207 236.214 160.938C236.214 154.56 235.612 148.748 234.407 143.503C233.202 138.187 231.182 133.97 228.347 130.852C225.512 127.662 221.614 126.068 216.653 126.068C208.927 126.068 203.541 128.867 200.493 134.466C197.516 140.066 196.028 148.252 196.028 159.025C196.028 165.545 196.631 171.499 197.835 176.885C199.111 182.272 201.202 186.56 204.108 189.749C207.014 192.938 210.983 194.533 216.015 194.533ZM286.493 219.41L282.028 210.693L331.145 136.699L337.311 127.131L290.746 127.131L290.958 100.978L384.513 100.978L388.341 110.971L340.287 182.839L333.483 192.407H384.513L384.514 219.41H286.493ZM407.303 219.41L407.303 100.978H442.386L443.236 114.799C445.717 112.318 448.977 109.908 453.017 107.569C457.057 105.231 461.557 103.281 466.519 101.722C471.48 100.163 476.618 99.3479 481.934 99.277C493.983 99.0644 503.019 102.36 509.044 109.164C515.068 115.897 518.08 127.769 518.08 144.779L518.08 219.41H479.595L479.595 151.795C479.595 143.149 478.497 137.231 476.299 134.041C474.102 130.781 470.169 129.257 464.499 129.47C462.656 129.47 460.601 129.753 458.333 130.32C456.065 130.887 453.797 131.738 451.529 132.872C449.331 134.006 447.347 135.423 445.575 137.124L445.575 219.41H407.303ZM574.999 221.111C567.203 221.111 560.399 219.516 554.587 216.327C548.846 213.067 544.381 208.602 541.192 202.932C538.073 197.191 536.514 190.635 536.514 183.264C536.514 176.318 538.392 170.294 542.148 165.191C545.976 160.017 551.185 156.048 557.776 153.284C562.525 151.228 567.699 149.705 573.298 148.712C578.897 147.649 584.496 146.94 590.095 146.586C595.765 146.232 601.081 146.055 606.042 146.055L611.57 152.859L606.042 164.553C603.562 164.624 600.975 164.836 598.281 165.191C595.659 165.474 593.178 165.9 590.839 166.467C588.501 166.963 586.622 167.53 585.205 168.168C583.008 169.089 580.917 170.471 578.932 172.314C577.019 174.086 576.062 177.098 576.062 181.35C576.062 186.949 577.586 191.025 580.633 193.576C583.752 196.057 587.26 197.297 591.158 197.297C593.214 197.297 595.234 197.049 597.218 196.553C599.274 196.057 601.081 195.454 602.64 194.746C604.199 193.966 605.333 193.186 606.042 192.407L612.208 200.274L607.956 209.417C604.696 212.252 600.372 214.91 594.986 217.39C589.67 219.871 583.008 221.111 574.999 221.111ZM644.315 219.41H607.956L607.956 201.762H606.042L606.042 139.038C606.042 133.793 604.589 130.356 601.683 128.726C598.848 127.095 594.773 126.28 589.457 126.28C584.921 126.28 580.173 126.635 575.212 127.344C570.321 128.052 565.573 129.045 560.966 130.32C556.359 131.525 552.319 132.943 548.846 134.573L540.979 112.035C543.885 110.263 548.066 108.384 553.524 106.4C559.052 104.345 565.254 102.608 572.128 101.191C579.003 99.7731 585.985 99.0644 593.072 99.0644C605.475 99.0644 615.433 100.517 622.946 103.423C630.459 106.329 635.881 111.042 639.212 117.563C642.614 124.083 644.315 132.801 644.315 143.716L644.315 219.41ZM585.63 83.5428L568.089 67.3833C571.42 64.1939 575.105 60.154 579.145 55.2636C583.256 50.3024 587.331 45.0222 591.371 39.4231C595.411 33.7531 599.096 28.2603 602.428 22.9446L627.517 42.5061C626.171 45.6246 624.186 48.9203 621.564 52.3932C618.941 55.7952 615.929 59.1618 612.527 62.4929C609.196 65.7531 605.794 68.8362 602.321 71.7421C598.919 74.5771 595.73 77.0223 592.753 79.0776C589.847 81.133 587.473 82.6214 585.63 83.5428ZM700.75 221.111L656.099 100.978H697.135L712.444 152.646L723.501 197.297H716.697L726.903 152.646L741.574 100.978H781.973L737.534 221.111H700.75ZM828.737 221.111C820.941 221.111 814.137 219.516 808.325 216.327C802.584 213.067 798.119 208.602 794.93 202.932C791.811 197.191 790.252 190.635 790.252 183.264C790.252 176.318 792.13 170.294 795.886 165.191C799.714 160.017 804.923 156.048 811.514 153.284C816.263 151.228 821.437 149.705 827.036 148.712C832.635 147.649 838.234 146.94 843.833 146.586C849.503 146.232 854.819 146.055 859.78 146.055L865.308 152.859L859.78 164.553C857.3 164.624 854.713 164.836 852.019 165.191C849.397 165.474 846.916 165.9 844.578 166.467C842.239 166.963 840.36 167.53 838.943 168.168C836.746 169.089 834.655 170.471 832.671 172.314C830.757 174.086 829.8 177.098 829.8 181.35C829.8 186.949 831.324 191.025 834.372 193.576C837.49 196.057 840.998 197.297 844.896 197.297C846.952 197.297 848.972 197.049 850.956 196.553C853.012 196.057 854.819 195.454 856.378 194.746C857.937 193.966 859.071 193.186 859.78 192.407L865.946 200.274L861.694 209.417C858.434 212.252 854.11 214.91 848.724 217.39C843.408 219.871 836.746 221.111 828.737 221.111ZM898.053 219.41H861.694L861.694 201.762H859.78L859.78 139.038C859.78 133.793 858.327 130.356 855.421 128.726C852.586 127.095 848.511 126.28 843.195 126.28C838.659 126.28 833.911 126.635 828.95 127.344C824.059 128.052 819.311 129.045 814.704 130.32C810.097 131.525 806.057 132.943 802.584 134.573L794.717 112.035C797.623 110.263 801.804 108.384 807.262 106.4C812.79 104.345 818.992 102.608 825.867 101.191C832.741 99.7731 839.723 99.0644 846.81 99.0644C859.213 99.0644 869.171 100.517 876.684 103.423C884.197 106.329 889.619 111.042 892.95 117.563C896.352 124.083 898.053 132.801 898.053 143.716L898.053 219.41ZM965.92 221.111C957.415 221.111 950.611 219.694 945.508 216.859C940.476 214.024 936.826 209.771 934.558 204.101C932.361 198.36 931.262 191.202 931.262 182.626L931.262 126.28H917.654L917.654 105.868C922.899 104.38 927.222 102.856 930.624 101.297C934.026 99.6668 936.507 97.2216 938.066 93.9614C938.846 92.3313 939.696 90.3822 940.618 88.1142C941.539 85.8462 942.496 83.4719 943.488 80.9913C944.48 78.5106 945.437 76.1718 946.358 73.9746H969.747L969.747 100.978L1000.37 100.978L1000.37 126.28L969.747 126.28L969.747 168.38C969.747 175.751 970.137 181.138 970.917 184.54C971.767 187.942 973.185 190.103 975.169 191.025C977.154 191.946 979.882 192.407 983.355 192.407C985.127 192.407 987.147 192.194 989.415 191.769C991.683 191.273 993.845 190.67 995.9 189.962C997.956 189.253 999.586 188.509 1000.79 187.729L1005.26 208.992C1003.41 210.834 1000.47 212.712 996.432 214.626C992.463 216.469 987.82 218.028 982.505 219.304C977.189 220.509 971.661 221.111 965.92 221.111Z"/>
</mask>
<path d="M27.1507 219.41L27.1506 61.4298L42.6723 61.4298C49.9015 61.4298 57.1308 61.1463 64.36 60.5793C71.6601 60.0123 79.2438 59.7288 87.1109 59.7288C99.7975 59.7288 110.677 61.5361 119.749 65.1507C128.821 68.6945 135.767 74.5416 140.586 82.6923C145.476 90.8429 147.922 101.758 147.922 115.437C147.922 134.148 142.358 148.571 131.231 158.706C120.174 168.841 104.121 173.908 83.071 173.908C78.9603 173.908 75.6646 173.873 73.184 173.802C70.7033 173.731 68.6125 173.696 66.9115 173.696L66.9115 219.41H27.1507ZM66.9115 144.566C69.1795 144.779 71.6247 144.991 74.2471 145.204C76.8695 145.346 79.8108 145.417 83.071 145.417C88.0323 145.417 92.462 144.46 96.3601 142.546C100.329 140.562 103.448 137.372 105.716 132.978C108.054 128.513 109.224 122.595 109.224 115.224C109.224 106.719 107.027 99.8795 102.633 94.7056C98.3091 89.4608 91.5051 87.0156 82.2205 87.37C79.8108 87.37 77.2238 87.4763 74.4597 87.689C71.6956 87.8307 69.1795 88.0788 66.9115 88.4331L66.9115 144.566ZM215.164 221.111C204.25 221.111 194.965 219.446 187.31 216.114C179.727 212.712 173.632 208.07 169.025 202.188C164.418 196.305 161.087 189.572 159.031 181.988C156.976 174.334 155.984 166.254 156.055 157.749C156.267 145.133 158.996 134.502 164.241 125.855C169.485 117.208 176.679 110.652 185.822 106.187C194.965 101.722 205.454 99.4896 217.291 99.4896C231.891 99.4896 243.514 102.396 252.161 108.207C260.879 114.019 267.116 121.709 270.872 131.277C274.628 140.845 276.4 151.299 276.188 162.639C276.046 175.326 273.353 186.028 268.108 194.746C262.934 203.392 255.776 209.948 246.633 214.413C237.49 218.879 227 221.111 215.164 221.111ZM216.015 194.533C223.598 194.533 228.843 191.769 231.749 186.241C234.726 180.642 236.214 172.207 236.214 160.938C236.214 154.56 235.612 148.748 234.407 143.503C233.202 138.187 231.182 133.97 228.347 130.852C225.512 127.662 221.614 126.068 216.653 126.068C208.927 126.068 203.541 128.867 200.493 134.466C197.516 140.066 196.028 148.252 196.028 159.025C196.028 165.545 196.631 171.499 197.835 176.885C199.111 182.272 201.202 186.56 204.108 189.749C207.014 192.938 210.983 194.533 216.015 194.533ZM286.493 219.41L282.028 210.693L331.145 136.699L337.311 127.131L290.746 127.131L290.958 100.978L384.513 100.978L388.341 110.971L340.287 182.839L333.483 192.407H384.513L384.514 219.41H286.493ZM407.303 219.41L407.303 100.978H442.386L443.236 114.799C445.717 112.318 448.977 109.908 453.017 107.569C457.057 105.231 461.557 103.281 466.519 101.722C471.48 100.163 476.618 99.3479 481.934 99.277C493.983 99.0644 503.019 102.36 509.044 109.164C515.068 115.897 518.08 127.769 518.08 144.779L518.08 219.41H479.595L479.595 151.795C479.595 143.149 478.497 137.231 476.299 134.041C474.102 130.781 470.169 129.257 464.499 129.47C462.656 129.47 460.601 129.753 458.333 130.32C456.065 130.887 453.797 131.738 451.529 132.872C449.331 134.006 447.347 135.423 445.575 137.124L445.575 219.41H407.303ZM574.999 221.111C567.203 221.111 560.399 219.516 554.587 216.327C548.846 213.067 544.381 208.602 541.192 202.932C538.073 197.191 536.514 190.635 536.514 183.264C536.514 176.318 538.392 170.294 542.148 165.191C545.976 160.017 551.185 156.048 557.776 153.284C562.525 151.228 567.699 149.705 573.298 148.712C578.897 147.649 584.496 146.94 590.095 146.586C595.765 146.232 601.081 146.055 606.042 146.055L611.57 152.859L606.042 164.553C603.562 164.624 600.975 164.836 598.281 165.191C595.659 165.474 593.178 165.9 590.839 166.467C588.501 166.963 586.622 167.53 585.205 168.168C583.008 169.089 580.917 170.471 578.932 172.314C577.019 174.086 576.062 177.098 576.062 181.35C576.062 186.949 577.586 191.025 580.633 193.576C583.752 196.057 587.26 197.297 591.158 197.297C593.214 197.297 595.234 197.049 597.218 196.553C599.274 196.057 601.081 195.454 602.64 194.746C604.199 193.966 605.333 193.186 606.042 192.407L612.208 200.274L607.956 209.417C604.696 212.252 600.372 214.91 594.986 217.39C589.67 219.871 583.008 221.111 574.999 221.111ZM644.315 219.41H607.956L607.956 201.762H606.042L606.042 139.038C606.042 133.793 604.589 130.356 601.683 128.726C598.848 127.095 594.773 126.28 589.457 126.28C584.921 126.28 580.173 126.635 575.212 127.344C570.321 128.052 565.573 129.045 560.966 130.32C556.359 131.525 552.319 132.943 548.846 134.573L540.979 112.035C543.885 110.263 548.066 108.384 553.524 106.4C559.052 104.345 565.254 102.608 572.128 101.191C579.003 99.7731 585.985 99.0644 593.072 99.0644C605.475 99.0644 615.433 100.517 622.946 103.423C630.459 106.329 635.881 111.042 639.212 117.563C642.614 124.083 644.315 132.801 644.315 143.716L644.315 219.41ZM585.63 83.5428L568.089 67.3833C571.42 64.1939 575.105 60.154 579.145 55.2636C583.256 50.3024 587.331 45.0222 591.371 39.4231C595.411 33.7531 599.096 28.2603 602.428 22.9446L627.517 42.5061C626.171 45.6246 624.186 48.9203 621.564 52.3932C618.941 55.7952 615.929 59.1618 612.527 62.4929C609.196 65.7531 605.794 68.8362 602.321 71.7421C598.919 74.5771 595.73 77.0223 592.753 79.0776C589.847 81.133 587.473 82.6214 585.63 83.5428ZM700.75 221.111L656.099 100.978H697.135L712.444 152.646L723.501 197.297H716.697L726.903 152.646L741.574 100.978H781.973L737.534 221.111H700.75ZM828.737 221.111C820.941 221.111 814.137 219.516 808.325 216.327C802.584 213.067 798.119 208.602 794.93 202.932C791.811 197.191 790.252 190.635 790.252 183.264C790.252 176.318 792.13 170.294 795.886 165.191C799.714 160.017 804.923 156.048 811.514 153.284C816.263 151.228 821.437 149.705 827.036 148.712C832.635 147.649 838.234 146.94 843.833 146.586C849.503 146.232 854.819 146.055 859.78 146.055L865.308 152.859L859.78 164.553C857.3 164.624 854.713 164.836 852.019 165.191C849.397 165.474 846.916 165.9 844.578 166.467C842.239 166.963 840.36 167.53 838.943 168.168C836.746 169.089 834.655 170.471 832.671 172.314C830.757 174.086 829.8 177.098 829.8 181.35C829.8 186.949 831.324 191.025 834.372 193.576C837.49 196.057 840.998 197.297 844.896 197.297C846.952 197.297 848.972 197.049 850.956 196.553C853.012 196.057 854.819 195.454 856.378 194.746C857.937 193.966 859.071 193.186 859.78 192.407L865.946 200.274L861.694 209.417C858.434 212.252 854.11 214.91 848.724 217.39C843.408 219.871 836.746 221.111 828.737 221.111ZM898.053 219.41H861.694L861.694 201.762H859.78L859.78 139.038C859.78 133.793 858.327 130.356 855.421 128.726C852.586 127.095 848.511 126.28 843.195 126.28C838.659 126.28 833.911 126.635 828.95 127.344C824.059 128.052 819.311 129.045 814.704 130.32C810.097 131.525 806.057 132.943 802.584 134.573L794.717 112.035C797.623 110.263 801.804 108.384 807.262 106.4C812.79 104.345 818.992 102.608 825.867 101.191C832.741 99.7731 839.723 99.0644 846.81 99.0644C859.213 99.0644 869.171 100.517 876.684 103.423C884.197 106.329 889.619 111.042 892.95 117.563C896.352 124.083 898.053 132.801 898.053 143.716L898.053 219.41ZM965.92 221.111C957.415 221.111 950.611 219.694 945.508 216.859C940.476 214.024 936.826 209.771 934.558 204.101C932.361 198.36 931.262 191.202 931.262 182.626L931.262 126.28H917.654L917.654 105.868C922.899 104.38 927.222 102.856 930.624 101.297C934.026 99.6668 936.507 97.2216 938.066 93.9614C938.846 92.3313 939.696 90.3822 940.618 88.1142C941.539 85.8462 942.496 83.4719 943.488 80.9913C944.48 78.5106 945.437 76.1718 946.358 73.9746H969.747L969.747 100.978L1000.37 100.978L1000.37 126.28L969.747 126.28L969.747 168.38C969.747 175.751 970.137 181.138 970.917 184.54C971.767 187.942 973.185 190.103 975.169 191.025C977.154 191.946 979.882 192.407 983.355 192.407C985.127 192.407 987.147 192.194 989.415 191.769C991.683 191.273 993.845 190.67 995.9 189.962C997.956 189.253 999.586 188.509 1000.79 187.729L1005.26 208.992C1003.41 210.834 1000.47 212.712 996.432 214.626C992.463 216.469 987.82 218.028 982.505 219.304C977.189 220.509 971.661 221.111 965.92 221.111Z" fill="black"/>
<path d="M27.1507 219.41H9.65066L9.65067 236.91H27.1507L27.1507 219.41ZM27.1506 61.4298L27.1506 43.9298H9.65063L9.65064 61.4298H27.1506ZM64.36 60.5793L63.0049 43.1318L62.9917 43.1328L64.36 60.5793ZM119.749 65.1507L113.271 81.4078L113.326 81.4297L113.381 81.4512L119.749 65.1507ZM140.586 82.6923L125.522 91.5994L125.551 91.6478L125.58 91.6959L140.586 82.6923ZM131.231 158.706L119.447 145.768L119.426 145.787L119.405 145.806L131.231 158.706ZM73.184 173.802L73.6838 156.309L73.184 173.802ZM66.9115 173.696L66.9115 156.196H49.4115L49.4115 173.696H66.9115ZM66.9115 219.41L66.9115 236.91H84.4115L84.4115 219.41H66.9115ZM66.9115 144.566H49.4115L49.4115 160.502L65.2781 161.99L66.9115 144.566ZM74.2471 145.204L72.8328 162.647L73.0675 162.666L73.3025 162.679L74.2471 145.204ZM96.3601 142.546L104.072 158.255L104.129 158.227L104.186 158.199L96.3601 142.546ZM105.716 132.978L90.2135 124.858L90.189 124.905L90.1647 124.952L105.716 132.978ZM102.633 94.7056L89.129 105.837L89.2108 105.936L89.2941 106.034L102.633 94.7056ZM82.2205 87.37L82.2205 104.87H82.5544L82.888 104.857L82.2205 87.37ZM74.4597 87.6889L75.356 105.166L75.5791 105.155L75.8019 105.137L74.4597 87.6889ZM66.9115 88.4331L64.2099 71.1429L49.4115 73.4552L49.4115 88.4331H66.9115ZM44.6507 219.41L44.6506 61.4298L9.65064 61.4298L9.65066 219.41H44.6507ZM27.1506 78.9298H42.6723L42.6723 43.9298L27.1506 43.9298L27.1506 78.9298ZM42.6723 78.9298C50.3596 78.9298 58.0453 78.6283 65.7284 78.0257L62.9917 43.1328C56.2163 43.6642 49.4435 43.9298 42.6723 43.9298L42.6723 78.9298ZM65.7152 78.0267C72.5326 77.4972 79.6629 77.2288 87.1109 77.2288L87.1109 42.2288C78.8246 42.2288 70.7877 42.5273 63.0049 43.1318L65.7152 78.0267ZM87.1109 77.2288C98.2106 77.2288 106.775 78.8195 113.271 81.4078L126.226 48.8936C114.578 44.2527 101.384 42.2288 87.1109 42.2288L87.1109 77.2288ZM113.381 81.4512C118.922 83.6156 122.755 86.9185 125.522 91.5994L155.65 73.7851C148.779 62.1648 138.719 53.7733 126.116 48.8502L113.381 81.4512ZM125.58 91.6959C128.274 96.1858 130.422 103.615 130.422 115.437H165.422C165.422 99.9001 162.679 85.5 155.592 73.6886L125.58 91.6959ZM130.422 115.437C130.422 130.509 126.08 139.726 119.447 145.768L143.015 171.643C158.636 157.415 165.422 137.786 165.422 115.437H130.422ZM119.405 145.806C112.678 151.972 101.511 156.408 83.071 156.408L83.071 191.408C106.731 191.408 127.67 185.709 143.056 171.606L119.405 145.806ZM83.071 156.408C79.0344 156.408 75.9257 156.373 73.6838 156.309L72.6842 191.295C75.4035 191.373 78.8862 191.408 83.071 191.408L83.071 156.408ZM73.6838 156.309C71.1046 156.236 68.8355 156.196 66.9115 156.196L66.9115 191.196C68.3895 191.196 70.3021 191.227 72.6842 191.295L73.6838 156.309ZM49.4115 173.696L49.4115 219.41H84.4115L84.4115 173.696H49.4115ZM66.9115 201.91H27.1507L27.1507 236.91H66.9115L66.9115 201.91ZM65.2781 161.99C67.6292 162.21 70.1482 162.429 72.8328 162.647L75.6614 127.761C73.1012 127.554 70.7299 127.347 68.545 127.143L65.2781 161.99ZM73.3025 162.679C76.3036 162.841 79.5673 162.917 83.071 162.917L83.071 127.917C80.0542 127.917 77.4353 127.851 75.1916 127.73L73.3025 162.679ZM83.071 162.917C90.3237 162.917 97.4527 161.505 104.072 158.255L88.6483 126.837C87.4712 127.415 85.7408 127.917 83.071 127.917L83.071 162.917ZM104.186 158.199C111.85 154.367 117.501 148.3 121.266 141.004L90.1647 124.952C89.3942 126.445 88.8079 126.757 88.5339 126.894L104.186 158.199ZM121.218 141.098C125.335 133.237 126.724 124.21 126.724 115.224H91.7239C91.7239 120.979 90.7737 123.788 90.2135 124.858L121.218 141.098ZM126.724 115.224C126.724 103.65 123.678 92.4511 115.971 83.377L89.2941 106.034C90.3759 107.308 91.7239 109.787 91.7239 115.224H126.724ZM116.136 83.5743C107.17 72.6972 94.1485 69.402 81.5531 69.8827L82.888 104.857C85.9004 104.742 87.5837 105.125 88.3685 105.407C89.0043 105.635 89.0982 105.799 89.129 105.837L116.136 83.5743ZM82.2205 69.87C79.3023 69.87 76.2635 69.9985 73.1175 70.2405L75.8019 105.137C78.1842 104.954 80.3192 104.87 82.2205 104.87L82.2205 69.87ZM73.5635 70.2119C70.313 70.3786 67.1827 70.6784 64.2099 71.1429L69.6131 105.723C71.1764 105.479 73.0782 105.283 75.356 105.166L73.5635 70.2119ZM49.4115 88.4331L49.4115 144.566H84.4115L84.4115 88.4331L49.4115 88.4331ZM187.31 216.114L180.148 232.081L180.237 232.122L180.327 232.161L187.31 216.114ZM169.025 202.188L182.803 191.398L169.025 202.188ZM159.031 181.988L142.13 186.526L142.135 186.546L142.141 186.566L159.031 181.988ZM156.055 157.749L138.557 157.454L138.556 157.529L138.555 157.603L156.055 157.749ZM164.241 125.855L179.203 134.931L164.241 125.855ZM185.822 106.187L178.142 90.4624L185.822 106.187ZM252.161 108.207L242.399 122.731L242.426 122.75L242.454 122.768L252.161 108.207ZM270.872 131.277L287.162 124.882L287.162 124.882L270.872 131.277ZM276.188 162.639L258.691 162.311L258.69 162.377L258.689 162.444L276.188 162.639ZM268.108 194.746L253.113 185.724L253.102 185.742L253.091 185.76L268.108 194.746ZM246.633 214.413L254.312 230.138L246.633 214.413ZM231.749 186.241L216.297 178.026L216.278 178.062L216.259 178.098L231.749 186.241ZM234.407 143.503L217.34 147.372L217.345 147.396L217.351 147.421L234.407 143.503ZM228.347 130.852L215.267 142.478L215.332 142.551L215.398 142.624L228.347 130.852ZM200.493 134.466L185.123 126.1L185.082 126.176L185.041 126.251L200.493 134.466ZM197.835 176.885L180.757 180.705L180.781 180.812L180.806 180.918L197.835 176.885ZM204.108 189.749L217.044 177.963L204.108 189.749ZM215.164 203.611C205.948 203.611 199.179 202.194 194.294 200.068L180.327 232.161C190.751 236.697 202.552 238.611 215.164 238.611L215.164 203.611ZM194.473 200.147C189.186 197.776 185.468 194.801 182.803 191.398L155.247 212.977C161.796 221.34 170.268 227.649 180.148 232.081L194.473 200.147ZM182.803 191.398C179.712 187.451 177.397 182.855 175.922 177.41L142.141 186.566C144.776 196.289 149.124 205.159 155.247 212.977L182.803 191.398ZM175.933 177.45C174.316 171.43 173.495 164.934 173.554 157.895L138.555 157.603C138.472 167.574 139.636 177.237 142.13 186.526L175.933 177.45ZM173.552 158.044C173.725 147.768 175.919 140.345 179.203 134.931L149.278 116.779C142.072 128.659 138.809 142.498 138.557 157.454L173.552 158.044ZM179.203 134.931C182.697 129.171 187.354 124.915 193.502 121.912L178.142 90.4624C166.004 96.3903 156.274 105.245 149.278 116.779L179.203 134.931ZM193.502 121.912C199.892 118.792 207.683 116.99 217.291 116.99L217.291 81.9896C203.226 81.9896 190.038 84.6529 178.142 90.4624L193.502 121.912ZM217.291 116.99C229.758 116.99 237.582 119.494 242.399 122.731L261.923 93.6831C249.446 85.2969 234.023 81.9896 217.291 81.9896L217.291 116.99ZM242.454 122.768C248.255 126.636 252.16 131.503 254.582 137.672L287.162 124.882C282.071 111.915 273.502 101.402 261.868 93.6464L242.454 122.768ZM254.582 137.672C257.416 144.889 258.865 153.031 258.691 162.311L293.685 162.967C293.936 149.567 291.841 136.801 287.162 124.882L254.582 137.672ZM258.689 162.444C258.573 172.779 256.401 180.258 253.113 185.724L283.103 203.767C290.304 191.798 293.519 177.872 293.687 162.835L258.689 162.444ZM253.091 185.76C249.676 191.467 245.081 195.696 238.953 198.689L254.312 230.138C266.471 224.201 276.192 215.318 283.125 203.731L253.091 185.76ZM238.953 198.689C232.563 201.809 224.772 203.611 215.164 203.611L215.164 238.611C229.229 238.611 242.417 235.948 254.312 230.138L238.953 198.689ZM216.015 212.033C228.431 212.033 240.605 207.006 247.239 194.383L216.259 178.098C216.269 178.078 216.384 177.872 216.651 177.601C216.923 177.324 217.222 177.113 217.477 176.978C217.975 176.716 217.736 177.033 216.015 177.033L216.015 212.033ZM247.201 194.456C252.198 185.056 253.714 173.165 253.714 160.938H218.714C218.714 171.25 217.253 176.227 216.297 178.026L247.201 194.456ZM253.714 160.938C253.714 153.476 253.011 146.325 251.463 139.585L217.351 147.421C218.212 151.17 218.714 155.643 218.714 160.938H253.714ZM251.474 139.634C249.792 132.216 246.674 124.996 241.296 119.08L215.398 142.624C215.69 142.945 216.612 144.159 217.34 147.372L251.474 139.634ZM241.427 119.225C234.719 111.679 225.717 108.568 216.653 108.568L216.653 143.568C217.259 143.568 217.164 143.663 216.671 143.461C216.43 143.362 216.157 143.218 215.885 143.024C215.614 142.832 215.408 142.636 215.267 142.478L241.427 119.225ZM216.653 108.568C204.134 108.568 191.937 113.582 185.123 126.1L215.864 142.833C215.876 142.811 215.79 142.969 215.566 143.192C215.336 143.421 215.087 143.593 214.889 143.695C214.503 143.896 214.854 143.568 216.653 143.568L216.653 108.568ZM185.041 126.251C180.087 135.571 178.528 147.137 178.528 159.025H213.528C213.528 149.367 214.946 144.56 215.945 142.681L185.041 126.251ZM178.528 159.025C178.528 166.606 179.227 173.863 180.757 180.705L214.913 173.065C214.034 169.134 213.528 164.485 213.528 159.025H178.528ZM180.806 180.918C182.578 188.396 185.778 195.615 191.172 201.535L217.044 177.963C216.626 177.504 215.645 176.147 214.864 172.852L180.806 180.918ZM191.172 201.535C197.954 208.979 206.956 212.033 216.015 212.033L216.015 177.033C215.347 177.033 215.367 176.929 215.788 177.099C215.994 177.181 216.236 177.306 216.482 177.478C216.728 177.649 216.916 177.823 217.044 177.963L191.172 201.535ZM286.493 219.41L270.918 227.388L275.795 236.91H286.493L286.493 219.41ZM282.028 210.693L267.448 201.014L261.782 209.551L266.453 218.67L282.028 210.693ZM331.145 136.699L345.725 146.377L345.79 146.278L345.855 146.179L331.145 136.699ZM337.311 127.131L352.021 136.611L369.408 109.631H337.311L337.311 127.131ZM290.746 127.131L273.246 126.989L273.103 144.631H290.746L290.746 127.131ZM290.958 100.978L290.958 83.478H273.6L273.459 100.836L290.958 100.978ZM384.513 100.978L400.856 94.7192L396.551 83.478H384.513L384.513 100.978ZM388.341 110.971L402.888 120.698L407.922 113.17L404.683 104.713L388.341 110.971ZM340.287 182.839L354.549 192.98L354.695 192.775L354.835 192.566L340.287 182.839ZM333.484 192.407L319.222 182.265L299.565 209.907H333.484L333.484 192.407ZM384.513 192.407L402.013 192.407L402.013 174.907L384.513 174.907L384.513 192.407ZM384.514 219.41L384.514 236.91L402.014 236.91L402.013 219.41L384.514 219.41ZM302.069 211.432L297.604 202.715L266.453 218.67L270.918 227.388L302.069 211.432ZM296.608 220.371L345.725 146.377L316.564 127.021L267.448 201.014L296.608 220.371ZM345.855 146.179L352.021 136.611L322.601 117.651L316.435 127.219L345.855 146.179ZM337.311 109.631L290.746 109.631L290.746 144.631H337.311L337.311 109.631ZM308.245 127.273L308.458 101.12L273.459 100.836L273.246 126.989L308.245 127.273ZM290.958 118.478L384.513 118.478L384.513 83.478L290.958 83.478L290.958 118.478ZM368.171 107.237L371.998 117.23L404.683 104.713L400.856 94.7192L368.171 107.237ZM373.793 101.244L325.74 173.112L354.835 192.566L402.888 120.698L373.793 101.244ZM326.026 172.697L319.222 182.265L347.745 202.548L354.549 192.98L326.026 172.697ZM333.484 209.907H384.513L384.513 174.907H333.483L333.484 209.907ZM367.013 192.407L367.014 219.41L402.013 219.41L402.013 192.407L367.013 192.407ZM384.513 201.91H286.493L286.493 236.91H384.514L384.513 201.91ZM407.303 219.41L389.803 219.41L389.803 236.91L407.303 236.91L407.303 219.41ZM407.303 100.978L407.303 83.478H389.803L389.803 100.978H407.303ZM442.386 100.978L459.853 99.9031L458.842 83.478L442.386 83.478L442.386 100.978ZM443.236 114.799L425.769 115.874L428.154 154.629L455.611 127.173L443.236 114.799ZM453.017 107.569L444.249 92.4244L444.249 92.4244L453.017 107.569ZM466.519 101.722L471.766 118.417L471.766 118.417L466.519 101.722ZM481.934 99.277L482.167 116.775L482.205 116.775L482.243 116.774L481.934 99.277ZM509.044 109.164L495.941 120.765L495.972 120.799L496.002 120.833L509.044 109.164ZM518.08 219.41L518.08 236.91H535.58L535.58 219.41H518.08ZM479.595 219.41H462.095L462.095 236.91H479.595L479.595 219.41ZM476.299 134.041L461.787 143.821L461.837 143.895L461.888 143.969L476.299 134.041ZM464.499 129.47L464.499 146.97H464.827L465.154 146.957L464.499 129.47ZM458.333 130.32L454.088 113.343L454.088 113.343L458.333 130.32ZM451.529 132.872L443.702 117.219L443.602 117.269L443.502 117.321L451.529 132.872ZM445.575 137.124L433.456 124.5L428.075 129.665L428.075 137.124H445.575ZM445.575 219.41L445.575 236.91H463.075L463.075 219.41H445.575ZM424.803 219.41L424.803 100.978H389.803L389.803 219.41L424.803 219.41ZM407.303 118.478H442.386L442.386 83.478H407.303L407.303 118.478ZM424.919 102.053L425.769 115.874L460.703 113.724L459.853 99.9031L424.919 102.053ZM455.611 127.173C456.727 126.056 458.657 124.525 461.785 122.714L444.249 92.4244C439.297 95.2914 434.706 98.5798 430.862 102.424L455.611 127.173ZM461.785 122.714C464.594 121.088 467.894 119.634 471.766 118.417L461.272 85.0273C455.221 86.9291 449.52 89.3728 444.249 92.4244L461.785 122.714ZM471.766 118.417C475.068 117.379 478.515 116.824 482.167 116.775L481.701 81.7786C474.722 81.8716 467.892 82.9466 461.272 85.0273L471.766 118.417ZM482.243 116.774C490.946 116.621 494.331 118.946 495.941 120.765L522.146 97.5631C511.707 85.7738 497.019 81.5081 481.625 81.7797L482.243 116.774ZM496.002 120.833C497.515 122.524 500.58 128.729 500.58 144.779H535.58C535.58 126.808 532.621 109.27 522.085 97.4952L496.002 120.833ZM500.58 144.779L500.58 219.41H535.58L535.58 144.779H500.58ZM518.08 201.91H479.595L479.595 236.91H518.08L518.08 201.91ZM497.095 219.41L497.095 151.795H462.095L462.095 219.41H497.095ZM497.095 151.795C497.095 146.822 496.786 142.036 495.977 137.678C495.202 133.503 493.76 128.54 490.711 124.113L461.888 143.969C461.036 142.732 461.241 142.323 461.565 144.066C461.855 145.626 462.095 148.123 462.095 151.795H497.095ZM490.812 124.261C483.869 113.96 472.64 111.652 463.843 111.982L465.154 146.957C466.384 146.911 466.26 147.112 465.38 146.771C464.901 146.586 464.253 146.259 463.56 145.718C462.858 145.17 462.256 144.516 461.787 143.821L490.812 124.261ZM464.499 111.97C460.903 111.97 457.392 112.517 454.088 113.343L462.577 147.298C463.809 146.99 464.409 146.97 464.499 146.97L464.499 111.97ZM454.088 113.343C450.482 114.244 447.017 115.562 443.702 117.219L459.355 148.524C460.576 147.914 461.647 147.53 462.577 147.298L454.088 113.343ZM443.502 117.321C439.817 119.223 436.452 121.624 433.456 124.5L457.694 149.749C458.242 149.223 458.846 148.789 459.555 148.423L443.502 117.321ZM428.075 137.124L428.075 219.41H463.075L463.075 137.124H428.075ZM445.575 201.91H407.303L407.303 236.91H445.575L445.575 201.91ZM554.587 216.327L545.945 231.544L546.056 231.607L546.168 231.669L554.587 216.327ZM541.192 202.932L525.814 211.285L525.876 211.399L525.939 211.511L541.192 202.932ZM542.148 165.191L528.079 154.784L528.067 154.8L528.055 154.816L542.148 165.191ZM557.776 153.284L564.544 169.422L564.636 169.384L564.728 169.344L557.776 153.284ZM573.298 148.712L576.352 165.944L576.457 165.925L576.562 165.905L573.298 148.712ZM590.095 146.586L589.004 129.12L588.99 129.121L590.095 146.586ZM606.042 146.055L619.624 135.019L614.372 128.555H606.042L606.042 146.055ZM611.57 152.859L627.392 160.338L632.101 150.375L625.152 141.823L611.57 152.859ZM606.042 164.553L606.542 182.046L617.275 181.739L621.863 172.032L606.042 164.553ZM598.281 165.191L600.162 182.589L600.364 182.568L600.564 182.541L598.281 165.191ZM590.839 166.467L594.471 183.586L594.717 183.533L594.963 183.474L590.839 166.467ZM585.205 168.168L591.973 184.306L592.181 184.219L592.386 184.126L585.205 168.168ZM578.932 172.314L590.822 185.155L590.831 185.146L590.84 185.138L578.932 172.314ZM580.633 193.576L569.4 206.994L569.568 207.135L569.739 207.272L580.633 193.576ZM597.218 196.553L593.112 179.542L593.043 179.558L592.974 179.575L597.218 196.553ZM602.64 194.746L609.882 210.677L610.177 210.543L610.466 210.398L602.64 194.746ZM606.042 192.407L619.816 181.611L607.033 165.302L593.093 180.635L606.042 192.407ZM612.208 200.274L628.076 207.654L632.601 197.924L625.982 189.478L612.208 200.274ZM607.956 209.417L619.439 222.622L622.252 220.177L623.823 216.797L607.956 209.417ZM594.986 217.39L587.665 201.495L587.625 201.513L587.585 201.532L594.986 217.39ZM644.315 219.41L644.315 236.91L661.815 236.91L661.815 219.41L644.315 219.41ZM607.956 219.41H590.456L590.456 236.91H607.956L607.956 219.41ZM607.956 201.762H625.456L625.456 184.262H607.956L607.956 201.762ZM606.042 201.762H588.542L588.542 219.262H606.042L606.042 201.762ZM601.683 128.726L592.96 143.896L593.041 143.943L593.121 143.988L601.683 128.726ZM575.212 127.344L572.737 110.019L572.719 110.022L572.702 110.024L575.212 127.344ZM560.966 130.32L565.394 147.251L565.515 147.219L565.636 147.186L560.966 130.32ZM548.846 134.573L532.324 140.34L538.718 158.659L556.282 150.414L548.846 134.573ZM540.979 112.035L531.868 97.0931L519.797 104.454L524.457 117.802L540.979 112.035ZM553.524 106.4L559.504 122.846L559.563 122.825L559.622 122.803L553.524 106.4ZM572.128 101.191L568.595 84.0512L568.595 84.0512L572.128 101.191ZM639.212 117.563L623.628 125.524L623.662 125.591L623.696 125.658L639.212 117.563ZM585.63 83.5428L573.773 96.4138L582.655 104.596L593.456 99.1953L585.63 83.5428ZM568.089 67.3833L555.986 54.7429L542.527 67.6293L556.232 80.2543L568.089 67.3833ZM579.145 55.2636L565.67 44.0983L565.661 44.1083L565.653 44.1182L579.145 55.2636ZM591.371 39.4231L605.563 49.6626L605.593 49.6203L605.623 49.5779L591.371 39.4231ZM602.428 22.9446L613.188 9.14358L597.895 -2.77915L587.599 13.6519L602.428 22.9446ZM627.517 42.5061L643.583 49.4438L648.947 37.0235L638.277 28.7051L627.517 42.5061ZM621.564 52.3932L635.424 63.0771L635.477 63.0082L635.53 62.9387L621.564 52.3932ZM612.527 62.4929L624.768 74.9996L624.771 74.9968L612.527 62.4929ZM602.321 71.7421L613.524 85.186L613.538 85.1747L613.551 85.1635L602.321 71.7421ZM592.753 79.0776L582.81 64.677L582.728 64.7332L582.647 64.7904L592.753 79.0776ZM574.999 203.611C569.626 203.611 565.818 202.528 563.006 200.985L546.168 231.669C554.98 236.505 564.779 238.611 574.999 238.611L574.999 203.611ZM563.229 201.11C560.211 199.396 558.05 197.207 556.444 194.352L525.939 211.511C530.712 219.997 537.482 226.738 545.945 231.544L563.229 201.11ZM556.569 194.578C555.014 191.716 554.014 188.097 554.014 183.264H519.014C519.014 193.173 521.132 202.666 525.814 211.285L556.569 194.578ZM554.014 183.264C554.014 179.673 554.913 177.371 556.242 175.565L528.055 154.816C521.871 163.217 519.014 172.964 519.014 183.264H554.014ZM556.217 175.598C557.969 173.23 560.528 171.106 564.544 169.422L551.009 137.145C541.842 140.989 533.982 146.804 528.079 154.784L556.217 175.598ZM564.728 169.344C568.111 167.88 571.962 166.722 576.352 165.944L570.244 131.481C563.435 132.687 556.939 134.577 550.825 137.224L564.728 169.344ZM576.562 165.905C581.459 164.975 586.338 164.359 591.201 164.051L588.99 129.121C582.655 129.522 576.335 130.323 570.033 131.52L576.562 165.905ZM591.187 164.052C596.544 163.717 601.493 163.555 606.042 163.555L606.042 128.555C600.669 128.555 594.986 128.746 589.004 129.12L591.187 164.052ZM592.46 157.09L597.988 163.894L625.152 141.823L619.624 135.019L592.46 157.09ZM595.749 145.379L590.221 157.074L621.863 172.032L627.392 160.338L595.749 145.379ZM605.542 147.06C602.413 147.149 599.228 147.415 595.998 147.84L600.564 182.541C602.721 182.257 604.711 182.098 606.542 182.046L605.542 147.06ZM596.4 147.792C593.094 148.15 589.86 148.697 586.716 149.459L594.963 183.474C596.497 183.102 598.224 182.799 600.162 182.589L596.4 147.792ZM587.208 149.347C584.226 149.98 581.015 150.863 578.024 152.209L592.386 184.126C592.254 184.186 592.341 184.136 592.734 184.017C593.115 183.902 593.682 183.753 594.471 183.586L587.208 149.347ZM578.437 152.029C574.105 153.846 570.311 156.438 567.025 159.49L590.84 185.138C591.523 184.504 591.91 184.332 591.973 184.306L578.437 152.029ZM567.043 159.473C559.839 166.143 558.562 175.192 558.562 181.35H593.562C593.562 180.443 593.675 180.517 593.458 181.2C593.214 181.971 592.514 183.588 590.822 185.155L567.043 159.473ZM558.562 181.35C558.562 189.923 560.953 199.923 569.4 206.994L591.867 180.158C592.33 180.545 592.726 180.987 593.038 181.44C593.346 181.886 593.515 182.258 593.597 182.477C593.744 182.872 593.562 182.629 593.562 181.35H558.562ZM569.739 207.272C575.88 212.156 583.209 214.797 591.158 214.797L591.158 179.797C591.116 179.797 591.133 179.794 591.198 179.805C591.265 179.816 591.348 179.836 591.437 179.868C591.525 179.899 591.586 179.93 591.613 179.945C591.639 179.96 591.61 179.946 591.528 179.881L569.739 207.272ZM591.158 214.797C594.638 214.797 598.083 214.375 601.463 213.53L592.974 179.575C592.384 179.723 591.79 179.797 591.158 179.797L591.158 214.797ZM601.324 213.564C604.217 212.866 607.112 211.936 609.882 210.677L595.399 178.814C595.05 178.973 594.33 179.248 593.112 179.542L601.324 213.564ZM610.466 210.398C612.861 209.201 616.185 207.265 618.991 204.179L593.093 180.635C593.872 179.778 594.52 179.311 594.746 179.155C594.994 178.985 595.051 178.975 594.814 179.093L610.466 210.398ZM592.269 203.202L598.435 211.069L625.982 189.478L619.816 181.611L592.269 203.202ZM596.341 192.894L592.088 202.036L623.823 216.797L628.076 207.654L596.341 192.894ZM596.473 196.211C594.834 197.637 592.062 199.47 587.665 201.495L602.306 233.286C608.682 230.349 614.558 226.867 619.439 222.622L596.473 196.211ZM587.585 201.532C585.271 202.612 581.332 203.611 574.999 203.611L574.999 238.611C584.683 238.611 594.069 237.13 602.386 233.248L587.585 201.532ZM644.315 201.91H607.956L607.956 236.91H644.315L644.315 201.91ZM625.456 219.41L625.456 201.762H590.456L590.456 219.41H625.456ZM607.956 184.262H606.042L606.042 219.262H607.956L607.956 184.262ZM623.542 201.762L623.542 139.038H588.542L588.542 201.762H623.542ZM623.542 139.038C623.542 131.355 621.387 119.713 610.245 113.463L593.121 143.988C592.061 143.393 591.106 142.609 590.323 141.699C589.555 140.806 589.095 139.959 588.833 139.34C588.359 138.217 588.542 137.875 588.542 139.038H623.542ZM610.407 113.555C603.747 109.725 596.119 108.78 589.457 108.78L589.457 143.78C591.264 143.78 592.423 143.923 593.069 144.052C593.726 144.183 593.563 144.243 592.96 143.896L610.407 113.555ZM589.457 108.78C584.013 108.78 578.434 109.206 572.737 110.019L577.686 144.668C581.912 144.064 585.83 143.78 589.457 143.78L589.457 108.78ZM572.702 110.024C567.107 110.835 561.635 111.976 556.295 113.455L565.636 147.186C569.51 146.113 573.536 145.269 577.722 144.663L572.702 110.024ZM556.538 113.39C551.133 114.803 546.049 116.554 541.41 118.731L556.282 150.414C558.589 149.331 561.585 148.247 565.394 147.251L556.538 113.39ZM565.368 128.806L557.501 106.267L524.457 117.802L532.324 140.34L565.368 128.806ZM550.09 126.976C551.552 126.084 554.49 124.67 559.504 122.846L547.543 89.9536C541.643 92.099 536.218 94.4409 531.868 97.0931L550.09 126.976ZM559.622 122.803C564.176 121.11 569.501 119.6 575.662 118.33L568.595 84.0512C561.006 85.6158 553.928 87.5794 547.425 89.997L559.622 122.803ZM575.662 118.33C581.363 117.155 587.16 116.564 593.072 116.564L593.072 81.5644C584.809 81.5644 576.643 82.3916 568.595 84.0512L575.662 118.33ZM593.072 116.564C604.357 116.564 611.918 117.921 616.633 119.745L629.259 87.1016C618.948 83.1135 606.593 81.5644 593.072 81.5644L593.072 116.564ZM616.633 119.745C620.567 121.266 622.456 123.231 623.628 125.524L654.796 109.601C649.305 98.854 640.351 91.3918 629.259 87.1016L616.633 119.745ZM623.696 125.658C625.316 128.762 626.815 134.361 626.815 143.716L661.815 143.716C661.815 131.24 659.911 119.405 654.727 109.468L623.696 125.658ZM626.815 143.716L626.815 219.41L661.815 219.41L661.815 143.716L626.815 143.716ZM597.487 70.6717L579.946 54.5122L556.232 80.2543L573.773 96.4138L597.487 70.6717ZM580.191 80.0237C584.158 76.226 588.312 71.6449 592.637 66.4091L565.653 44.1182C561.899 48.6632 558.682 52.1618 555.986 54.7429L580.191 80.0237ZM592.62 66.429C596.997 61.1467 601.311 55.5559 605.563 49.6626L577.179 29.1835C573.352 34.4885 569.515 39.458 565.67 44.0983L592.62 66.429ZM605.623 49.5779C609.842 43.6564 613.723 37.8757 617.256 32.2374L587.599 13.6519C584.47 18.6448 580.979 23.8498 577.119 29.2683L605.623 49.5779ZM591.667 36.7457L616.757 56.3072L638.277 28.7051L613.188 9.14358L591.667 36.7457ZM611.451 35.5685C610.788 37.1051 609.601 39.1945 607.598 41.8477L635.53 62.9387C638.771 58.6461 641.554 54.1441 643.583 49.4438L611.451 35.5685ZM607.704 41.7093C605.627 44.4031 603.167 47.166 600.284 49.989L624.771 74.9968C628.692 71.1575 632.256 67.1873 635.424 63.0771L607.704 41.7093ZM600.287 49.9862C597.271 52.9378 594.205 55.7148 591.091 58.3207L613.551 85.1635C617.383 81.9576 621.121 78.5685 624.768 74.9996L600.287 49.9862ZM591.118 58.2982C588.035 60.8671 585.269 62.9788 582.81 64.677L602.696 93.4783C606.191 91.0657 609.803 88.2871 613.524 85.186L591.118 58.2982ZM582.647 64.7904C580.026 66.6446 578.485 67.5497 577.804 67.8903L593.456 99.1953C596.461 97.6931 599.668 95.6215 602.859 93.3649L582.647 64.7904ZM700.75 221.111L684.346 227.208L688.585 238.611H700.75L700.75 221.111ZM656.099 100.978L656.099 83.478H630.925L639.695 107.075L656.099 100.978ZM697.135 100.978L713.914 96.0065L710.202 83.478H697.135L697.135 100.978ZM712.444 152.646L729.431 148.44L729.336 148.055L729.223 147.674L712.444 152.646ZM723.501 197.297L723.501 214.797H745.863L740.488 193.091L723.501 197.297ZM716.697 197.297L699.637 193.398L694.746 214.797H716.697L716.697 197.297ZM726.903 152.646L710.068 147.866L709.944 148.303L709.843 148.746L726.903 152.646ZM741.574 100.978L741.574 83.478H728.351L724.739 96.1979L741.574 100.978ZM781.973 100.978L798.386 107.049L807.105 83.478H781.973L781.973 100.978ZM737.534 221.111L737.534 238.611H749.72L753.947 227.183L737.534 221.111ZM717.154 215.014L672.502 94.8811L639.695 107.075L684.346 227.208L717.154 215.014ZM656.099 118.478H697.135L697.135 83.478H656.099L656.099 118.478ZM680.356 105.95L695.665 157.617L729.223 147.674L713.914 96.0065L680.356 105.95ZM695.457 156.852L706.514 201.503L740.488 193.091L729.431 148.44L695.457 156.852ZM723.501 179.797H716.697L716.697 214.797H723.501L723.501 179.797ZM733.757 201.197L743.963 156.545L709.843 148.746L699.637 193.398L733.757 201.197ZM743.737 157.426L758.408 105.758L724.739 96.1979L710.068 147.866L743.737 157.426ZM741.574 118.478H781.973L781.973 83.478H741.574L741.574 118.478ZM765.56 94.9066L721.121 215.04L753.947 227.183L798.386 107.049L765.56 94.9066ZM737.534 203.611H700.75L700.75 238.611H737.534L737.534 203.611ZM808.325 216.327L799.683 231.544L799.794 231.607L799.906 231.669L808.325 216.327ZM794.93 202.932L779.552 211.285L779.614 211.399L779.677 211.511L794.93 202.932ZM795.886 165.191L781.817 154.784L781.805 154.8L781.793 154.816L795.886 165.191ZM811.514 153.284L818.282 169.422L818.374 169.384L818.466 169.344L811.514 153.284ZM827.036 148.712L830.09 165.944L830.195 165.925L830.3 165.905L827.036 148.712ZM843.833 146.586L842.742 129.12L842.728 129.121L843.833 146.586ZM859.78 146.055L873.362 135.019L868.11 128.555H859.78L859.78 146.055ZM865.308 152.859L881.13 160.338L885.839 150.375L878.89 141.823L865.308 152.859ZM859.78 164.553L860.28 182.046L871.013 181.739L875.601 172.032L859.78 164.553ZM852.019 165.191L853.9 182.589L854.102 182.568L854.302 182.541L852.019 165.191ZM844.577 166.467L848.209 183.586L848.455 183.533L848.701 183.474L844.577 166.467ZM838.943 168.168L845.711 184.306L845.919 184.219L846.124 184.126L838.943 168.168ZM832.671 172.314L844.56 185.155L844.569 185.146L844.578 185.138L832.671 172.314ZM834.372 193.576L823.138 206.994L823.306 207.135L823.477 207.272L834.372 193.576ZM850.956 196.553L846.85 179.542L846.781 179.558L846.712 179.575L850.956 196.553ZM856.378 194.746L863.62 210.677L863.915 210.543L864.204 210.398L856.378 194.746ZM859.78 192.407L873.554 181.611L860.771 165.302L846.831 180.635L859.78 192.407ZM865.946 200.274L881.814 207.654L886.34 197.924L879.72 189.478L865.946 200.274ZM861.694 209.417L873.177 222.622L875.99 220.177L877.561 216.797L861.694 209.417ZM848.724 217.39L841.403 201.495L841.363 201.513L841.323 201.532L848.724 217.39ZM898.053 219.41L898.053 236.91L915.553 236.91L915.553 219.41L898.053 219.41ZM861.694 219.41H844.194L844.194 236.91H861.694L861.694 219.41ZM861.694 201.762H879.194L879.194 184.262H861.694L861.694 201.762ZM859.78 201.762H842.28L842.28 219.262H859.78L859.78 201.762ZM855.421 128.726L846.698 143.896L846.779 143.943L846.859 143.988L855.421 128.726ZM828.95 127.344L826.475 110.019L826.457 110.022L826.44 110.024L828.95 127.344ZM814.704 130.32L819.132 147.251L819.253 147.219L819.374 147.186L814.704 130.32ZM802.584 134.573L786.062 140.34L792.456 158.659L810.02 150.414L802.584 134.573ZM794.717 112.035L785.606 97.0931L773.535 104.454L778.195 117.802L794.717 112.035ZM807.262 106.4L813.242 122.846L813.301 122.825L813.36 122.803L807.262 106.4ZM825.866 101.191L822.333 84.0512L822.333 84.0512L825.866 101.191ZM892.95 117.563L877.366 125.524L877.4 125.591L877.434 125.658L892.95 117.563ZM828.737 203.611C823.364 203.611 819.556 202.528 816.744 200.985L799.906 231.669C808.718 236.505 818.517 238.611 828.737 238.611L828.737 203.611ZM816.967 201.11C813.949 199.396 811.788 197.207 810.182 194.352L779.677 211.511C784.45 219.997 791.22 226.738 799.683 231.544L816.967 201.11ZM810.307 194.578C808.752 191.716 807.752 188.097 807.752 183.264H772.752C772.752 193.173 774.87 202.666 779.552 211.285L810.307 194.578ZM807.752 183.264C807.752 179.673 808.651 177.371 809.98 175.565L781.793 154.816C775.609 163.217 772.752 172.964 772.752 183.264H807.752ZM809.955 175.598C811.707 173.23 814.266 171.106 818.282 169.422L804.747 137.145C795.58 140.989 787.72 146.804 781.817 154.784L809.955 175.598ZM818.466 169.344C821.849 167.88 825.7 166.722 830.09 165.944L823.982 131.481C817.173 132.687 810.677 134.577 804.563 137.224L818.466 169.344ZM830.3 165.905C835.197 164.975 840.076 164.359 844.939 164.051L842.728 129.121C836.393 129.522 830.073 130.323 823.772 131.52L830.3 165.905ZM844.925 164.052C850.282 163.717 855.231 163.555 859.78 163.555L859.78 128.555C854.407 128.555 848.724 128.746 842.742 129.12L844.925 164.052ZM846.198 157.09L851.726 163.894L878.89 141.823L873.362 135.019L846.198 157.09ZM849.487 145.379L843.959 157.074L875.601 172.032L881.13 160.338L849.487 145.379ZM859.28 147.06C856.151 147.149 852.966 147.415 849.736 147.84L854.302 182.541C856.459 182.257 858.449 182.098 860.28 182.046L859.28 147.06ZM850.138 147.792C846.832 148.15 843.598 148.697 840.455 149.459L848.701 183.474C850.235 183.102 851.962 182.799 853.9 182.589L850.138 147.792ZM840.946 149.347C837.964 149.98 834.753 150.863 831.762 152.209L846.124 184.126C845.992 184.186 846.079 184.136 846.472 184.017C846.853 183.902 847.42 183.753 848.209 183.586L840.946 149.347ZM832.175 152.029C827.843 153.846 824.049 156.438 820.763 159.49L844.578 185.138C845.261 184.504 845.648 184.332 845.711 184.306L832.175 152.029ZM820.781 159.473C813.577 166.143 812.3 175.192 812.3 181.35H847.3C847.3 180.443 847.413 180.517 847.196 181.2C846.952 181.971 846.252 183.588 844.56 185.155L820.781 159.473ZM812.3 181.35C812.3 189.923 814.691 199.923 823.138 206.994L845.605 180.158C846.068 180.545 846.464 180.987 846.776 181.44C847.084 181.886 847.253 182.258 847.335 182.477C847.482 182.872 847.3 182.629 847.3 181.35H812.3ZM823.477 207.272C829.618 212.156 836.947 214.797 844.896 214.797L844.896 179.797C844.854 179.797 844.871 179.794 844.936 179.805C845.003 179.816 845.086 179.836 845.175 179.868C845.263 179.899 845.324 179.93 845.351 179.945C845.377 179.96 845.348 179.946 845.266 179.881L823.477 207.272ZM844.896 214.797C848.376 214.797 851.821 214.375 855.201 213.53L846.712 179.575C846.122 179.723 845.528 179.797 844.896 179.797L844.896 214.797ZM855.062 213.564C857.955 212.866 860.85 211.936 863.62 210.677L849.137 178.814C848.788 178.973 848.068 179.248 846.85 179.542L855.062 213.564ZM864.204 210.398C866.599 209.201 869.923 207.265 872.729 204.179L846.831 180.635C847.61 179.778 848.258 179.311 848.484 179.155C848.732 178.985 848.789 178.975 848.552 179.093L864.204 210.398ZM846.007 203.202L852.173 211.069L879.72 189.478L873.554 181.611L846.007 203.202ZM850.079 192.894L845.826 202.036L877.561 216.797L881.814 207.654L850.079 192.894ZM850.211 196.211C848.572 197.637 845.8 199.47 841.403 201.495L856.044 233.286C862.42 230.349 868.296 226.867 873.177 222.622L850.211 196.211ZM841.323 201.532C839.009 202.612 835.07 203.611 828.737 203.611L828.737 238.611C838.421 238.611 847.807 237.13 856.124 233.248L841.323 201.532ZM898.053 201.91H861.694L861.694 236.91H898.053L898.053 201.91ZM879.194 219.41L879.194 201.762H844.194L844.194 219.41H879.194ZM861.694 184.262H859.78L859.78 219.262H861.694L861.694 184.262ZM877.28 201.762L877.28 139.038H842.28L842.28 201.762H877.28ZM877.28 139.038C877.28 131.355 875.125 119.713 863.983 113.463L846.859 143.988C845.799 143.393 844.844 142.609 844.061 141.699C843.293 140.806 842.833 139.959 842.571 139.34C842.097 138.217 842.28 137.875 842.28 139.038H877.28ZM864.145 113.555C857.485 109.725 849.857 108.78 843.195 108.78L843.195 143.78C845.002 143.78 846.161 143.923 846.807 144.052C847.464 144.183 847.301 144.243 846.698 143.896L864.145 113.555ZM843.195 108.78C837.751 108.78 832.172 109.206 826.475 110.019L831.424 144.668C835.65 144.064 839.568 143.78 843.195 143.78L843.195 108.78ZM826.44 110.024C820.845 110.835 815.373 111.976 810.033 113.455L819.374 147.186C823.248 146.113 827.274 145.269 831.46 144.663L826.44 110.024ZM810.276 113.39C804.871 114.803 799.787 116.554 795.148 118.731L810.02 150.414C812.327 149.331 815.323 148.247 819.132 147.251L810.276 113.39ZM819.106 128.806L811.239 106.267L778.195 117.802L786.062 140.34L819.106 128.806ZM803.828 126.976C805.29 126.084 808.228 124.67 813.242 122.846L801.281 89.9536C795.381 92.099 789.956 94.4409 785.606 97.0931L803.828 126.976ZM813.36 122.803C817.914 121.11 823.239 119.6 829.4 118.33L822.333 84.0512C814.744 85.6158 807.666 87.5794 801.163 89.997L813.36 122.803ZM829.4 118.33C835.101 117.155 840.898 116.564 846.81 116.564L846.81 81.5644C838.547 81.5644 830.381 82.3916 822.333 84.0512L829.4 118.33ZM846.81 116.564C858.095 116.564 865.656 117.921 870.371 119.745L882.997 87.1016C872.686 83.1135 860.331 81.5644 846.81 81.5644L846.81 116.564ZM870.371 119.745C874.305 121.266 876.194 123.231 877.366 125.524L908.534 109.601C903.043 98.854 894.089 91.3918 882.997 87.1016L870.371 119.745ZM877.434 125.658C879.054 128.762 880.553 134.361 880.553 143.716L915.553 143.716C915.553 131.24 913.65 119.405 908.465 109.468L877.434 125.658ZM880.553 143.716L880.553 219.41L915.553 219.41L915.553 143.716L880.553 143.716ZM945.508 216.859L936.918 232.105L936.964 232.131L937.009 232.156L945.508 216.859ZM934.558 204.101L918.214 210.356L918.261 210.479L918.309 210.6L934.558 204.101ZM931.262 126.28H948.762L948.762 108.78H931.262L931.262 126.28ZM917.654 126.28H900.154L900.154 143.78L917.654 143.78L917.654 126.28ZM917.654 105.868L912.877 89.0332L900.154 92.6436L900.154 105.868H917.654ZM930.624 101.297L937.916 117.206L938.052 117.143L938.186 117.079L930.624 101.297ZM938.066 93.9614L922.279 86.4109L938.066 93.9614ZM940.618 88.1142L956.831 94.7008L956.831 94.7008L940.618 88.1142ZM946.358 73.9746L946.358 56.4746L934.721 56.4746L930.22 67.2069L946.358 73.9746ZM969.747 73.9746H987.247L987.247 56.4746H969.747L969.747 73.9746ZM969.747 100.978H952.247L952.247 118.478H969.747L969.747 100.978ZM1000.37 100.978H1017.87L1017.87 83.478H1000.37L1000.37 100.978ZM1000.37 126.28L1000.37 143.78H1017.87L1017.87 126.28H1000.37ZM969.747 126.28L969.747 108.78H952.247L952.247 126.28H969.747ZM970.917 184.54L953.859 188.449L953.897 188.617L953.939 188.784L970.917 184.54ZM975.169 191.025L982.539 175.152L982.539 175.152L975.169 191.025ZM989.415 191.769L992.64 208.969L992.898 208.921L993.155 208.865L989.415 191.769ZM1000.79 187.729L1017.92 184.132L1012.68 159.192L991.284 173.037L1000.79 187.729ZM1005.26 208.992L1017.63 221.366L1024.33 214.667L1022.38 205.395L1005.26 208.992ZM996.432 214.626L1003.8 230.499L1003.86 230.47L1003.92 230.441L996.432 214.626ZM982.505 219.304L986.373 236.371L986.481 236.346L986.589 236.321L982.505 219.304ZM965.92 203.611C959.121 203.611 955.59 202.44 954.007 201.561L937.009 232.156C945.632 236.947 955.709 238.611 965.92 238.611L965.92 203.611ZM954.098 201.612C952.749 200.852 951.684 199.797 950.806 197.602L918.309 210.6C921.967 219.745 928.202 227.195 936.918 232.105L954.098 201.612ZM950.902 197.846C949.706 194.722 948.762 189.847 948.762 182.626H913.762C913.762 192.557 915.015 201.999 918.214 210.356L950.902 197.846ZM948.762 182.626L948.762 126.28H913.762L913.762 182.626H948.762ZM931.262 108.78H917.654L917.654 143.78H931.262L931.262 108.78ZM935.154 126.28L935.154 105.868H900.154L900.154 126.28H935.154ZM922.432 122.704C928.186 121.071 933.425 119.264 937.916 117.206L923.333 85.3883C921.019 86.4487 917.612 87.6893 912.877 89.0332L922.432 122.704ZM938.186 117.079C945.018 113.805 950.492 108.541 953.853 101.512L922.279 86.4109C922.34 86.2826 922.495 86.0304 922.751 85.7774C923.001 85.5315 923.161 85.4678 923.062 85.5152L938.186 117.079ZM953.853 101.512C954.827 99.4764 955.82 97.1888 956.831 94.7008L924.404 81.5276C923.572 83.5756 922.865 85.1861 922.279 86.4109L953.853 101.512ZM956.831 94.7008C957.765 92.4013 958.734 89.9977 959.736 87.4906L927.24 74.4919C926.258 76.946 925.313 79.2911 924.404 81.5276L956.831 94.7008ZM959.736 87.4906C960.697 85.0892 961.617 82.8404 962.497 80.7424L930.22 67.2069C929.257 69.5031 928.264 71.9321 927.24 74.4919L959.736 87.4906ZM946.358 91.4746H969.747L969.747 56.4746H946.358L946.358 91.4746ZM952.247 73.9746L952.247 100.978L987.247 100.978L987.247 73.9746H952.247ZM969.747 118.478L1000.37 118.478L1000.37 83.478L969.747 83.478L969.747 118.478ZM982.865 100.978L982.865 126.28H1017.87L1017.87 100.978H982.865ZM1000.37 108.78L969.747 108.78L969.747 143.78H1000.37L1000.37 108.78ZM952.247 126.28L952.247 168.38H987.247L987.247 126.28L952.247 126.28ZM952.247 168.38C952.247 175.949 952.611 183.005 953.859 188.449L987.975 180.631C987.663 179.27 987.247 175.553 987.247 168.38H952.247ZM953.939 188.784C955.303 194.238 958.74 202.691 967.8 206.897L982.539 175.152C985.006 176.298 986.5 177.97 987.252 179.116C987.926 180.144 988.002 180.726 987.894 180.295L953.939 188.784ZM967.8 206.897C973.055 209.337 978.669 209.907 983.355 209.907L983.355 174.907C982.361 174.907 981.813 174.838 981.617 174.805C981.53 174.791 981.573 174.793 981.721 174.836C981.869 174.88 982.155 174.974 982.539 175.152L967.8 206.897ZM983.355 209.907C986.476 209.907 989.608 209.538 992.64 208.969L986.19 174.569C984.686 174.851 983.778 174.907 983.355 174.907L983.355 209.907ZM993.155 208.865C996.043 208.233 998.864 207.451 1001.6 206.506L990.195 173.418C988.825 173.89 987.323 174.313 985.675 174.673L993.155 208.865ZM1001.6 206.506C1004.39 205.546 1007.46 204.255 1010.3 202.422L991.284 173.037C991.547 172.866 991.618 172.851 991.397 172.952C991.186 173.049 990.8 173.209 990.195 173.418L1001.6 206.506ZM983.664 191.326L988.129 212.588L1022.38 205.395L1017.92 184.132L983.664 191.326ZM992.881 196.617C993.1 196.399 992.987 196.562 992.249 197.033C991.541 197.485 990.47 198.086 988.94 198.811L1003.92 230.441C1008.67 228.192 1013.71 225.29 1017.63 221.366L992.881 196.617ZM989.062 198.753C986.37 200.003 982.872 201.219 978.421 202.287L986.589 236.321C992.768 234.837 998.555 232.934 1003.8 230.499L989.062 198.753ZM978.636 202.237C974.656 203.139 970.428 203.611 965.92 203.611L965.92 238.611C972.893 238.611 979.723 237.878 986.373 236.371L978.636 202.237Z" fill="white" mask="url(#path-2-outside-1_800_1251)"/>
</svg>
