<svg width="962" height="269" viewBox="0 0 962 269" fill="none" xmlns="http://www.w3.org/2000/svg">
<line x1="52.5391" y1="215.818" x2="908.604" y2="215.818" stroke="#036DCE" stroke-width="105" stroke-linecap="round"/>
<mask id="path-2-outside-1_800_1254" maskUnits="userSpaceOnUse" x="-7.96093" y="17.4102" width="982" height="263" fill="black">
<rect fill="white" x="-7.96093" y="17.4102" width="982" height="263"/>
<path d="M61.7004 211.111C54.1876 211.111 46.9938 210.544 40.1189 209.41C33.3149 208.347 27.3968 207.071 22.3647 205.583C17.3326 204.024 13.7888 202.606 11.7335 201.33L16.6238 170.5C19.2462 171.988 22.79 173.512 27.2551 175.071C31.7202 176.63 36.646 177.977 42.0325 179.111C47.4899 180.174 52.9827 180.706 58.511 180.706C65.9528 180.706 71.3393 179.643 74.6705 177.516C78.0725 175.39 79.7735 171.988 79.7735 167.31C79.7735 163.908 78.7458 161.038 76.6904 158.699C74.635 156.289 71.233 153.844 66.4844 151.364C61.8067 148.883 55.5342 145.764 47.6671 142.008C41.0048 138.819 34.8741 135.062 29.275 130.739C23.6759 126.345 19.1753 121.1 15.7733 115.005C12.3713 108.839 10.6703 101.538 10.6703 93.1043C10.6703 85.875 12.017 79.5671 14.7102 74.1806C17.4743 68.7233 21.337 64.1873 26.2983 60.5726C31.3304 56.958 37.2839 54.2648 44.1588 52.4929C51.0336 50.6501 58.6527 49.7288 67.016 49.7288C78.923 49.7288 88.6328 50.8273 96.1456 53.0244C103.658 55.2216 108.832 57.1706 111.667 58.8716L105.501 88.4265C102.312 85.9459 97.3859 83.6779 90.7236 81.6225C84.1323 79.4963 77.3637 78.4331 70.418 78.4331C65.4567 78.4331 61.3814 79.0001 58.192 80.1341C55.0026 81.1973 52.6283 82.7211 51.0691 84.7056C49.5098 86.6901 48.7302 88.9935 48.7302 91.6159C48.7302 94.8053 49.6516 97.6403 51.4943 100.121C53.408 102.531 56.3493 104.94 60.3183 107.35C64.3581 109.689 69.5675 112.311 75.9462 115.217C82.7502 118.265 88.81 121.383 94.1257 124.573C99.5122 127.762 104.084 131.235 107.84 134.991C111.596 138.748 114.431 143.036 116.345 147.855C118.329 152.604 119.322 158.097 119.322 164.334C119.322 173.76 117.089 181.982 112.624 188.998C108.23 196.015 101.745 201.472 93.1689 205.37C84.593 209.198 74.1035 211.111 61.7004 211.111ZM143.908 261.929L143.908 90.978H180.267L180.267 105.437L182.393 107.988L182.393 194.101L181.968 204.945L182.393 223.869L182.393 261.929H143.908ZM201.53 211.111C194.513 211.111 188.772 210.367 184.307 208.879C179.913 207.319 177.078 206.079 175.802 205.158L182.393 180.918C183.882 182.407 186.079 183.505 188.985 184.214C191.891 184.852 195.08 185.171 198.553 185.171C203.089 185.171 207.058 183.753 210.46 180.918C213.933 178.083 216.661 173.937 218.646 168.48C220.63 162.952 221.658 156.183 221.729 148.174C221.729 136.763 219.957 128.896 216.413 124.573C212.87 120.179 208.05 117.981 201.955 117.981C198.128 117.981 194.407 118.619 190.792 119.895C187.248 121.1 184.449 122.517 182.393 124.148L178.353 104.373C179.984 102.602 182.322 100.546 185.37 98.2073C188.418 95.8684 192.351 93.8485 197.171 92.1475C201.99 90.3756 207.908 89.4896 214.925 89.4896C223.359 89.4896 231.155 91.545 238.314 95.6558C245.472 99.6956 251.213 105.897 255.536 114.26C259.931 122.553 262.128 133.078 262.128 145.835C262.128 159.231 259.612 170.819 254.579 180.599C249.547 190.309 242.46 197.822 233.317 203.138C224.245 208.453 213.649 211.111 201.53 211.111ZM336.5 211.111C325.585 211.111 316.301 209.446 308.646 206.114C301.062 202.712 294.967 198.07 290.36 192.188C285.753 186.305 282.422 179.572 280.367 171.988C278.312 164.334 277.319 156.254 277.39 147.749C277.603 135.133 280.331 124.502 285.576 115.855C290.821 107.208 298.015 100.652 307.158 96.1873C316.301 91.7222 326.79 89.4896 338.626 89.4896C353.226 89.4896 364.85 92.3955 373.497 98.2073C382.214 104.019 388.451 111.709 392.208 121.277C395.964 130.845 397.736 141.299 397.523 152.639C397.382 165.326 394.688 176.028 389.444 184.746C384.27 193.392 377.111 199.948 367.968 204.413C358.826 208.879 348.336 211.111 336.5 211.111ZM337.35 184.533C344.934 184.533 350.179 181.769 353.085 176.241C356.061 170.642 357.55 162.207 357.55 150.938C357.55 144.56 356.947 138.748 355.742 133.503C354.538 128.187 352.518 123.97 349.683 120.852C346.848 117.662 342.95 116.068 337.988 116.068C330.263 116.068 324.876 118.867 321.829 124.466C318.852 130.066 317.364 138.252 317.364 149.025C317.364 155.545 317.966 161.499 319.171 166.885C320.447 172.272 322.538 176.56 325.443 179.749C328.349 182.938 332.318 184.533 337.35 184.533ZM393.058 259.377L393.058 235.138C393.909 235.563 395.822 236.024 398.799 236.52C401.705 237.016 404.469 237.264 407.091 237.264C411.769 237.264 415.313 235.28 417.723 231.311C420.132 227.412 421.337 220.041 421.337 209.198L421.337 90.978L458.972 90.978L458.972 200.905C458.972 216.356 457.129 228.546 453.444 237.477C449.758 246.407 444.513 252.75 437.709 256.507C430.905 260.263 422.826 262.141 413.47 262.141C411.131 262.141 408.58 261.964 405.816 261.61C403.052 261.326 400.5 260.972 398.161 260.546C395.822 260.121 394.121 259.731 393.058 259.377ZM438.56 76.5195C432.394 76.5195 427.291 74.6768 423.251 70.9913C419.282 67.2349 417.297 62.4863 417.297 56.7454C417.297 52.8473 418.36 49.2681 420.487 46.0078C422.613 42.7476 425.413 40.1606 428.885 38.247C432.429 36.2625 436.292 35.2703 440.473 35.2703C446.781 35.2703 451.849 37.113 455.676 40.7985C459.574 44.4131 461.523 49.1618 461.523 55.0444C461.523 60.8561 459.291 65.8883 454.826 70.1408C450.361 74.3933 444.939 76.5195 438.56 76.5195ZM539.781 211.111C528.866 211.111 519.582 209.446 511.927 206.114C504.344 202.712 498.248 198.07 493.641 192.188C489.035 186.305 485.703 179.572 483.648 171.988C481.593 164.334 480.6 156.254 480.671 147.749C480.884 135.133 483.613 124.502 488.857 115.855C494.102 107.208 501.296 100.652 510.439 96.1873C519.582 91.7222 530.071 89.4896 541.907 89.4896C556.508 89.4896 568.131 92.3955 576.778 98.2073C585.495 104.019 591.732 111.709 595.489 121.277C599.245 130.845 601.017 141.299 600.804 152.639C600.663 165.326 597.969 176.028 592.725 184.746C587.551 193.392 580.392 199.948 571.25 204.413C562.107 208.879 551.617 211.111 539.781 211.111ZM540.632 184.533C548.215 184.533 553.46 181.769 556.366 176.241C559.343 170.642 560.831 162.207 560.831 150.938C560.831 144.56 560.228 138.748 559.024 133.503C557.819 128.187 555.799 123.97 552.964 120.852C550.129 117.662 546.231 116.068 541.269 116.068C533.544 116.068 528.158 118.867 525.11 124.466C522.133 130.066 520.645 138.252 520.645 149.025C520.645 155.545 521.247 161.499 522.452 166.885C523.728 172.272 525.819 176.56 528.725 179.749C531.63 182.938 535.599 184.533 540.632 184.533ZM650.158 211.111L605.507 90.978H646.544L661.853 142.646L672.909 187.297H666.105L676.311 142.646L690.982 90.978L731.381 90.978L686.942 211.111H650.158ZM778.145 211.111C770.349 211.111 763.545 209.516 757.733 206.327C751.992 203.067 747.527 198.602 744.338 192.932C741.219 187.191 739.66 180.635 739.66 173.264C739.66 166.318 741.538 160.294 745.295 155.191C749.122 150.017 754.331 146.048 760.923 143.284C765.671 141.228 770.845 139.705 776.444 138.712C782.043 137.649 787.643 136.94 793.242 136.586C798.912 136.232 804.227 136.055 809.189 136.055L814.717 142.859L809.189 154.553C806.708 154.624 804.121 154.836 801.428 155.191C798.805 155.474 796.325 155.9 793.986 156.467C791.647 156.963 789.769 157.53 788.351 158.168C786.154 159.089 784.063 160.471 782.079 162.314C780.165 164.086 779.208 167.098 779.208 171.35C779.208 176.949 780.732 181.025 783.78 183.576C786.898 186.057 790.407 187.297 794.305 187.297C796.36 187.297 798.38 187.049 800.365 186.553C802.42 186.057 804.227 185.454 805.787 184.746C807.346 183.966 808.48 183.186 809.189 182.407L815.355 190.274L811.102 199.417C807.842 202.252 803.519 204.91 798.132 207.39C792.816 209.871 786.154 211.111 778.145 211.111ZM847.461 209.41H811.102L811.102 191.762H809.189L809.189 129.038C809.189 123.793 807.736 120.356 804.83 118.726C801.995 117.095 797.919 116.28 792.604 116.28C788.068 116.28 783.319 116.635 778.358 117.344C773.468 118.052 768.719 119.045 764.112 120.32C759.505 121.525 755.465 122.943 751.992 124.573L744.125 102.035C747.031 100.263 751.213 98.3845 756.67 96.4C762.198 94.3446 768.4 92.6081 775.275 91.1906C782.15 89.7731 789.131 89.0644 796.218 89.0644C808.622 89.0644 818.579 90.5173 826.092 93.4232C833.605 96.3291 839.027 101.042 842.358 107.563C845.76 114.083 847.461 122.801 847.461 133.716L847.461 209.41ZM915.328 211.111C906.823 211.111 900.019 209.694 894.916 206.859C889.884 204.024 886.234 199.771 883.966 194.101C881.769 188.36 880.67 181.202 880.67 172.626L880.67 116.28H867.062L867.062 95.8684C872.307 94.38 876.631 92.8562 880.033 91.297C883.435 89.6668 885.915 87.2216 887.474 83.9614C888.254 82.3313 889.104 80.3822 890.026 78.1142C890.947 75.8462 891.904 73.4719 892.896 70.9913C893.889 68.5106 894.845 66.1718 895.767 63.9746H919.156L919.156 90.978H949.774L949.774 116.28H919.156L919.156 158.38C919.156 165.751 919.545 171.138 920.325 174.54C921.175 177.942 922.593 180.103 924.577 181.025C926.562 181.946 929.291 182.407 932.764 182.407C934.535 182.407 936.555 182.194 938.823 181.769C941.091 181.273 943.253 180.67 945.308 179.962C947.364 179.253 948.994 178.509 950.199 177.729L954.664 198.992C952.821 200.834 949.88 202.712 945.84 204.626C941.871 206.469 937.229 208.028 931.913 209.304C926.597 210.509 921.069 211.111 915.328 211.111Z"/>
</mask>
<path d="M61.7004 211.111C54.1876 211.111 46.9938 210.544 40.1189 209.41C33.3149 208.347 27.3968 207.071 22.3647 205.583C17.3326 204.024 13.7888 202.606 11.7335 201.33L16.6238 170.5C19.2462 171.988 22.79 173.512 27.2551 175.071C31.7202 176.63 36.646 177.977 42.0325 179.111C47.4899 180.174 52.9827 180.706 58.511 180.706C65.9528 180.706 71.3393 179.643 74.6705 177.516C78.0725 175.39 79.7735 171.988 79.7735 167.31C79.7735 163.908 78.7458 161.038 76.6904 158.699C74.635 156.289 71.233 153.844 66.4844 151.364C61.8067 148.883 55.5342 145.764 47.6671 142.008C41.0048 138.819 34.8741 135.062 29.275 130.739C23.6759 126.345 19.1753 121.1 15.7733 115.005C12.3713 108.839 10.6703 101.538 10.6703 93.1043C10.6703 85.875 12.017 79.5671 14.7102 74.1806C17.4743 68.7233 21.337 64.1873 26.2983 60.5726C31.3304 56.958 37.2839 54.2648 44.1588 52.4929C51.0336 50.6501 58.6527 49.7288 67.016 49.7288C78.923 49.7288 88.6328 50.8273 96.1456 53.0244C103.658 55.2216 108.832 57.1706 111.667 58.8716L105.501 88.4265C102.312 85.9459 97.3859 83.6779 90.7236 81.6225C84.1323 79.4963 77.3637 78.4331 70.418 78.4331C65.4567 78.4331 61.3814 79.0001 58.192 80.1341C55.0026 81.1973 52.6283 82.7211 51.0691 84.7056C49.5098 86.6901 48.7302 88.9935 48.7302 91.6159C48.7302 94.8053 49.6516 97.6403 51.4943 100.121C53.408 102.531 56.3493 104.94 60.3183 107.35C64.3581 109.689 69.5675 112.311 75.9462 115.217C82.7502 118.265 88.81 121.383 94.1257 124.573C99.5122 127.762 104.084 131.235 107.84 134.991C111.596 138.748 114.431 143.036 116.345 147.855C118.329 152.604 119.322 158.097 119.322 164.334C119.322 173.76 117.089 181.982 112.624 188.998C108.23 196.015 101.745 201.472 93.1689 205.37C84.593 209.198 74.1035 211.111 61.7004 211.111ZM143.908 261.929L143.908 90.978H180.267L180.267 105.437L182.393 107.988L182.393 194.101L181.968 204.945L182.393 223.869L182.393 261.929H143.908ZM201.53 211.111C194.513 211.111 188.772 210.367 184.307 208.879C179.913 207.319 177.078 206.079 175.802 205.158L182.393 180.918C183.882 182.407 186.079 183.505 188.985 184.214C191.891 184.852 195.08 185.171 198.553 185.171C203.089 185.171 207.058 183.753 210.46 180.918C213.933 178.083 216.661 173.937 218.646 168.48C220.63 162.952 221.658 156.183 221.729 148.174C221.729 136.763 219.957 128.896 216.413 124.573C212.87 120.179 208.05 117.981 201.955 117.981C198.128 117.981 194.407 118.619 190.792 119.895C187.248 121.1 184.449 122.517 182.393 124.148L178.353 104.373C179.984 102.602 182.322 100.546 185.37 98.2073C188.418 95.8684 192.351 93.8485 197.171 92.1475C201.99 90.3756 207.908 89.4896 214.925 89.4896C223.359 89.4896 231.155 91.545 238.314 95.6558C245.472 99.6956 251.213 105.897 255.536 114.26C259.931 122.553 262.128 133.078 262.128 145.835C262.128 159.231 259.612 170.819 254.579 180.599C249.547 190.309 242.46 197.822 233.317 203.138C224.245 208.453 213.649 211.111 201.53 211.111ZM336.5 211.111C325.585 211.111 316.301 209.446 308.646 206.114C301.062 202.712 294.967 198.07 290.36 192.188C285.753 186.305 282.422 179.572 280.367 171.988C278.312 164.334 277.319 156.254 277.39 147.749C277.603 135.133 280.331 124.502 285.576 115.855C290.821 107.208 298.015 100.652 307.158 96.1873C316.301 91.7222 326.79 89.4896 338.626 89.4896C353.226 89.4896 364.85 92.3955 373.497 98.2073C382.214 104.019 388.451 111.709 392.208 121.277C395.964 130.845 397.736 141.299 397.523 152.639C397.382 165.326 394.688 176.028 389.444 184.746C384.27 193.392 377.111 199.948 367.968 204.413C358.826 208.879 348.336 211.111 336.5 211.111ZM337.35 184.533C344.934 184.533 350.179 181.769 353.085 176.241C356.061 170.642 357.55 162.207 357.55 150.938C357.55 144.56 356.947 138.748 355.742 133.503C354.538 128.187 352.518 123.97 349.683 120.852C346.848 117.662 342.95 116.068 337.988 116.068C330.263 116.068 324.876 118.867 321.829 124.466C318.852 130.066 317.364 138.252 317.364 149.025C317.364 155.545 317.966 161.499 319.171 166.885C320.447 172.272 322.538 176.56 325.443 179.749C328.349 182.938 332.318 184.533 337.35 184.533ZM393.058 259.377L393.058 235.138C393.909 235.563 395.822 236.024 398.799 236.52C401.705 237.016 404.469 237.264 407.091 237.264C411.769 237.264 415.313 235.28 417.723 231.311C420.132 227.412 421.337 220.041 421.337 209.198L421.337 90.978L458.972 90.978L458.972 200.905C458.972 216.356 457.129 228.546 453.444 237.477C449.758 246.407 444.513 252.75 437.709 256.507C430.905 260.263 422.826 262.141 413.47 262.141C411.131 262.141 408.58 261.964 405.816 261.61C403.052 261.326 400.5 260.972 398.161 260.546C395.822 260.121 394.121 259.731 393.058 259.377ZM438.56 76.5195C432.394 76.5195 427.291 74.6768 423.251 70.9913C419.282 67.2349 417.297 62.4863 417.297 56.7454C417.297 52.8473 418.36 49.2681 420.487 46.0078C422.613 42.7476 425.413 40.1606 428.885 38.247C432.429 36.2625 436.292 35.2703 440.473 35.2703C446.781 35.2703 451.849 37.113 455.676 40.7985C459.574 44.4131 461.523 49.1618 461.523 55.0444C461.523 60.8561 459.291 65.8883 454.826 70.1408C450.361 74.3933 444.939 76.5195 438.56 76.5195ZM539.781 211.111C528.866 211.111 519.582 209.446 511.927 206.114C504.344 202.712 498.248 198.07 493.641 192.188C489.035 186.305 485.703 179.572 483.648 171.988C481.593 164.334 480.6 156.254 480.671 147.749C480.884 135.133 483.613 124.502 488.857 115.855C494.102 107.208 501.296 100.652 510.439 96.1873C519.582 91.7222 530.071 89.4896 541.907 89.4896C556.508 89.4896 568.131 92.3955 576.778 98.2073C585.495 104.019 591.732 111.709 595.489 121.277C599.245 130.845 601.017 141.299 600.804 152.639C600.663 165.326 597.969 176.028 592.725 184.746C587.551 193.392 580.392 199.948 571.25 204.413C562.107 208.879 551.617 211.111 539.781 211.111ZM540.632 184.533C548.215 184.533 553.46 181.769 556.366 176.241C559.343 170.642 560.831 162.207 560.831 150.938C560.831 144.56 560.228 138.748 559.024 133.503C557.819 128.187 555.799 123.97 552.964 120.852C550.129 117.662 546.231 116.068 541.269 116.068C533.544 116.068 528.158 118.867 525.11 124.466C522.133 130.066 520.645 138.252 520.645 149.025C520.645 155.545 521.247 161.499 522.452 166.885C523.728 172.272 525.819 176.56 528.725 179.749C531.63 182.938 535.599 184.533 540.632 184.533ZM650.158 211.111L605.507 90.978H646.544L661.853 142.646L672.909 187.297H666.105L676.311 142.646L690.982 90.978L731.381 90.978L686.942 211.111H650.158ZM778.145 211.111C770.349 211.111 763.545 209.516 757.733 206.327C751.992 203.067 747.527 198.602 744.338 192.932C741.219 187.191 739.66 180.635 739.66 173.264C739.66 166.318 741.538 160.294 745.295 155.191C749.122 150.017 754.331 146.048 760.923 143.284C765.671 141.228 770.845 139.705 776.444 138.712C782.043 137.649 787.643 136.94 793.242 136.586C798.912 136.232 804.227 136.055 809.189 136.055L814.717 142.859L809.189 154.553C806.708 154.624 804.121 154.836 801.428 155.191C798.805 155.474 796.325 155.9 793.986 156.467C791.647 156.963 789.769 157.53 788.351 158.168C786.154 159.089 784.063 160.471 782.079 162.314C780.165 164.086 779.208 167.098 779.208 171.35C779.208 176.949 780.732 181.025 783.78 183.576C786.898 186.057 790.407 187.297 794.305 187.297C796.36 187.297 798.38 187.049 800.365 186.553C802.42 186.057 804.227 185.454 805.787 184.746C807.346 183.966 808.48 183.186 809.189 182.407L815.355 190.274L811.102 199.417C807.842 202.252 803.519 204.91 798.132 207.39C792.816 209.871 786.154 211.111 778.145 211.111ZM847.461 209.41H811.102L811.102 191.762H809.189L809.189 129.038C809.189 123.793 807.736 120.356 804.83 118.726C801.995 117.095 797.919 116.28 792.604 116.28C788.068 116.28 783.319 116.635 778.358 117.344C773.468 118.052 768.719 119.045 764.112 120.32C759.505 121.525 755.465 122.943 751.992 124.573L744.125 102.035C747.031 100.263 751.213 98.3845 756.67 96.4C762.198 94.3446 768.4 92.6081 775.275 91.1906C782.15 89.7731 789.131 89.0644 796.218 89.0644C808.622 89.0644 818.579 90.5173 826.092 93.4232C833.605 96.3291 839.027 101.042 842.358 107.563C845.76 114.083 847.461 122.801 847.461 133.716L847.461 209.41ZM915.328 211.111C906.823 211.111 900.019 209.694 894.916 206.859C889.884 204.024 886.234 199.771 883.966 194.101C881.769 188.36 880.67 181.202 880.67 172.626L880.67 116.28H867.062L867.062 95.8684C872.307 94.38 876.631 92.8562 880.033 91.297C883.435 89.6668 885.915 87.2216 887.474 83.9614C888.254 82.3313 889.104 80.3822 890.026 78.1142C890.947 75.8462 891.904 73.4719 892.896 70.9913C893.889 68.5106 894.845 66.1718 895.767 63.9746H919.156L919.156 90.978H949.774L949.774 116.28H919.156L919.156 158.38C919.156 165.751 919.545 171.138 920.325 174.54C921.175 177.942 922.593 180.103 924.577 181.025C926.562 181.946 929.291 182.407 932.764 182.407C934.535 182.407 936.555 182.194 938.823 181.769C941.091 181.273 943.253 180.67 945.308 179.962C947.364 179.253 948.994 178.509 950.199 177.729L954.664 198.992C952.821 200.834 949.88 202.712 945.84 204.626C941.871 206.469 937.229 208.028 931.913 209.304C926.597 210.509 921.069 211.111 915.328 211.111Z" fill="black"/>
<path d="M40.1189 209.41L42.967 192.143L42.8938 192.131L42.8205 192.12L40.1189 209.41ZM22.3647 205.583L17.1851 222.299L17.293 222.332L17.4012 222.364L22.3647 205.583ZM11.7335 201.33L-5.55044 198.589L-7.37145 210.069L2.50463 216.199L11.7335 201.33ZM16.6238 170.5L25.2619 155.28L3.29667 142.814L-0.660071 167.758L16.6238 170.5ZM27.2551 175.071L21.4856 191.593H21.4857L27.2551 175.071ZM42.0325 179.111L38.4274 196.236L38.5566 196.263L38.6863 196.288L42.0325 179.111ZM74.6705 177.516L65.3955 162.676L65.325 162.721L65.2548 162.765L74.6705 177.516ZM76.6904 158.699L63.3758 170.056L63.4597 170.154L63.545 170.251L76.6904 158.699ZM66.4844 151.364L58.2856 166.824L58.3335 166.85L58.3816 166.875L66.4844 151.364ZM47.6671 142.008L40.1107 157.793L40.1187 157.796L40.1267 157.8L47.6671 142.008ZM29.275 130.739L18.4708 144.506L18.5251 144.548L18.5797 144.59L29.275 130.739ZM15.7733 115.005L0.450728 123.458L0.47146 123.496L0.492375 123.534L15.7733 115.005ZM14.7102 74.1806L-0.901515 66.2734L-0.921998 66.3139L-0.942272 66.3544L14.7102 74.1806ZM26.2983 60.5726L16.0888 46.3594L16.0409 46.3938L15.9932 46.4285L26.2983 60.5726ZM44.1588 52.4929L48.5263 69.4391L48.608 69.418L48.6896 69.3962L44.1588 52.4929ZM96.1456 53.0244L101.058 36.228L101.058 36.228L96.1456 53.0244ZM111.667 58.8716L128.798 62.4458L131.339 50.2666L120.671 43.8655L111.667 58.8716ZM105.501 88.4265L94.7571 102.24L116.902 119.464L122.632 92.0006L105.501 88.4265ZM90.7236 81.6225L85.3511 98.2774L85.4577 98.3118L85.5647 98.3448L90.7236 81.6225ZM58.192 80.1341L63.726 96.7361L63.8909 96.6811L64.0547 96.6229L58.192 80.1341ZM51.0691 84.7056L37.3085 73.8937L37.3085 73.8937L51.0691 84.7056ZM51.4943 100.121L37.4463 110.557L37.6145 110.783L37.7899 111.004L51.4943 100.121ZM60.3183 107.35L51.2362 122.309L51.3922 122.404L51.5501 122.495L60.3183 107.35ZM75.9462 115.217L68.6913 131.143L68.7419 131.166L68.7925 131.188L75.9462 115.217ZM94.1257 124.573L85.122 139.579L85.1657 139.605L85.2095 139.631L94.1257 124.573ZM107.84 134.991L120.214 122.617L120.214 122.617L107.84 134.991ZM116.345 147.855L100.08 154.313L100.138 154.459L100.198 154.603L116.345 147.855ZM112.624 188.998L97.86 179.603L97.826 179.656L97.7925 179.71L112.624 188.998ZM93.1689 205.37L100.301 221.351L100.356 221.327L100.41 221.302L93.1689 205.37ZM61.7003 193.611C55.0682 193.611 48.8306 193.111 42.967 192.143L37.2708 226.677C45.157 227.978 53.307 228.611 61.7004 228.611L61.7003 193.611ZM42.8205 192.12C36.5597 191.142 31.431 190.015 27.3282 188.802L17.4012 222.364C23.3627 224.128 30.0701 225.552 37.4173 226.7L42.8205 192.12ZM27.5443 188.867C25.3202 188.178 23.6429 187.586 22.4321 187.102C21.1333 186.582 20.7748 186.345 20.9623 186.462L2.50463 216.199C6.59857 218.74 11.9941 220.69 17.1851 222.299L27.5443 188.867ZM29.0174 204.072L33.9078 173.241L-0.660071 167.758L-5.55044 198.589L29.0174 204.072ZM7.98575 185.719C11.8857 187.933 16.5184 189.858 21.4856 191.593L33.0245 158.55C29.0615 157.166 26.6068 156.044 25.2619 155.28L7.98575 185.719ZM21.4857 191.593C26.762 193.435 32.4229 194.972 38.4274 196.236L45.6377 161.986C40.8691 160.983 36.6784 159.826 33.0245 158.55L21.4857 191.593ZM38.6863 196.288C45.2398 197.565 51.8531 198.206 58.511 198.206L58.511 163.206C54.1124 163.206 49.74 162.784 45.3787 161.934L38.6863 196.288ZM58.511 198.206C66.7933 198.206 76.3966 197.176 84.0861 192.268L65.2548 162.765C65.9953 162.293 66.0694 162.478 64.7437 162.74C63.4801 162.989 61.4661 163.206 58.511 163.206L58.511 198.206ZM83.9454 192.356C93.3874 186.455 97.2735 176.846 97.2735 167.31H62.2735C62.2735 167.546 62.2334 166.768 62.8452 165.544C63.515 164.204 64.522 163.222 65.3955 162.676L83.9454 192.356ZM97.2735 167.31C97.2735 160.082 94.9663 152.985 89.8358 147.147L63.545 170.251C63.1477 169.799 62.7728 169.192 62.5268 168.505C62.2892 167.841 62.2735 167.389 62.2735 167.31H97.2735ZM90.005 147.343C85.8253 142.442 80.1399 138.753 74.5872 135.852L58.3816 166.875C60.2136 167.832 61.5096 168.64 62.3837 169.268C63.2839 169.915 63.5022 170.204 63.3758 170.056L90.005 147.343ZM74.6832 135.903C69.6952 133.258 63.1748 130.02 55.2075 126.216L40.1267 157.8C47.8937 161.509 53.9181 164.508 58.2856 166.824L74.6832 135.903ZM55.2235 126.224C49.6238 123.543 44.5521 120.425 39.9704 116.888L18.5797 144.59C25.1962 149.699 32.3859 154.094 40.1107 157.793L55.2235 126.224ZM40.0792 116.972C36.2679 113.981 33.3033 110.505 31.0543 106.476L0.492375 123.534C5.04734 131.695 11.0839 138.708 18.4708 144.506L40.0792 116.972ZM31.0959 106.551C29.3796 103.44 28.1703 99.1648 28.1703 93.1043H-6.82967C-6.82967 103.912 -4.63697 114.237 0.450728 123.458L31.0959 106.551ZM28.1703 93.1043C28.1703 88.053 29.1044 84.5234 30.3627 82.0069L-0.942272 66.3544C-5.07049 74.6108 -6.82967 83.6971 -6.82967 93.1043H28.1703ZM30.3219 82.0879C31.8309 79.1087 33.8713 76.7072 36.6033 74.7168L15.9932 46.4285C8.80269 51.6673 3.11779 58.3378 -0.901515 66.2734L30.3219 82.0879ZM36.5078 74.7859C39.5414 72.6068 43.4484 70.7479 48.5263 69.4391L39.7912 35.5467C31.1194 37.7817 23.1194 41.3092 16.0888 46.3594L36.5078 74.7859ZM48.6896 69.3962C53.8555 68.0115 59.9231 67.2288 67.016 67.2288L67.0159 32.2288C57.3823 32.2288 48.2117 33.2888 39.628 35.5896L48.6896 69.3962ZM67.016 67.2288C78.0301 67.2288 85.9167 68.266 91.2334 69.8209L101.058 36.228C91.349 33.3886 79.8158 32.2288 67.0159 32.2288L67.016 67.2288ZM91.2334 69.8209C94.7243 70.8418 97.4482 71.7409 99.4913 72.5106C100.505 72.8926 101.278 73.2152 101.845 73.4735C102.43 73.7401 102.668 73.8807 102.664 73.8778L120.671 43.8655C115.715 40.8921 108.588 38.4303 101.058 36.228L91.2334 69.8209ZM94.5361 55.2975L88.37 84.8524L122.632 92.0006L128.798 62.4458L94.5361 55.2975ZM116.245 74.6129C110.596 70.219 103.318 67.1942 95.8826 64.9002L85.5647 98.3448C91.4536 100.162 94.0276 101.673 94.7571 102.24L116.245 74.6129ZM96.0962 64.9676C87.7639 62.2798 79.1823 60.9331 70.418 60.9331L70.418 95.9331C75.5451 95.9331 80.5007 96.7128 85.3511 98.2774L96.0962 64.9676ZM70.418 60.9331C64.3028 60.9331 58.0587 61.6083 52.3293 63.6454L64.0547 96.6229C64.7041 96.392 66.6106 95.9331 70.418 95.9331L70.418 60.9331ZM52.658 63.5322C47.2758 65.3263 41.581 68.456 37.3085 73.8937L64.8296 95.5175C63.6757 96.9862 62.7295 97.0683 63.726 96.7361L52.658 63.5322ZM37.3085 73.8937C33.2266 79.0889 31.2302 85.2376 31.2302 91.6159L66.2302 91.6159C66.2302 92.0631 66.1593 92.74 65.8912 93.532C65.6204 94.332 65.2299 95.008 64.8297 95.5174L37.3085 73.8937ZM31.2302 91.6159C31.2302 98.4349 33.286 104.956 37.4463 110.557L65.5424 89.6852C65.711 89.9122 65.917 90.2718 66.0643 90.7252C66.2098 91.1727 66.2302 91.5023 66.2302 91.6159L31.2302 91.6159ZM37.7899 111.004C41.4714 115.64 46.3066 119.316 51.2362 122.309L69.4004 92.3914C66.3919 90.5648 65.3445 89.4215 65.1988 89.238L37.7899 111.004ZM51.5501 122.495C56.2591 125.221 62.0242 128.105 68.6913 131.143L83.2011 99.2919C77.1107 96.5174 72.4572 94.1567 69.0864 92.2052L51.5501 122.495ZM68.7925 131.188C75.0838 134.006 80.5083 136.811 85.122 139.579L103.129 109.567C97.1117 105.956 90.4166 102.523 83.0999 99.2462L68.7925 131.188ZM85.2095 139.631C89.5529 142.203 92.9097 144.81 95.4656 147.366L120.214 122.617C115.257 117.66 109.471 113.321 103.042 109.514L85.2095 139.631ZM95.4656 147.366C97.5779 149.478 99.0685 151.765 100.08 154.313L132.61 141.397C129.794 134.306 125.615 128.018 120.214 122.617L95.4656 147.366ZM100.198 154.603C101.122 156.813 101.822 159.934 101.822 164.334L136.822 164.334C136.822 156.259 135.537 148.395 132.492 141.107L100.198 154.603ZM101.822 164.334C101.822 170.888 100.308 175.756 97.86 179.603L127.388 198.393C133.87 188.207 136.822 176.632 136.822 164.334L101.822 164.334ZM97.7925 179.71C95.4643 183.427 91.8203 186.76 85.9273 189.439L100.41 221.302C111.669 216.184 120.995 208.602 127.456 198.287L97.7925 179.71ZM86.0369 189.389C80.3021 191.949 72.3964 193.611 61.7003 193.611L61.7004 228.611C75.8106 228.611 88.8839 226.446 100.301 221.351L86.0369 189.389ZM143.908 261.929H126.408L126.408 279.429H143.908L143.908 261.929ZM143.908 90.978L143.908 73.478H126.408L126.408 90.978H143.908ZM180.267 90.978L197.767 90.978L197.767 73.478L180.267 73.478L180.267 90.978ZM180.267 105.437H162.767L162.767 111.772L166.823 116.64L180.267 105.437ZM182.393 107.988L199.893 107.988L199.893 101.652L195.837 96.7848L182.393 107.988ZM182.393 194.101L199.88 194.787L199.893 194.444L199.893 194.101H182.393ZM181.968 204.945L164.481 204.259L164.46 204.799L164.472 205.338L181.968 204.945ZM182.393 223.869H199.893L199.893 223.672L199.889 223.475L182.393 223.869ZM182.393 261.929L182.393 279.429H199.893L199.893 261.929H182.393ZM184.307 208.879L178.455 225.371L178.613 225.427L178.773 225.481L184.307 208.879ZM175.802 205.158L158.915 200.566L155.737 212.253L165.556 219.345L175.802 205.158ZM182.393 180.918L194.768 168.544L173.426 147.203L165.506 176.326L182.393 180.918ZM188.985 184.214L184.838 201.216L185.035 201.264L185.233 201.307L188.985 184.214ZM210.46 180.918L199.393 167.362L199.325 167.418L199.257 167.475L210.46 180.918ZM218.646 168.48L235.092 174.46L235.105 174.426L235.117 174.392L218.646 168.48ZM221.729 148.174L239.228 148.329L239.229 148.252L239.229 148.174H221.729ZM216.413 124.573L202.791 135.558L202.835 135.613L202.879 135.667L216.413 124.573ZM190.792 119.895L196.425 136.464L196.521 136.431L196.616 136.397L190.792 119.895ZM182.393 124.148L165.247 127.65L170.949 155.559L193.268 137.859L182.393 124.148ZM178.353 104.373L165.475 92.5249L159.417 99.1097L161.208 107.876L178.353 104.373ZM185.37 98.2073L174.716 84.3244L174.716 84.3244L185.37 98.2073ZM197.171 92.1475L202.995 108.65L203.102 108.612L203.209 108.573L197.171 92.1475ZM238.314 95.6558L229.599 110.831L229.656 110.864L229.713 110.896L238.314 95.6558ZM255.536 114.26L239.991 122.297L240.031 122.376L240.073 122.455L255.536 114.26ZM254.579 180.599L270.117 188.652L270.129 188.629L270.141 188.606L254.579 180.599ZM233.317 203.138L224.521 188.009L224.495 188.024L224.47 188.039L233.317 203.138ZM161.408 261.929L161.408 90.978H126.408L126.408 261.929H161.408ZM143.908 108.478H180.267L180.267 73.478H143.908L143.908 108.478ZM162.767 90.978L162.767 105.437L197.767 105.437L197.767 90.978L162.767 90.978ZM166.823 116.64L168.949 119.191L195.837 96.7848L193.711 94.2333L166.823 116.64ZM164.893 107.988L164.893 194.101H199.893L199.893 107.988L164.893 107.988ZM164.907 193.415L164.481 204.259L199.455 205.631L199.88 194.787L164.907 193.415ZM164.472 205.338L164.898 224.262L199.889 223.475L199.464 204.552L164.472 205.338ZM164.893 223.869L164.893 261.929H199.893L199.893 223.869H164.893ZM182.393 244.429H143.908L143.908 279.429H182.393L182.393 244.429ZM201.53 193.611C195.564 193.611 191.875 192.955 189.841 192.277L178.773 225.481C185.669 227.779 193.462 228.611 201.53 228.611L201.53 193.611ZM190.159 192.386C188.18 191.684 186.796 191.139 185.899 190.746C185.457 190.553 185.242 190.443 185.196 190.42C185.104 190.371 185.465 190.55 186.048 190.971L165.556 219.345C169.197 221.974 174.455 223.952 178.455 225.371L190.159 192.386ZM192.689 209.75L199.28 185.51L165.506 176.326L158.915 200.566L192.689 209.75ZM170.019 193.293C174.535 197.809 180.062 200.051 184.838 201.216L193.131 167.212C192.687 167.104 192.689 167.059 192.984 167.206C193.293 167.361 193.981 167.757 194.768 168.544L170.019 193.293ZM185.233 201.307C189.555 202.256 194.022 202.671 198.553 202.671L198.553 167.671C196.137 167.671 194.226 167.448 192.737 167.121L185.233 201.307ZM198.553 202.671C207.074 202.671 215.034 199.887 221.663 194.362L199.257 167.475C199.144 167.569 199.077 167.609 199.057 167.621C199.038 167.631 199.038 167.63 199.046 167.627C199.053 167.625 199.034 167.633 198.971 167.643C198.907 167.654 198.773 167.671 198.553 167.671L198.553 202.671ZM221.526 194.475C228.064 189.139 232.342 182.025 235.092 174.46L202.199 162.499C200.981 165.85 199.802 167.028 199.393 167.362L221.526 194.475ZM235.117 174.392C237.957 166.48 239.146 157.637 239.228 148.329L204.23 148.019C204.17 154.729 203.304 159.423 202.175 162.567L235.117 174.392ZM239.229 148.174C239.229 136.242 237.638 122.862 229.948 113.479L202.879 135.667C202.33 134.997 202.794 135.192 203.328 137.561C203.839 139.832 204.229 143.275 204.229 148.174H239.229ZM230.035 113.587C222.878 104.711 212.859 100.481 201.955 100.481L201.955 135.481C202.427 135.481 202.708 135.524 202.834 135.549C202.953 135.573 202.954 135.586 202.882 135.553C202.806 135.518 202.732 135.472 202.684 135.433C202.639 135.398 202.679 135.42 202.791 135.558L230.035 113.587ZM201.955 100.481C196.14 100.481 190.45 101.458 184.968 103.393L196.616 136.397C198.363 135.781 200.115 135.481 201.955 135.481L201.955 100.481ZM185.159 103.326C180.459 104.924 175.66 107.152 171.519 110.436L193.268 137.859C193.213 137.902 193.393 137.751 193.94 137.475C194.482 137.2 195.289 136.85 196.425 136.464L185.159 103.326ZM199.539 120.645L195.499 100.87L161.208 107.876L165.247 127.65L199.539 120.645ZM191.232 116.222C191.902 115.493 193.365 114.131 196.024 112.09L174.716 84.3244C171.28 86.9609 168.065 89.7095 165.475 92.5249L191.232 116.222ZM196.024 112.09C197.218 111.174 199.376 109.927 202.995 108.65L191.346 75.6451C185.326 77.7698 179.618 80.5624 174.716 84.3244L196.024 112.09ZM203.209 108.573C205.529 107.72 209.265 106.99 214.925 106.99L214.925 71.9896C206.551 71.9896 198.451 73.0316 191.132 75.7223L203.209 108.573ZM214.925 106.99C220.371 106.99 225.152 108.278 229.599 110.831L247.028 80.48C237.158 74.8121 226.348 71.9896 214.925 71.9896L214.925 106.99ZM229.713 110.896C233.49 113.028 236.998 116.508 239.991 122.297L271.082 106.224C265.428 95.2868 257.454 86.3632 246.915 80.4153L229.713 110.896ZM240.073 122.455C242.736 127.48 244.628 134.955 244.628 145.835H279.628C279.628 131.2 277.125 117.626 270.999 106.066L240.073 122.455ZM244.628 145.835C244.628 157.045 242.528 165.772 239.018 172.593L270.141 188.606C276.695 175.866 279.628 161.417 279.628 145.835H244.628ZM239.042 172.547C235.484 179.412 230.689 184.423 224.521 188.009L242.113 218.267C254.231 211.221 263.61 201.207 270.117 188.652L239.042 172.547ZM224.47 188.039C218.468 191.555 211.021 193.611 201.53 193.611L201.53 228.611C216.277 228.611 230.022 225.351 242.164 218.237L224.47 188.039ZM308.646 206.114L301.483 222.081L301.573 222.122L301.663 222.161L308.646 206.114ZM290.36 192.188L304.138 181.398L290.36 192.188ZM280.367 171.988L263.466 176.526L263.471 176.546L263.476 176.566L280.367 171.988ZM277.39 147.749L259.893 147.454L259.891 147.529L259.891 147.603L277.39 147.749ZM285.576 115.855L300.539 124.931L285.576 115.855ZM307.158 96.1873L299.478 80.4624L307.158 96.1873ZM373.497 98.2073L363.735 112.731L363.762 112.75L363.789 112.768L373.497 98.2073ZM392.208 121.277L408.497 114.882L408.497 114.882L392.208 121.277ZM397.523 152.639L380.026 152.311L380.025 152.377L380.024 152.444L397.523 152.639ZM389.444 184.746L374.448 175.724L374.437 175.742L374.427 175.76L389.444 184.746ZM367.968 204.413L375.648 220.138L367.968 204.413ZM353.085 176.241L337.633 168.026L337.613 168.062L337.594 168.098L353.085 176.241ZM355.742 133.503L338.675 137.372L338.681 137.396L338.687 137.421L355.742 133.503ZM349.683 120.852L336.603 132.478L336.668 132.551L336.734 132.624L349.683 120.852ZM321.829 124.466L306.458 116.1L306.417 116.176L306.377 116.251L321.829 124.466ZM319.171 166.885L302.093 170.705L302.117 170.812L302.142 170.918L319.171 166.885ZM325.443 179.749L338.379 167.963L325.443 179.749ZM336.5 193.611C327.283 193.611 320.515 192.194 315.629 190.068L301.663 222.161C312.086 226.697 323.887 228.611 336.5 228.611L336.5 193.611ZM315.809 190.147C310.522 187.776 306.803 184.801 304.138 181.398L276.582 202.977C283.131 211.34 291.603 217.649 301.483 222.081L315.809 190.147ZM304.138 181.398C301.047 177.451 298.733 172.855 297.258 167.41L263.476 176.566C266.111 186.289 270.459 195.159 276.582 202.977L304.138 181.398ZM297.268 167.45C295.652 161.43 294.831 154.934 294.89 147.895L259.891 147.603C259.808 157.574 260.971 167.237 263.466 176.526L297.268 167.45ZM294.888 148.044C295.061 137.768 297.255 130.345 300.539 124.931L270.614 106.779C263.408 118.659 260.145 132.498 259.893 147.454L294.888 148.044ZM300.539 124.931C304.032 119.171 308.69 114.915 314.837 111.912L299.478 80.4624C287.34 86.3903 277.61 95.2453 270.614 106.779L300.539 124.931ZM314.837 111.912C321.227 108.792 329.018 106.99 338.626 106.99L338.626 71.9896C324.562 71.9896 311.374 74.6529 299.478 80.4624L314.837 111.912ZM338.626 106.99C351.094 106.99 358.918 109.494 363.735 112.731L383.259 83.6831C370.782 75.2969 355.359 71.9896 338.626 71.9896L338.626 106.99ZM363.789 112.768C369.591 116.636 373.496 121.503 375.918 127.672L408.497 114.882C403.407 101.915 394.838 91.4022 383.204 83.6464L363.789 112.768ZM375.918 127.672C378.751 134.889 380.2 143.031 380.026 152.311L415.02 152.967C415.271 139.567 413.177 126.801 408.497 114.882L375.918 127.672ZM380.024 152.444C379.909 162.779 377.737 170.258 374.448 175.724L404.439 193.767C411.64 181.798 414.854 167.872 415.022 152.835L380.024 152.444ZM374.427 175.76C371.012 181.467 366.416 185.696 360.289 188.689L375.648 220.138C387.806 214.201 397.527 205.318 404.461 193.731L374.427 175.76ZM360.289 188.689C353.899 191.809 346.108 193.611 336.5 193.611L336.5 228.611C350.564 228.611 363.752 225.948 375.648 220.138L360.289 188.689ZM337.35 202.033C349.767 202.033 361.94 197.006 368.575 184.383L337.594 168.098C337.605 168.078 337.72 167.872 337.986 167.601C338.258 167.324 338.558 167.113 338.813 166.978C339.31 166.716 339.071 167.033 337.35 167.033L337.35 202.033ZM368.537 184.456C373.534 175.056 375.05 163.165 375.05 150.938H340.05C340.05 161.25 338.589 166.227 337.633 168.026L368.537 184.456ZM375.05 150.938C375.05 143.476 374.347 136.325 372.798 129.585L338.687 137.421C339.548 141.17 340.05 145.643 340.05 150.938H375.05ZM372.81 129.634C371.128 122.216 368.01 114.996 362.632 109.08L336.734 132.624C337.026 132.945 337.947 134.159 338.675 137.372L372.81 129.634ZM362.762 109.225C356.054 101.679 347.052 98.5678 337.988 98.5678L337.988 133.568C338.594 133.568 338.5 133.663 338.007 133.461C337.766 133.362 337.493 133.218 337.221 133.024C336.95 132.832 336.743 132.636 336.603 132.478L362.762 109.225ZM337.988 98.5678C325.469 98.5678 313.272 103.582 306.458 116.1L337.199 132.833C337.211 132.811 337.126 132.969 336.901 133.192C336.671 133.421 336.423 133.593 336.225 133.695C335.838 133.896 336.189 133.568 337.988 133.568L337.988 98.5678ZM306.377 116.251C301.422 125.571 299.864 137.137 299.864 149.025H334.864C334.864 139.367 336.282 134.56 337.281 132.681L306.377 116.251ZM299.864 149.025C299.864 156.606 300.563 163.863 302.093 170.705L336.249 163.065C335.37 159.134 334.864 154.485 334.864 149.025H299.864ZM302.142 170.918C303.913 178.396 307.114 185.615 312.507 191.535L338.379 167.963C337.962 167.504 336.98 166.147 336.2 162.852L302.142 170.918ZM312.507 191.535C319.289 198.979 328.292 202.033 337.35 202.033L337.35 167.033C336.682 167.033 336.702 166.929 337.124 167.099C337.329 167.181 337.571 167.306 337.818 167.478C338.064 167.649 338.252 167.823 338.379 167.963L312.507 191.535ZM393.058 259.377H375.558L375.558 271.99L387.524 275.979L393.058 259.377ZM393.058 235.138L400.884 219.485L375.558 206.822L375.558 235.138L393.058 235.138ZM398.799 236.52L401.744 219.269L401.71 219.264L401.676 219.258L398.799 236.52ZM417.723 231.311L402.837 222.109L402.8 222.168L402.764 222.228L417.723 231.311ZM421.337 90.978L421.337 73.478H403.837L403.837 90.978H421.337ZM458.972 90.978H476.472L476.472 73.478H458.972L458.972 90.978ZM453.444 237.477L437.267 230.801L453.444 237.477ZM437.709 256.507L429.251 241.186L437.709 256.507ZM405.816 261.61L408.041 244.252L407.821 244.224L407.601 244.201L405.816 261.61ZM398.161 260.546L395.031 277.764L398.161 260.546ZM423.251 70.9913L411.222 83.7014L411.338 83.8116L411.457 83.9197L423.251 70.9913ZM428.885 38.247L437.331 53.5742L437.384 53.5452L437.436 53.5159L428.885 38.247ZM455.676 40.7985L443.537 53.4041L443.656 53.5185L443.777 53.6307L455.676 40.7985ZM454.826 70.1408L442.757 57.4684L454.826 70.1408ZM410.558 259.377L410.558 235.138L375.558 235.138L375.558 259.377H410.558ZM385.232 250.79C387.535 251.942 389.854 252.532 391.035 252.816C392.547 253.18 394.215 253.497 395.922 253.782L401.676 219.258C401.061 219.155 400.547 219.062 400.126 218.98C399.7 218.897 399.408 218.832 399.227 218.788C399.032 218.741 399.057 218.741 399.237 218.798C399.334 218.829 399.519 218.891 399.77 218.989C400.012 219.083 400.402 219.244 400.884 219.485L385.232 250.79ZM395.854 253.77C399.615 254.412 403.369 254.764 407.091 254.764L407.091 219.764C405.569 219.764 403.795 219.62 401.744 219.269L395.854 253.77ZM407.091 254.764C417.828 254.764 427.07 249.636 432.681 240.393L402.764 222.228C402.898 222.007 403.487 221.19 404.707 220.507C405.921 219.827 406.895 219.764 407.091 219.764L407.091 254.764ZM432.608 240.512C435.541 235.769 436.936 230.382 437.704 225.682C438.511 220.749 438.837 215.183 438.837 209.198H403.837C403.837 214.056 403.561 217.597 403.163 220.036C402.726 222.706 402.314 222.954 402.837 222.109L432.608 240.512ZM438.837 209.198L438.837 90.978H403.837L403.837 209.198H438.837ZM421.337 108.478L458.972 108.478L458.972 73.478L421.337 73.478L421.337 108.478ZM441.472 90.978L441.472 200.905H476.472L476.472 90.978L441.472 90.978ZM441.472 200.905C441.472 215.277 439.712 224.876 437.267 230.801L469.62 244.153C474.546 232.217 476.472 217.435 476.472 200.905H441.472ZM437.267 230.801C434.72 236.972 431.798 239.781 429.251 241.186L446.167 271.827C457.229 265.72 464.796 255.842 469.62 244.153L437.267 230.801ZM429.251 241.186C425.516 243.248 420.468 244.641 413.47 244.641L413.47 279.641C425.183 279.641 436.294 277.278 446.167 271.827L429.251 241.186ZM413.47 244.641C412 244.641 410.202 244.529 408.041 244.252L403.59 278.968C406.957 279.399 410.263 279.641 413.47 279.641L413.47 244.641ZM407.601 244.201C405.215 243.956 403.118 243.661 401.292 243.329L395.031 277.764C397.882 278.283 400.888 278.696 404.03 279.018L407.601 244.201ZM401.292 243.329C400.297 243.148 399.559 242.996 399.04 242.877C398.473 242.747 398.382 242.705 398.592 242.775L387.524 275.979C389.838 276.75 392.57 277.317 395.031 277.764L401.292 243.329ZM438.56 59.0195C436.159 59.0195 435.444 58.4271 435.045 58.0629L411.457 83.9197C419.137 90.9265 428.629 94.0195 438.56 94.0195L438.56 59.0195ZM435.28 58.2811C435.1 58.1109 435.015 57.999 434.983 57.9523C434.952 57.9082 434.941 57.8842 434.932 57.8646C434.931 57.8617 434.797 57.5667 434.797 56.7454L399.797 56.7454C399.797 67.0219 403.567 76.4569 411.222 83.7014L435.28 58.2811ZM434.797 56.7454C434.797 56.2366 434.876 55.9798 435.145 55.5675L405.829 36.4481C401.845 42.5564 399.797 49.4579 399.797 56.7454L434.797 56.7454ZM435.145 55.5675C435.674 54.7563 436.321 54.1305 437.331 53.5742L420.44 22.9198C414.504 26.1908 409.552 30.7389 405.829 36.4481L435.145 55.5675ZM437.436 53.5159C438.288 53.0387 439.194 52.7703 440.473 52.7703L440.473 17.7703C433.39 17.7703 426.57 19.4863 420.335 22.9781L437.436 53.5159ZM440.473 52.7703C441.927 52.7703 442.703 52.9816 443.025 53.0987C443.295 53.197 443.412 53.2837 443.537 53.4041L467.815 28.1929C460.129 20.7912 450.404 17.7703 440.473 17.7703L440.473 52.7703ZM443.777 53.6307C443.878 53.7243 443.903 53.765 443.892 53.7495C443.88 53.7325 443.871 53.7135 443.872 53.7158C443.874 53.7211 443.909 53.8045 443.945 54.0008C443.982 54.2017 444.023 54.54 444.023 55.0444H479.023C479.023 44.8676 475.446 35.265 467.575 27.9663L443.777 53.6307ZM444.023 55.0444C444.023 55.7497 443.99 56.2936 442.757 57.4684L466.895 82.8132C474.591 75.4829 479.023 65.9626 479.023 55.0444H444.023ZM442.757 57.4684C441.668 58.5053 440.617 59.0195 438.56 59.0195L438.56 94.0195C449.26 94.0195 459.053 90.2812 466.895 82.8132L442.757 57.4684ZM511.927 206.114L504.764 222.081L504.854 222.122L504.944 222.161L511.927 206.114ZM493.641 192.188L507.419 181.398L493.641 192.188ZM483.648 171.988L466.747 176.526L466.752 176.546L466.757 176.566L483.648 171.988ZM480.671 147.749L463.174 147.454L463.173 147.529L463.172 147.603L480.671 147.749ZM488.857 115.855L503.82 124.931L488.857 115.855ZM510.439 96.1873L502.759 80.4624L510.439 96.1873ZM576.778 98.2073L567.016 112.731L567.043 112.75L567.071 112.768L576.778 98.2073ZM595.489 121.277L611.778 114.882L611.778 114.882L595.489 121.277ZM600.804 152.639L583.307 152.311L583.306 152.377L583.306 152.444L600.804 152.639ZM592.725 184.746L577.729 175.724L577.718 175.742L577.708 175.76L592.725 184.746ZM571.25 204.413L578.929 220.138L571.25 204.413ZM556.366 176.241L540.914 168.026L540.895 168.062L540.875 168.098L556.366 176.241ZM559.024 133.503L541.957 137.372L541.962 137.396L541.968 137.421L559.024 133.503ZM552.964 120.852L539.884 132.478L539.949 132.551L540.015 132.624L552.964 120.852ZM525.11 124.466L509.739 116.1L509.698 116.176L509.658 116.251L525.11 124.466ZM522.452 166.885L505.374 170.705L505.398 170.812L505.423 170.918L522.452 166.885ZM528.725 179.749L541.66 167.963L528.725 179.749ZM539.781 193.611C530.564 193.611 523.796 192.194 518.91 190.068L504.944 222.161C515.367 226.697 527.168 228.611 539.781 228.611L539.781 193.611ZM519.09 190.147C513.803 187.776 510.084 184.801 507.419 181.398L479.864 202.977C486.412 211.34 494.884 217.649 504.764 222.081L519.09 190.147ZM507.419 181.398C504.329 177.451 502.014 172.855 500.539 167.41L466.757 176.566C469.393 186.289 473.741 195.159 479.864 202.977L507.419 181.398ZM500.549 167.45C498.933 161.43 498.112 154.934 498.171 147.895L463.172 147.603C463.089 157.574 464.252 167.237 466.747 176.526L500.549 167.45ZM498.169 148.044C498.342 137.768 500.536 130.345 503.82 124.931L473.895 106.779C466.689 118.659 463.426 132.498 463.174 147.454L498.169 148.044ZM503.82 124.931C507.313 119.171 511.971 114.915 518.118 111.912L502.759 80.4624C490.621 86.3903 480.891 95.2453 473.895 106.779L503.82 124.931ZM518.118 111.912C524.509 108.792 532.299 106.99 541.907 106.99L541.907 71.9896C527.843 71.9896 514.655 74.6529 502.759 80.4624L518.118 111.912ZM541.907 106.99C554.375 106.99 562.199 109.494 567.016 112.731L586.54 83.6831C574.063 75.2969 558.64 71.9896 541.907 71.9896L541.907 106.99ZM567.071 112.768C572.872 116.636 576.777 121.503 579.199 127.672L611.778 114.882C606.688 101.915 598.119 91.4022 586.485 83.6464L567.071 112.768ZM579.199 127.672C582.032 134.889 583.481 143.031 583.307 152.311L618.301 152.967C618.553 139.567 616.458 126.801 611.778 114.882L579.199 127.672ZM583.306 152.444C583.19 162.779 581.018 170.258 577.729 175.724L607.72 193.767C614.921 181.798 618.135 167.872 618.303 152.835L583.306 152.444ZM577.708 175.76C574.293 181.467 569.697 185.696 563.57 188.689L578.929 220.138C591.087 214.201 600.809 205.318 607.742 193.731L577.708 175.76ZM563.57 188.689C557.18 191.809 549.389 193.611 539.781 193.611L539.781 228.611C553.845 228.611 567.034 225.948 578.929 220.138L563.57 188.689ZM540.632 202.033C553.048 202.033 565.221 197.006 571.856 184.383L540.875 168.098C540.886 168.078 541.001 167.872 541.267 167.601C541.539 167.324 541.839 167.113 542.094 166.978C542.591 166.716 542.353 167.033 540.632 167.033L540.632 202.033ZM571.818 184.456C576.815 175.056 578.331 163.165 578.331 150.938H543.331C543.331 161.25 541.87 166.227 540.914 168.026L571.818 184.456ZM578.331 150.938C578.331 143.476 577.628 136.325 576.079 129.585L541.968 137.421C542.829 141.17 543.331 145.643 543.331 150.938H578.331ZM576.091 129.634C574.409 122.216 571.291 114.996 565.913 109.08L540.015 132.624C540.307 132.945 541.228 134.159 541.957 137.372L576.091 129.634ZM566.043 109.225C559.335 101.679 550.334 98.5678 541.269 98.5678L541.269 133.568C541.875 133.568 541.781 133.663 541.288 133.461C541.047 133.362 540.774 133.218 540.502 133.024C540.231 132.832 540.024 132.636 539.884 132.478L566.043 109.225ZM541.269 98.5678C528.751 98.5678 516.553 103.582 509.739 116.1L540.481 132.833C540.492 132.811 540.407 132.969 540.182 133.192C539.953 133.421 539.704 133.593 539.506 133.695C539.119 133.896 539.47 133.568 541.269 133.568L541.269 98.5678ZM509.658 116.251C504.703 125.571 503.145 137.137 503.145 149.025H538.145C538.145 139.367 539.563 134.56 540.562 132.681L509.658 116.251ZM503.145 149.025C503.145 156.606 503.844 163.863 505.374 170.705L539.53 163.065C538.651 159.134 538.145 154.485 538.145 149.025H503.145ZM505.423 170.918C507.194 178.396 510.395 185.615 515.789 191.535L541.66 167.963C541.243 167.504 540.261 166.147 539.481 162.852L505.423 170.918ZM515.789 191.535C522.57 198.979 531.573 202.033 540.632 202.033L540.632 167.033C539.963 167.033 539.984 166.929 540.405 167.099C540.611 167.181 540.853 167.306 541.099 167.478C541.345 167.649 541.533 167.823 541.66 167.963L515.789 191.535ZM650.158 211.111L633.755 217.208L637.993 228.611L650.158 228.611L650.158 211.111ZM605.507 90.978L605.507 73.478H580.333L589.103 97.0749L605.507 90.978ZM646.544 90.978L663.323 86.0065L659.611 73.478H646.544L646.544 90.978ZM661.853 142.646L678.84 138.44L678.744 138.055L678.632 137.674L661.853 142.646ZM672.909 187.297L672.909 204.797H695.271L689.896 183.091L672.909 187.297ZM666.105 187.297L649.045 183.398L644.154 204.797H666.105L666.105 187.297ZM676.311 142.646L659.477 137.866L659.353 138.303L659.251 138.746L676.311 142.646ZM690.982 90.978L690.982 73.478H677.76L674.148 86.1979L690.982 90.978ZM731.381 90.978L747.794 97.0494L756.513 73.478H731.381L731.381 90.978ZM686.942 211.111L686.942 228.611H699.128L703.356 217.183L686.942 211.111ZM666.562 205.014L621.911 84.8811L589.103 97.0749L633.755 217.208L666.562 205.014ZM605.507 108.478H646.544L646.544 73.478H605.507L605.507 108.478ZM629.765 95.9496L645.074 147.617L678.632 137.674L663.323 86.0065L629.765 95.9496ZM644.866 146.852L655.922 191.503L689.896 183.091L678.84 138.44L644.866 146.852ZM672.909 169.797H666.105L666.105 204.797H672.909L672.909 169.797ZM683.165 191.197L693.371 146.545L659.251 138.746L649.045 183.398L683.165 191.197ZM693.146 147.426L707.817 95.7582L674.148 86.1979L659.477 137.866L693.146 147.426ZM690.982 108.478L731.381 108.478L731.381 73.478L690.982 73.478L690.982 108.478ZM714.968 84.9066L670.529 205.04L703.356 217.183L747.794 97.0494L714.968 84.9066ZM686.942 193.611H650.158L650.158 228.611H686.942L686.942 193.611ZM757.733 206.327L749.091 221.544L749.202 221.607L749.314 221.669L757.733 206.327ZM744.338 192.932L728.96 201.285L729.022 201.399L729.085 201.511L744.338 192.932ZM745.295 155.191L731.226 144.784L731.213 144.8L731.201 144.816L745.295 155.191ZM760.923 143.284L767.69 159.422L767.782 159.384L767.874 159.344L760.923 143.284ZM776.444 138.712L779.498 155.944L779.603 155.925L779.709 155.905L776.444 138.712ZM793.242 136.586L792.15 119.12L792.136 119.121L793.242 136.586ZM809.189 136.055L822.771 125.019L817.518 118.555H809.189L809.189 136.055ZM814.717 142.859L830.538 150.338L835.247 140.375L828.299 131.823L814.717 142.859ZM809.189 154.553L809.688 172.046L820.421 171.739L825.01 162.032L809.189 154.553ZM801.428 155.191L803.309 172.589L803.51 172.568L803.711 172.541L801.428 155.191ZM793.986 156.467L797.617 173.586L797.864 173.533L798.109 173.474L793.986 156.467ZM788.351 158.168L795.119 174.306L795.327 174.219L795.533 174.126L788.351 158.168ZM782.079 162.314L793.968 175.155L793.978 175.146L793.987 175.138L782.079 162.314ZM783.78 183.576L772.546 196.994L772.714 197.135L772.886 197.272L783.78 183.576ZM800.365 186.553L796.258 169.542L796.189 169.558L796.12 169.575L800.365 186.553ZM805.787 184.746L813.028 200.677L813.323 200.543L813.613 200.398L805.787 184.746ZM809.189 182.407L822.962 171.611L810.179 155.302L796.24 170.635L809.189 182.407ZM815.355 190.274L831.222 197.654L835.748 187.924L829.128 179.478L815.355 190.274ZM811.102 199.417L822.585 212.622L825.398 210.177L826.97 206.797L811.102 199.417ZM798.132 207.39L790.812 191.495L790.772 191.513L790.732 191.532L798.132 207.39ZM847.461 209.41L847.461 226.91H864.961L864.961 209.41H847.461ZM811.102 209.41H793.602L793.602 226.91H811.102L811.102 209.41ZM811.102 191.762H828.602L828.602 174.262H811.102L811.102 191.762ZM809.189 191.762H791.689L791.689 209.262H809.189L809.189 191.762ZM804.83 118.726L796.106 133.896L796.187 133.943L796.268 133.988L804.83 118.726ZM778.358 117.344L775.883 100.019L775.865 100.022L775.848 100.024L778.358 117.344ZM764.112 120.32L768.54 137.251L768.661 137.219L768.782 137.186L764.112 120.32ZM751.992 124.573L735.47 130.34L741.864 148.659L759.428 140.414L751.992 124.573ZM744.125 102.035L735.015 87.0931L722.944 94.4535L727.603 107.802L744.125 102.035ZM756.67 96.3999L762.651 112.846L762.71 112.825L762.769 112.803L756.67 96.3999ZM775.275 91.1906L771.741 74.0512L771.741 74.0512L775.275 91.1906ZM842.358 107.563L826.774 115.524L826.808 115.591L826.843 115.658L842.358 107.563ZM778.145 193.611C772.773 193.611 768.964 192.528 766.153 190.985L749.314 221.669C758.126 226.505 767.925 228.611 778.145 228.611L778.145 193.611ZM766.375 191.11C763.357 189.396 761.196 187.207 759.59 184.352L729.085 201.511C733.858 209.997 740.628 216.738 749.091 221.544L766.375 191.11ZM759.716 184.578C758.16 181.716 757.16 178.097 757.16 173.264H722.16C722.16 183.173 724.278 192.666 728.96 201.285L759.716 184.578ZM757.16 173.264C757.16 169.673 758.059 167.371 759.388 165.565L731.201 144.816C725.018 153.217 722.16 162.964 722.16 173.264H757.16ZM759.364 165.598C761.115 163.23 763.674 161.106 767.69 159.422L754.155 127.145C744.988 130.989 737.128 136.804 731.226 144.784L759.364 165.598ZM767.874 159.344C771.257 157.88 775.108 156.722 779.498 155.944L773.391 121.481C766.582 122.687 760.085 124.577 753.971 127.224L767.874 159.344ZM779.709 155.905C784.606 154.975 789.484 154.359 794.347 154.051L792.136 119.121C785.801 119.522 779.481 120.323 773.18 121.52L779.709 155.905ZM794.333 154.052C799.691 153.717 804.639 153.555 809.189 153.555L809.189 118.555C803.816 118.555 798.133 118.746 792.15 119.12L794.333 154.052ZM795.607 147.09L801.135 153.894L828.299 131.823L822.771 125.019L795.607 147.09ZM798.896 135.379L793.367 147.074L825.01 162.032L830.538 150.338L798.896 135.379ZM808.689 137.06C805.559 137.149 802.375 137.415 799.145 137.84L803.711 172.541C805.867 172.257 807.857 172.098 809.688 172.046L808.689 137.06ZM799.547 137.792C796.24 138.15 793.006 138.697 789.863 139.459L798.109 173.474C799.643 173.102 801.37 172.799 803.309 172.589L799.547 137.792ZM790.355 139.347C787.372 139.98 784.161 140.863 781.17 142.209L795.533 174.126C795.4 174.186 795.488 174.136 795.881 174.017C796.261 173.902 796.829 173.753 797.617 173.586L790.355 139.347ZM781.584 142.029C777.252 143.846 773.458 146.438 770.171 149.49L793.987 175.138C794.669 174.504 795.057 174.332 795.119 174.306L781.584 142.029ZM770.189 149.473C762.985 156.143 761.708 165.192 761.708 171.35H796.708C796.708 170.443 796.822 170.517 796.605 171.2C796.36 171.971 795.66 173.588 793.968 175.155L770.189 149.473ZM761.708 171.35C761.708 179.923 764.099 189.923 772.546 196.994L795.014 170.158C795.476 170.545 795.872 170.987 796.185 171.44C796.492 171.886 796.661 172.258 796.743 172.477C796.89 172.872 796.708 172.629 796.708 171.35H761.708ZM772.886 197.272C779.026 202.156 786.355 204.797 794.305 204.797L794.305 169.797C794.262 169.797 794.28 169.794 794.345 169.805C794.411 169.816 794.494 169.836 794.583 169.868C794.671 169.899 794.732 169.93 794.76 169.945C794.786 169.96 794.757 169.946 794.674 169.881L772.886 197.272ZM794.305 204.797C797.784 204.797 801.23 204.375 804.609 203.53L796.12 169.575C795.531 169.723 794.936 169.797 794.305 169.797L794.305 204.797ZM804.471 203.564C807.364 202.866 810.258 201.936 813.028 200.677L798.545 168.814C798.196 168.973 797.476 169.248 796.258 169.542L804.471 203.564ZM813.613 200.398C816.007 199.201 819.331 197.265 822.137 194.179L796.24 170.635C797.018 169.778 797.666 169.311 797.892 169.155C798.14 168.985 798.197 168.975 797.96 169.093L813.613 200.398ZM795.415 193.202L801.581 201.069L829.128 179.478L822.962 171.611L795.415 193.202ZM799.487 182.894L795.235 192.036L826.97 206.797L831.222 197.654L799.487 182.894ZM799.619 186.211C797.98 187.637 795.209 189.47 790.812 191.495L805.452 223.286C811.828 220.349 817.704 216.867 822.585 212.622L799.619 186.211ZM790.732 191.532C788.418 192.612 784.479 193.611 778.145 193.611L778.145 228.611C787.83 228.611 797.215 227.13 805.533 223.248L790.732 191.532ZM847.461 191.91H811.102L811.102 226.91H847.461L847.461 191.91ZM828.602 209.41L828.602 191.762H793.602L793.602 209.41H828.602ZM811.102 174.262H809.189L809.189 209.262H811.102L811.102 174.262ZM826.689 191.762L826.689 129.038H791.689L791.689 191.762H826.689ZM826.689 129.038C826.689 121.355 824.533 109.713 813.392 103.463L796.268 133.988C795.208 133.393 794.252 132.609 793.469 131.699C792.702 130.806 792.241 129.959 791.98 129.34C791.505 128.217 791.689 127.875 791.689 129.038H826.689ZM813.553 103.555C806.893 99.7253 799.265 98.7804 792.604 98.7804L792.604 133.78C794.411 133.78 795.569 133.923 796.215 134.052C796.872 134.183 796.709 134.243 796.106 133.896L813.553 103.555ZM792.604 98.7804C787.159 98.7804 781.58 99.2056 775.883 100.019L780.833 134.668C785.058 134.064 788.977 133.78 792.604 133.78L792.604 98.7804ZM775.848 100.024C770.253 100.835 764.782 101.976 759.442 103.455L768.782 137.186C772.656 136.113 776.682 135.269 780.868 134.663L775.848 100.024ZM759.684 103.39C754.279 104.803 749.195 106.554 744.556 108.731L759.428 140.414C761.736 139.331 764.731 138.247 768.54 137.251L759.684 103.39ZM768.515 118.806L760.648 96.2673L727.603 107.802L735.47 130.34L768.515 118.806ZM753.236 116.976C754.698 116.084 757.636 114.67 762.651 112.846L750.69 79.9536C744.79 82.099 739.364 84.4409 735.015 87.0931L753.236 116.976ZM762.769 112.803C767.323 111.11 772.647 109.6 778.809 108.33L771.741 74.0512C764.152 75.6158 757.074 77.5794 750.572 79.997L762.769 112.803ZM778.809 108.33C784.51 107.155 790.306 106.564 796.218 106.564L796.218 71.5644C787.955 71.5644 779.79 72.3916 771.741 74.0512L778.809 108.33ZM796.218 106.564C807.503 106.564 815.064 107.921 819.779 109.745L832.405 77.1016C822.095 73.1135 809.74 71.5644 796.218 71.5644L796.218 106.564ZM819.779 109.745C823.713 111.266 825.602 113.231 826.774 115.524L857.942 99.6013C852.452 88.854 843.497 81.3918 832.405 77.1016L819.779 109.745ZM826.843 115.658C828.462 118.762 829.961 124.361 829.961 133.716H864.961C864.961 121.24 863.058 109.405 857.873 99.4679L826.843 115.658ZM829.961 133.716L829.961 209.41H864.961L864.961 133.716H829.961ZM894.916 206.859L886.327 222.105L886.372 222.131L886.418 222.156L894.916 206.859ZM883.966 194.101L867.622 200.356L867.669 200.479L867.718 200.6L883.966 194.101ZM880.67 116.28H898.17L898.17 98.7804H880.67L880.67 116.28ZM867.062 116.28H849.562L849.562 133.78H867.062L867.062 116.28ZM867.062 95.8684L862.285 79.0332L849.562 82.6436L849.562 95.8684H867.062ZM880.032 91.297L887.324 107.206L887.46 107.143L887.595 107.079L880.032 91.297ZM887.474 83.9614L871.687 76.4109L887.474 83.9614ZM890.026 78.1142L906.239 84.7008L906.239 84.7008L890.026 78.1142ZM895.767 63.9746L895.767 46.4746H884.129L879.628 57.2069L895.767 63.9746ZM919.155 63.9746L936.655 63.9746L936.655 46.4746L919.155 46.4746L919.155 63.9746ZM919.155 90.978H901.655L901.655 108.478H919.155L919.155 90.978ZM949.774 90.978L967.274 90.978L967.274 73.478L949.774 73.478L949.774 90.978ZM949.774 116.28L949.774 133.78H967.274L967.274 116.28L949.774 116.28ZM919.155 116.28L919.155 98.7804H901.655L901.655 116.28H919.155ZM920.325 174.54L903.267 178.449L903.306 178.617L903.347 178.784L920.325 174.54ZM924.577 181.025L931.947 165.152L931.947 165.152L924.577 181.025ZM938.823 181.769L942.048 198.969L942.306 198.921L942.563 198.865L938.823 181.769ZM950.199 177.729L967.325 174.132L962.088 149.192L940.692 163.037L950.199 177.729ZM954.664 198.992L967.038 211.366L973.737 204.667L971.79 195.395L954.664 198.992ZM945.84 204.626L953.209 220.499L953.271 220.47L953.331 220.441L945.84 204.626ZM931.913 209.304L935.782 226.371L935.889 226.346L935.997 226.321L931.913 209.304ZM915.328 193.611C908.529 193.611 904.998 192.44 903.415 191.561L886.418 222.156C895.04 226.947 905.117 228.611 915.328 228.611L915.328 193.611ZM903.506 191.612C902.158 190.852 901.092 189.797 900.214 187.602L867.718 200.6C871.376 209.745 877.611 217.195 886.327 222.105L903.506 191.612ZM900.31 187.846C899.114 184.722 898.17 179.847 898.17 172.626L863.17 172.626C863.17 182.557 864.424 191.999 867.622 200.356L900.31 187.846ZM898.17 172.626L898.17 116.28H863.17L863.17 172.626L898.17 172.626ZM880.67 98.7804H867.062L867.062 133.78H880.67L880.67 98.7804ZM884.562 116.28L884.562 95.8684H849.562L849.562 116.28H884.562ZM871.84 112.704C877.594 111.071 882.833 109.264 887.324 107.206L872.741 75.3883C870.428 76.4487 867.02 77.6893 862.285 79.0332L871.84 112.704ZM887.595 107.079C894.426 103.805 899.9 98.5408 903.262 91.5119L871.687 76.4109C871.748 76.2826 871.903 76.0304 872.159 75.7774C872.409 75.5315 872.569 75.4678 872.47 75.5152L887.595 107.079ZM903.262 91.5119C904.235 89.4764 905.228 87.1888 906.239 84.7008L873.813 71.5276C872.981 73.5756 872.273 75.1861 871.687 76.4109L903.262 91.5119ZM906.239 84.7008C907.173 82.4013 908.142 79.9977 909.145 77.4906L876.648 64.4919C875.666 66.946 874.721 69.2911 873.813 71.5276L906.239 84.7008ZM909.145 77.4906C910.105 75.0892 911.025 72.8404 911.905 70.7424L879.628 57.2069C878.665 59.5031 877.672 61.9321 876.648 64.4919L909.145 77.4906ZM895.767 81.4746H919.155L919.155 46.4746H895.767L895.767 81.4746ZM901.655 63.9746L901.655 90.978H936.655L936.655 63.9746L901.655 63.9746ZM919.155 108.478H949.774L949.774 73.478H919.155L919.155 108.478ZM932.274 90.978L932.274 116.28L967.274 116.28L967.274 90.978L932.274 90.978ZM949.774 98.7804H919.155L919.155 133.78H949.774L949.774 98.7804ZM901.655 116.28L901.655 158.38H936.655L936.655 116.28H901.655ZM901.655 158.38C901.655 165.949 902.02 173.005 903.267 178.449L937.383 170.631C937.071 169.27 936.655 165.553 936.655 158.38H901.655ZM903.347 178.784C904.711 184.238 908.148 192.691 917.208 196.897L931.947 165.152C934.414 166.298 935.909 167.97 936.66 169.116C937.334 170.144 937.41 170.726 937.302 170.295L903.347 178.784ZM917.208 196.897C922.463 199.337 928.077 199.907 932.764 199.907L932.764 164.907C931.769 164.907 931.221 164.838 931.026 164.805C930.939 164.791 930.981 164.793 931.13 164.836C931.278 164.88 931.563 164.974 931.947 165.152L917.208 196.897ZM932.764 199.907C935.885 199.907 939.016 199.538 942.048 198.969L935.598 164.569C934.094 164.851 933.186 164.907 932.764 164.907L932.764 199.907ZM942.563 198.865C945.452 198.233 948.272 197.451 951.013 196.506L939.604 163.418C938.234 163.89 936.731 164.313 935.084 164.673L942.563 198.865ZM951.013 196.506C953.796 195.546 956.872 194.255 959.706 192.422L940.692 163.037C940.955 162.866 941.026 162.851 940.805 162.952C940.594 163.049 940.208 163.209 939.604 163.418L951.013 196.506ZM933.072 181.326L937.537 202.588L971.79 195.395L967.325 174.132L933.072 181.326ZM942.29 186.617C942.508 186.399 942.395 186.562 941.658 187.033C940.95 187.485 939.879 188.086 938.348 188.811L953.331 220.441C958.08 218.192 963.114 215.29 967.038 211.366L942.29 186.617ZM938.47 188.753C935.778 190.003 932.281 191.219 927.829 192.287L935.997 226.321C942.177 224.837 947.964 222.934 953.209 220.499L938.47 188.753ZM928.044 192.237C924.064 193.139 919.837 193.611 915.328 193.611L915.328 228.611C922.302 228.611 929.131 227.878 935.782 226.371L928.044 192.237Z" fill="white" mask="url(#path-2-outside-1_800_1254)"/>
</svg>
